<svg width="34" height="34" viewBox="0 0 34 34" fill="none" xmlns="http://www.w3.org/2000/svg">
<ellipse cx="16.5754" cy="17" rx="16.575" ry="17" transform="rotate(-180 16.5754 17)" fill="#003366"/>
<path d="M22.4091 25.0142H18.1094C18.8317 24.3949 19.5129 23.7327 20.1489 23.0315C22.5351 20.396 23.8 17.6177 23.8 14.9963C23.8 13.0479 22.994 11.1793 21.5594 9.80162C20.1247 8.4239 18.1789 7.6499 16.15 7.6499C14.1211 7.6499 12.1753 8.4239 10.7406 9.80162C9.30598 11.1793 8.5 13.0479 8.5 14.9963C8.5 17.6177 9.76138 20.396 12.1511 23.0315C12.7871 23.7327 13.4683 24.3949 14.1906 25.0142H9.89091C9.70646 25.0142 9.52957 25.0846 9.39915 25.2098C9.26873 25.335 9.19545 25.5049 9.19545 25.682C9.19545 25.8592 9.26873 26.029 9.39915 26.1543C9.52957 26.2795 9.70646 26.3499 9.89091 26.3499H22.4091C22.5935 26.3499 22.7704 26.2795 22.9009 26.1543C23.0313 26.029 23.1045 25.8592 23.1045 25.682C23.1045 25.5049 23.0313 25.335 22.9009 25.2098C22.7704 25.0846 22.5935 25.0142 22.4091 25.0142ZM9.89091 14.9963C9.89091 13.4022 10.5503 11.8733 11.7242 10.7461C12.898 9.61889 14.49 8.98562 16.15 8.98562C17.81 8.98562 19.402 9.61889 20.5758 10.7461C21.7497 11.8733 22.4091 13.4022 22.4091 14.9963C22.4091 19.774 17.587 23.762 16.15 24.8472C14.713 23.762 9.89091 19.774 9.89091 14.9963ZM19.6273 14.9963C19.6273 14.3359 19.4233 13.6903 19.0412 13.1411C18.6592 12.592 18.1161 12.164 17.4807 11.9112C16.8453 11.6585 16.1461 11.5924 15.4716 11.7212C14.7971 11.8501 14.1775 12.1681 13.6912 12.6351C13.2049 13.1021 12.8737 13.6971 12.7395 14.3449C12.6054 14.9926 12.6742 15.664 12.9374 16.2742C13.2006 16.8844 13.6463 17.4059 14.2181 17.7728C14.79 18.1398 15.4623 18.3356 16.15 18.3356C17.0722 18.3356 17.9567 17.9838 18.6088 17.3576C19.2609 16.7313 19.6273 15.882 19.6273 14.9963ZM14.0636 14.9963C14.0636 14.6001 14.186 14.2127 14.4153 13.8832C14.6445 13.5537 14.9703 13.2969 15.3516 13.1453C15.7328 12.9936 16.1523 12.9539 16.557 13.0313C16.9617 13.1086 17.3335 13.2994 17.6253 13.5796C17.9171 13.8598 18.1158 14.2168 18.1963 14.6055C18.2768 14.9941 18.2355 15.397 18.0775 15.7631C17.9196 16.1292 17.6522 16.4421 17.3091 16.6622C16.966 16.8824 16.5626 16.9999 16.15 16.9999C15.5967 16.9999 15.066 16.7888 14.6747 16.4131C14.2834 16.0373 14.0636 15.5277 14.0636 14.9963Z" fill="white"/>
</svg>
