<svg width="48" height="48" viewBox="0 0 48 48" fill="none" xmlns="http://www.w3.org/2000/svg">
<path d="M47.9937 26.0192C47.6013 30.5817 45.9139 34.9372 43.1302 38.5733C40.3465 42.2094 36.5821 44.9748 32.2801 46.5441C27.9781 48.1135 23.3174 48.4215 18.8462 47.432C14.3751 46.4425 10.2795 44.1966 7.04147 40.9585C3.8034 37.7205 1.55749 33.6249 0.567975 29.1538C-0.42154 24.6826 -0.113493 20.0219 1.45587 15.7199C3.02524 11.4179 5.79064 7.65354 9.42672 4.86981C13.0628 2.08607 17.4183 0.398723 21.9808 0.00627568C22.2233 -0.0137368 22.4675 0.0142253 22.6993 0.0885658C22.931 0.162906 23.1459 0.282169 23.3316 0.439545C23.5172 0.596921 23.6701 0.789328 23.7814 1.00578C23.8927 1.22223 23.9603 1.45849 23.9803 1.70107C24.0004 1.94364 23.9724 2.18778 23.8981 2.41955C23.8237 2.65132 23.7045 2.86618 23.5471 3.05186C23.3897 3.23753 23.1973 3.3904 22.9808 3.50171C22.7644 3.61303 22.5281 3.68063 22.2856 3.70064C18.424 4.03243 14.7375 5.46024 11.6599 7.81608C8.58226 10.1719 6.24153 13.3578 4.91309 16.9988C3.58466 20.6398 3.3238 24.5845 4.1612 28.3688C4.9986 32.153 6.89943 35.6194 9.64003 38.36C12.3806 41.1006 15.847 43.0014 19.6312 43.8388C23.4155 44.6762 27.3602 44.4153 31.0012 43.0869C34.6422 41.7585 37.8281 39.4177 40.1839 36.3401C42.5398 33.2625 43.9676 29.576 44.2994 25.7144C44.3398 25.2245 44.5731 24.7708 44.9481 24.4529C45.3231 24.1351 45.809 23.9792 46.2989 24.0197C46.7888 24.0601 47.2426 24.2934 47.5605 24.6684C47.8783 25.0434 48.0341 25.5293 47.9937 26.0192ZM22.1332 11.0894V24.0197C22.1332 24.5096 22.3278 24.9794 22.6742 25.3258C23.0206 25.6722 23.4904 25.8668 23.9803 25.8668H36.9106C37.4005 25.8668 37.8704 25.6722 38.2168 25.3258C38.5632 24.9794 38.7578 24.5096 38.7578 24.0197C38.7578 23.5297 38.5632 23.0599 38.2168 22.7135C37.8704 22.3671 37.4005 22.1725 36.9106 22.1725H25.8275V11.0894C25.8275 10.5995 25.6329 10.1296 25.2865 9.78322C24.9401 9.4368 24.4703 9.24219 23.9803 9.24219C23.4904 9.24219 23.0206 9.4368 22.6742 9.78322C22.3278 10.1296 22.1332 10.5995 22.1332 11.0894ZM31.3691 5.54782C31.9171 5.54782 32.4528 5.38532 32.9084 5.08086C33.3641 4.77641 33.7192 4.34367 33.9289 3.83738C34.1387 3.33109 34.1935 2.77398 34.0866 2.2365C33.9797 1.69902 33.7158 1.20532 33.3283 0.817817C32.9408 0.430317 32.4471 0.166426 31.9096 0.0595155C31.3722 -0.0473954 30.815 0.00747516 30.3088 0.217188C29.8025 0.426902 29.3697 0.782039 29.0653 1.23769C28.7608 1.69334 28.5983 2.22904 28.5983 2.77705C28.5983 3.5119 28.8902 4.21666 29.4098 4.73628C29.9295 5.2559 30.6342 5.54782 31.3691 5.54782ZM39.6814 11.0894C40.2294 11.0894 40.7651 10.9269 41.2208 10.6224C41.6764 10.318 42.0315 9.88522 42.2413 9.37893C42.451 8.87263 42.5058 8.31552 42.3989 7.77805C42.292 7.24057 42.0281 6.74686 41.6406 6.35936C41.2531 5.97186 40.7594 5.70797 40.222 5.60106C39.6845 5.49415 39.1274 5.54902 38.6211 5.75874C38.1148 5.96845 37.682 6.32359 37.3776 6.77924C37.0731 7.23489 36.9106 7.77059 36.9106 8.3186C36.9106 9.05345 37.2025 9.75821 37.7222 10.2778C38.2418 10.7975 38.9465 11.0894 39.6814 11.0894ZM45.2229 19.4017C45.771 19.4017 46.3067 19.2392 46.7623 18.9347C47.218 18.6303 47.5731 18.1975 47.7828 17.6912C47.9925 17.185 48.0474 16.6278 47.9405 16.0904C47.8336 15.5529 47.5697 15.0592 47.1822 14.6717C46.7947 14.2842 46.301 14.0203 45.7635 13.9134C45.226 13.8065 44.6689 13.8613 44.1626 14.0711C43.6563 14.2808 43.2236 14.6359 42.9191 15.0916C42.6147 15.5472 42.4522 16.0829 42.4522 16.6309C42.4522 17.3658 42.7441 18.0705 43.2637 18.5902C43.7833 19.1098 44.4881 19.4017 45.2229 19.4017Z" fill="#003366"/>
</svg>
