<svg xmlns="http://www.w3.org/2000/svg" viewBox="-49 172.9 496 496"><path d="M439 356.9h-8v-8c0-13.2-10.8-24-24-24h-16c-13.2 0-24 10.8-24 24v8h-8c-4.4 0-8 3.6-8 8V393L180.3 524.9H151c-4.4 0-8 3.6-8 8v24H23c-4.4 0-8 3.6-8 8v24h-56c-4.4 0-8 3.6-8 8v64c0 4.4 3.6 8 8 8h240c4.4 0 8-3.6 8-8v-84l144-108c0 4.4 3.6 8 8 8h8v48h-48c-1.8 0-3.6.6-5 1.8l-40 32c-1.9 1.5-3 3.8-3 6.2v40h-40c-4.4 0-8 3.6-8 8v48c0 4.4 3.6 8 8 8h192c4.4 0 8-3.6 8-8v-184h8c4.4 0 8-3.6 8-8v-32c0-4.4-3.6-8-8-8h-8v-24h8c4.4 0 8-3.6 8-8v-32c0-4.4-3.6-8-8-8zm-56-8c0-4.4 3.6-8 8-8h16c4.4 0 8 3.6 8 8v8h-32v-8zm-224 192h16v16h-16v-16zm-192 64h48v48h-48v-48zm224 48H31v-80h160v80zm13.2-93.9c-1.4-1.2-3.2-2.1-5.2-2.1h-8v-20.1l170.7-131.9h5.3v24h-8c-4.4 0-8 3.6-8 8v12L204.2 559zm34.8 61.9h32v32h-32v-32zm48-8v-44.2l34.8-27.8H367v112h-80v-40zm128 40h-32v-176h32v176zm16-192h-64v-16h64v16zm-16-32h-32v-24h32v24zm16-40h-64v-16h64v16zM47 284.9h3.7c1.3 4.1 2.9 8.2 4.9 12l-6.3 6.3c-3.1 3.1-3.1 8.2 0 11.3l24 24c3 3 8.3 3 11.3 0l6.3-6.3c3.9 2 7.9 3.6 12 4.9v3.7c0 4.4 3.6 8 8 8h32c4.4 0 8-3.6 8-8v-3.7c4.1-1.3 8.2-2.9 12-4.9l6.3 6.3c3.1 3.1 8.2 3.1 11.3 0l24-24c3.1-3.1 3.1-8.2 0-11.3l-6.3-6.3c2-3.9 3.6-7.9 4.9-12h3.7c4.4 0 8-3.6 8-8v-32c0-4.4-3.6-8-8-8h-3.7c-1.3-4.1-2.9-8.2-4.9-12l6.3-6.3c3.1-3.1 3.1-8.2 0-11.3l-24-24c-3.1-3.1-8.2-3.1-11.3 0l-6.3 6.3c-3.9-2-7.9-3.6-12-4.9V181c0-4.4-3.6-8-8-8h-32c-4.4 0-8 3.6-8 8v3.7c-4.1 1.3-8.2 2.9-12 4.9l-6.3-6.3c-1.5-1.5-3.5-2.3-5.7-2.3s-4.2.8-5.7 2.3l-24 24c-3.1 3.1-3.1 8.2 0 11.3l6.3 6.3c-2 3.9-3.6 7.9-4.9 12H47c-4.4 0-8 3.6-8 8v32c0 4.4 3.6 8 8 8zm8-32h1.8c3.7 0 7-2.6 7.8-6.2 1.5-6.7 4.1-13.1 7.8-19 1.9-3.2 1.4-7.2-1.2-9.8l-4.9-4.9L79 200.2l4.9 4.9c2.6 2.6 6.7 3.1 9.8 1.2 5.9-3.6 12.3-6.2 19-7.8 3.6-.8 6.2-4.1 6.2-7.8v-1.8h16v1.8c0 3.7 2.6 7 6.2 7.8 6.7 1.5 13.1 4.1 19 7.8 3.2 1.9 7.2 1.5 9.8-1.2l4.9-4.9 12.7 12.7-4.9 4.9c-2.6 2.6-3.1 6.7-1.2 9.8 3.6 5.9 6.2 12.3 7.8 19 .8 3.6 4.1 6.2 7.8 6.2h1.8v16H197c-3.7 0-7 2.6-7.8 6.2-1.5 6.7-4.1 13.1-7.8 19-1.9 3.2-1.4 7.2 1.2 9.8l4.9 4.9-12.5 12.9-4.9-4.9c-2.6-2.6-6.7-3.1-9.8-1.2-5.9 3.6-12.3 6.2-19 7.8-3.6.8-6.2 4.1-6.2 7.8v1.8h-16v-1.8c0-3.7-2.6-7-6.2-7.8-6.7-1.5-13.1-4.1-19-7.8-3.1-1.9-7.2-1.4-9.8 1.2l-4.9 4.9-12.7-12.7 4.9-4.9c2.6-2.6 3.1-6.7 1.2-9.8-3.6-5.9-6.2-12.3-7.8-19-.8-3.6-4.1-6.2-7.8-6.2h-2v-16.1z"/><path d="M127 308.9c26.5 0 48-21.5 48-48s-21.5-48-48-48-48 21.5-48 48 21.5 48 48 48zm0-80c17.6 0 32 14.4 32 32s-14.4 32-32 32-32-14.4-32-32 14.4-32 32-32zM-41 460.9h3.7c1.3 4.1 2.9 8.2 4.9 12l-6.3 6.3c-3.1 3.1-3.1 8.2 0 11.3l24 24c3 3 8.3 3 11.3 0l6.3-6.3c3.9 2 7.9 3.6 12 4.9v3.7c0 4.4 3.6 8 8 8h32c4.4 0 8-3.6 8-8v-3.7c4.1-1.3 8.2-2.9 12-4.9l6.3 6.3c3.1 3.1 8.2 3.1 11.3 0l24-24c3.1-3.1 3.1-8.2 0-11.3l-6.3-6.3c2-3.9 3.6-7.9 4.9-12h3.7c4.4 0 8-3.6 8-8v-32c0-4.4-3.6-8-8-8h-3.7c-1.3-4.1-2.9-8.2-4.9-12l6.3-6.3c3.1-3.1 3.1-8.2 0-11.3l-24-24c-3.1-3.1-8.2-3.1-11.3 0l-6.3 6.3c-3.9-2-7.9-3.6-12-4.9V357c0-4.4-3.6-8-8-8H23c-4.4 0-8 3.6-8 8v3.7c-4.1 1.3-8.2 2.9-12 4.9l-6.3-6.3c-1.5-1.5-3.5-2.3-5.7-2.3s-4.2.8-5.7 2.3l-24 24c-3.1 3.1-3.1 8.2 0 11.3l6.3 6.3c-2 3.9-3.6 7.9-4.9 12H-41c-4.4 0-8 3.6-8 8v32c0 4.4 3.6 8 8 8zm8-32h1.8c3.7 0 7-2.6 7.8-6.2 1.5-6.7 4.1-13.1 7.8-19 1.9-3.2 1.4-7.2-1.2-9.8l-4.9-4.9L-9 376.2l4.9 4.9c2.6 2.6 6.7 3.1 9.8 1.2 5.9-3.6 12.3-6.2 19-7.8 3.6-.8 6.2-4.1 6.2-7.8v-1.8h16v1.8c0 3.7 2.6 7 6.2 7.8 6.7 1.5 13.1 4.1 19 7.8 3.2 1.9 7.2 1.5 9.8-1.2l4.9-4.9 12.7 12.7-4.9 4.9c-2.6 2.6-3.1 6.7-1.2 9.8 3.6 5.9 6.2 12.3 7.8 19 .8 3.6 4.1 6.2 7.8 6.2h1.8v16H109c-3.7 0-7 2.6-7.8 6.2-1.5 6.7-4.1 13.1-7.8 19-1.9 3.2-1.4 7.2 1.2 9.8l4.9 4.9L87 497.6l-4.9-4.9c-2.6-2.6-6.7-3.1-9.8-1.2-5.9 3.6-12.3 6.2-19 7.8-3.6.8-6.2 4.1-6.2 7.8v1.8H31v-1.8c0-3.7-2.6-7-6.2-7.8-6.7-1.5-13.1-4.1-19-7.8-3.1-1.9-7.2-1.4-9.8 1.2l-4.9 4.9-12.7-12.7 4.9-4.9c2.6-2.6 3.1-6.7 1.2-9.8-3.6-5.9-6.2-12.3-7.8-19-.8-3.6-4.1-6.2-7.8-6.2H-33v-16.1z"/><path d="M39 484.9c26.5 0 48-21.5 48-48s-21.5-48-48-48-48 21.5-48 48 21.5 48 48 48zm0-80c17.6 0 32 14.4 32 32s-14.4 32-32 32-32-14.4-32-32 14.4-32 32-32zM335 556.9h16v16h-16v-16zM335 588.9h16v16h-16v-16zM335 620.9h16v16h-16v-16zM47 588.9h16v16H47v-16zM79 588.9h16v16H79v-16zM111 588.9h16v16h-16v-16zM143 588.9h16v16h-16v-16zM319 268.9h80c17.6 0 32-14.4 32-32 0-1.4-.2-2.8-.4-4.2 9.8-5.5 16.4-15.8 16.4-27.8 0-17.6-14.4-32-32-32-10.8 0-20.3 5.4-26.1 13.6-7.3-8.3-18-13.6-29.9-13.6-19.3 0-35.5 13.8-39.2 32-17.9-.5-32.8 14.1-32.8 32 0 17.6 14.4 32 32 32zm96-80c8.8 0 16 7.2 16 16 0 5.3-2.6 9.9-6.6 12.8-6-8-15.6-13.1-26.2-12.8h.8c0-8.8 7.2-16 16-16zm-96 32c1.7 0 3.5.3 5.4 1 2.5.9 5.3.5 7.5-1.1s3.4-4.1 3.3-6.8c0-.3-.1-.9-.1-1.2 0-13.2 10.8-24 24-24s24 10.8 24 23.7c0 .3-.1 1.2-.1 1.4-.1 2.7 1.1 5.2 3.3 6.8 2.2 1.6 5 2 7.5 1.1 1.9-.7 3.7-1 5.4-1 8.8 0 16 7.2 16 16s-7.2 16-16 16h-80c-8.8 0-16-7.2-16-16s7-15.9 15.8-15.9z"/></svg>