<svg xmlns="http://www.w3.org/2000/svg" viewBox="-41 164.9 512 512"><path d="M465.4 578.4L360.1 473.1c-3.6-3.6-8.4-5.6-13.4-5.6-3.5 0-6.9 1-9.8 2.7L277.7 411c-3-3-7.9-3-11 0-3 3-3 7.9 0 11l58.7 58.7-21.6 21.6-107.6-107.5 21.6-21.6 14.4 14.4c3 3 7.9 3 11 0 3-3 3-7.9 0-11l-14.4-14.4 37.5-37.5 3 3c3.7 3.7 8.6 5.7 13.8 5.7 5.2 0 10.1-2 13.8-5.7l13.8-13.8c3.7-3.7 5.7-8.6 5.7-13.8 0-5.2-2-10.1-5.7-13.8L204.6 180c-3.7-3.7-8.6-5.7-13.8-5.7-5.2 0-10.1 2-13.8 5.7l-13.8 13.8c-3.7 3.7-5.7 8.6-5.7 13.8 0 5.2 2 10.1 5.7 13.8l3 3L47.5 343.1l-3-3c-7.6-7.6-20-7.6-27.6 0L3.1 353.9c-3.7 3.7-5.7 8.6-5.7 13.8 0 5.2 2 10.1 5.7 13.8l106.1 106.1c3.7 3.7 8.6 5.7 13.8 5.7s10.1-2 13.8-5.7l13.8-13.8c7.6-7.6 7.6-20 0-27.6l-3-3 37.5-37.5 108.2 108.2c-1.8 2.9-2.7 6.3-2.7 9.8 0 5.1 2 9.8 5.6 13.4l105.3 105.3c3.6 3.6 8.4 5.6 13.4 5.6 5.1 0 9.8-2 13.4-5.6l37.1-37.1c3.6-3.6 5.6-8.4 5.6-13.4s-2-9.9-5.6-13.5zM174.1 204.8L188 191c.8-.8 1.8-1.2 2.8-1.2 1.1 0 2.1.4 2.8 1.2l106.1 106.1c.8.8 1.2 1.8 1.2 2.8 0 1.1-.4 2.1-1.2 2.8l-13.8 13.8c-1.5 1.5-4.1 1.5-5.7 0l-106.1-106c-.8-.8-1.2-1.8-1.2-2.8.1-1.1.5-2.1 1.2-2.9zm-34.5 258.1l-13.8 13.8c-1.5 1.5-4.1 1.5-5.7 0L14 370.6c-.8-.8-1.2-1.8-1.2-2.8 0-1.1.4-2.1 1.2-2.8l13.8-13.8c.8-.8 1.8-1.2 2.8-1.2s2 .4 2.8 1.2l106.1 106.1c1.7 1.5 1.7 4 .1 5.6zm40.1-73.6l-43 43-78.2-78.2 118.6-118.6 78.2 78.2-43 43-32.6 32.6zm274.8 205l-37.1 37.1c-.9.9-1.9 1-2.4 1s-1.6-.1-2.4-1L307.1 526.1c-.9-.9-1-1.9-1-2.4s.1-1.6 1-2.4l2.3-2.3 34.9-34.9c.9-.9 1.9-1 2.4-1s1.6.1 2.4 1l105.3 105.3c.9.9 1 1.9 1 2.4s-.1 1.6-.9 2.5z"/><path d="M253.8 598.7h-11.9v-40.9c0-9.1-7.4-16.5-16.5-16.5H91.6c-4.3 0-7.8 3.5-7.8 7.8s3.5 7.8 7.8 7.8h133.8c.6 0 1 .5 1 1v40.9H20.1v-40.9c0-.6.5-1 1-1h21.6c4.3 0 7.8-3.5 7.8-7.8s-3.5-7.8-7.8-7.8H21.2c-9.1 0-16.5 7.4-16.5 16.5v40.9h-12c-18.6 0-33.7 15.1-33.7 33.7v22.1c0 7.2 5.8 13 13 13h302.6c7.2 0 13-5.8 13-13v-22.1c0-18.6-15.2-33.7-33.8-33.7zm18.2 53.2H-25.5v-19.6c0-10 8.2-18.2 18.2-18.2h261.1c10 0 18.2 8.2 18.2 18.2v19.6z"/></svg>