<svg id="Слой_1" xmlns="http://www.w3.org/2000/svg" viewBox="-49 172.9 496 496"><style>.st0{fill:#fff}</style><path class="st0" d="M303.5 428.9c4.8 0 9.4 1.4 13.3 4l55.9 37.3c6.6 4.4 14.3 6.7 22.2 6.7H447v-16h-52.1c-4.8 0-9.4-1.4-13.3-4l-22.6-15v-269H55v48H-49v448h304v-48h104v-67.3l1.5-.3 37.2-9.3c8.3-2.1 16.8-3.1 25.3-3.1h24v-16h-24c-9.8 0-19.6 1.2-29.1 3.6l-37.2 9.3c-19.1 4.8-39.5 4-58.2-2.2l-13.5-4.5c-12.3-4.1-25.1-6.2-38-6.2h-69.8c0-13.2 10.8-24 24-24h88c13.2 0 24-10.8 24-24 0-12.3-9.3-22.3-21.2-23.7l6.6-24.3h4.9zm-10.1 121.8c12.3 4.1 25.1 6.2 38 6.2 3.9 0 7.8-.3 11.6-.7v48.7h-88v-26.2c2.8-3.2 5-7.1 6.2-11.4l6.6-24.3c4.1.8 8.2 1.8 12.2 3.2l13.4 4.5zm-41.7-9.6l-6 22.1c-1.6 5.7-6.8 9.8-12.7 9.8h-2.6c-7.3 0-13.2-5.9-13.2-13.2 0-1.2.2-2.3.5-3.4l4.2-15.4H247c1.6-.1 3.1 0 4.7.1zm-46.5-.2l-3 11.2c-.7 2.5-1 5-1 7.6 0 10.8 6 20.2 14.7 25.2l-2.5 10 15.5 3.9 2.5-9.9h1.5c2.1 0 4.1-.3 6-.7v64.7H-33v-416H71v-48h272v242.3l-17.3-11.5c-6.6-4.4-14.3-6.7-22.2-6.7h-.6l33.3-123.2c.7-2.5 1-5 1-7.6 0-16.1-13.1-29.2-29.2-29.2h-2.6c-13.2 0-24.7 8.9-28.2 21.6L255 356.8V220.9H87v16h152v176h-16.6c-8.7 0-16.9 2.9-23.8 8H119v16h62.9l-16 16H119v16h30.9l-13.4 13.4c-4.7 4.7-7.3 11-7.3 17.7 0 13.8 11.2 25 25 25 2.5 0 4.8-.5 7.1-1.2 0 .4-.1.8-.1 1.2 0 8.8 7.2 16 16 16h28zm61.7-56H237l33.8-125 27.4 9.1-31.3 115.9zm-61.4-49c4.5-4.5 10.7-7 17-7h13.1L229 453c-10.1.4-19.6 4.4-26.8 11.6l-41.7 41.7c-1.7 1.7-4 2.6-6.3 2.6-5 0-9-4-9-9 0-2.4.9-4.6 2.6-6.3l57.7-57.7zm8 40c3-3 6.9-5.1 11-6.2l-4.1 15.1h-15.9l9-8.9zm107.2-190.4l-9.8 36.2-27.4-9.1 9.2-34c1.6-5.7 6.8-9.8 12.7-9.8h2.6c7.3 0 13.2 5.9 13.2 13.2 0 1.2-.2 2.4-.5 3.5zm-41.4 42.6l27.4 9.1-4.4 16.3-27.4-9.1 4.4-16.3zm9.9 140.8c4.4 0 8 3.6 8 8s-3.6 8-8 8h-5.8l4.3-16h1.5z"/><path class="st0" d="M191 252.9H-17v80h208v-80zm-16 64H-1v-48h176v48z"/><path class="st0" d="M15 284.9h16v16H15v-16zM47 284.9h16v16H47v-16zM79 284.9h16v16H79v-16zM111 284.9h16v16h-16v-16zM143 284.9h16v16h-16v-16zM79 428.9H63v32H-1v-64h48v-16h-64v96h96v-48z"/><path class="st0" d="M105.3 351.2L31 425.6l-10.3-10.3-11.4 11.2L31 448.2l85.7-85.7-11.4-11.3zM63 596.9H-1v-64h48v-16h-64v96h96v-48H63v32z"/><path class="st0" d="M20.7 551.2L9.3 562.5 31 584.2l85.7-85.7-11.3-11.3L31 561.6l-10.3-10.4zM207 612.9h16v16h-16v-16zM103 612.9h88v16h-88v-16zM119 388.9h104v16H119v-16z"/></svg>