<svg xmlns="http://www.w3.org/2000/svg" viewBox="-41 164.9 512 512"><path d="M111.8 328.8c-6.3 0-12.4 1.7-17.7 4.9-5.2-3.1-11.2-4.9-17.7-4.9-18.9 0-34.3 15.4-34.3 34.3s15.4 34.3 34.3 34.3c6.5 0 12.5-1.8 17.7-4.9 5.3 3.2 11.4 4.9 17.7 4.9 18.9 0 34.3-15.4 34.3-34.3s-15.4-34.3-34.3-34.3zm-35.4 53.7c-10.7 0-19.3-8.7-19.3-19.3 0-10.7 8.7-19.3 19.3-19.3s19.3 8.7 19.3 19.3c0 10.6-8.7 19.3-19.3 19.3zm35.4 0c-2.2 0-4.3-.4-6.3-1.1 3.3-5.3 5.3-11.5 5.3-18.3 0-6.7-1.9-13-5.3-18.3 2-.7 4.2-1.1 6.3-1.1 10.7 0 19.3 8.7 19.3 19.3 0 10.8-8.7 19.5-19.3 19.5zM365.9 490h-72.7c-4.1 0-7.5 3.4-7.5 7.5s3.4 7.5 7.5 7.5h72.7c4.1 0 7.5-3.4 7.5-7.5s-3.3-7.5-7.5-7.5zM269.8 490h-14.4c-4.1 0-7.5 3.4-7.5 7.5s3.4 7.5 7.5 7.5h14.4c4.1 0 7.5-3.4 7.5-7.5s-3.3-7.5-7.5-7.5zM63.3 490H48.8c-4.1 0-7.5 3.4-7.5 7.5s3.4 7.5 7.5 7.5h14.4c4.1 0 7.5-3.4 7.5-7.5.1-4.1-3.3-7.5-7.4-7.5z"/><path d="M396 239.9c-10.3-10.3-21.4-19.7-33.2-28-3.4-2.4-8.1-1.6-10.5 1.8-2.4 3.4-1.6 8.1 1.8 10.5 11.1 7.9 21.6 16.7 31.3 26.4 45.5 45.5 70.6 106 70.6 170.4s-25.1 124.9-70.6 170.4C339.9 636.9 279.4 662 215 662S90.1 636.8 44.6 591.3c-3.3-3.3-6.6-6.8-9.7-10.3-.3-.8-.8-1.6-1.4-2.3-2.8-3.1-7.5-3.3-10.6-.5l-.6.6c-2.8 2.8-2.9 7.3-.3 10.2 3.9 4.5 8 8.8 12.1 13 48.4 48.3 112.6 75 181 75s132.7-26.6 181-75c48.3-48.4 75-112.6 75-181S444.4 288.2 396 239.9z"/><path d="M344.8 263.6c-.1-2.1-1.2-4.1-2.9-5.5-36.6-28.6-80.5-43.8-127-43.8-32.8 0-64.2 7.5-93.3 22.3-27.7 14.1-52.4 34.7-71.2 59.6C23 332.4 8.5 375.5 8.5 420.9c0 45.4 14.5 88.5 41.9 124.6l1.8 2.4c1.3 1.7 3.3 2.7 5.4 2.9h.4c2 0 3.9-.8 5.3-2.2l2.3-2.3 276.9-276.9c1.7-1.5 2.5-3.6 2.3-5.8zM158.7 432.1H57v-10h111.7l-10 10zm25-25H49.5c-4.1 0-7.5 3.4-7.5 7.5v25c0 4.1 3.4 7.5 7.5 7.5h94.2l-17.1 17.1H48.4c-4.1 0-7.5 3.4-7.5 7.5s3.4 7.5 7.5 7.5h63.2L59 531.8C35.8 499.3 23.5 461 23.5 420.9c0-40.8 12.7-79.7 36.7-112.6h222.3l-98.8 98.8zm113.8-113.8H72.3c36.4-40.8 87.5-63.9 142.7-63.9 40.2 0 78.4 12.2 110.9 35.5l-28.4 28.4zM379.5 296.3l-1.8-2.4c-1.3-1.7-3.3-2.7-5.4-2.9-2.1-.1-4.2.7-5.8 2.2l-2.3 2.3L87.3 572.4c-1.5 1.5-2.3 3.6-2.2 5.8.1 2.1 1.2 4.1 2.9 5.5 36.6 28.6 80.5 43.8 127 43.8 68.9 0 133-34.2 171.5-91.6.1-.1.1-.2.2-.3 22.7-34 34.8-73.6 34.8-114.6 0-45.5-14.5-88.6-42-124.7zm-68.7 87.8c0-1.8 1.5-3.3 3.3-3.3h30.6v6.9h-33.9v-3.6zm0 18.6h33.9v4.4h-33.9v-4.4zm0 19.4h33.9v5.3H314c-1.8 0-3.3-1.5-3.3-3.3v-2zm-51.9 0h6.1v10h-16.1l10-10zm116.4 103.4c-10.3 5.2-21.9 8-33.6 8H226.3c-4.1 0-7.5 3.4-7.5 7.5s3.4 7.5 7.5 7.5h115.3c5.9 0 11.8-.6 17.5-1.7-36.2 41.5-88.5 65.6-144.2 65.6-40.2 0-78.4-12.2-110.9-35.5l28.4-28.4h63.8c4.1 0 7.5-3.4 7.5-7.5s-3.4-7.5-7.5-7.5h-48.8l54.3-54.3h164.2c4.1 0 7.5-3.4 7.5-7.5s-3.4-7.5-7.5-7.5H216.7l17.1-17.1h38.6c4.1 0 7.5-3.4 7.5-7.5v-25c0-3.7-2.7-6.8-6.3-7.4l22-22v38.9c0 10.1 8.2 18.3 18.3 18.3h54.9c10.1 0 18.3-8.2 18.3-18.3v-40c0-10.1-8.2-18.3-18.3-18.3H315l56-55.8c23.2 32.5 35.5 70.8 35.5 110.9 0 37.3-10.8 73.5-31.2 104.6zm-15.7-98.1v-46.6h9.3c1.8 0 3.3 1.5 3.3 3.3v40c0 1.8-1.5 3.3-3.3 3.3h-9.3z"/><path d="M335.9 195.1c-36.8-19.8-78.6-30.2-120.9-30.2-68.4 0-132.7 26.6-181 75-48.3 48.4-75 112.6-75 181 0 51.7 15.3 101.4 44.1 143.8 1.5 2.1 3.8 3.3 6.2 3.3 1.5 0 2.9-.4 4.2-1.3 3.4-2.3 4.3-7 2-10.4C-11.6 516.4-26 469.6-26 420.9-26 356.5-.9 296 44.6 250.5c45.5-45.5 106-70.6 170.4-70.6 39.8 0 79.2 9.8 113.8 28.4 3.6 2 8.2.6 10.2-3.1 1.9-3.6.5-8.1-3.1-10.1z"/></svg>