<svg id="Слой_1" xmlns="http://www.w3.org/2000/svg" viewBox="-57 180.9 480 480"><style>.st0{fill:#0cf}</style><path class="st0" d="M7 444.9h32v-24h168c13.3 0 24 10.7 24 24v8h-8c-4.4 0-8 3.6-8 8v32c0 4.4 3.6 8 8 8h6.7l-22.6 150.8c-.3 2.3.3 4.6 1.8 6.4 1.5 1.8 3.7 2.8 6.1 2.8h112c2.3 0 4.5-1 6.1-2.8 1.5-1.8 2.2-4.1 1.8-6.4l-22.6-150.8h6.7c4.4 0 8-3.6 8-8v-32c0-4.4-3.6-8-8-8h-8v-24c-.1-48.6-39.4-87.9-88-88h-19.1l-13.7-27.6c-1.4-2.7-4.2-4.4-7.2-4.4h-8v-24c0-4.4-3.6-8-8-8h-8v-16h64c4.4 0 8-3.6 8-8v-32c0-4.4-3.6-8-8-8h-64v-8c0-13.3-10.7-24-24-24s-24 10.7-24 24v8H47c-4.4 0-8 3.6-8 8v32c0 4.4 3.6 8 8 8h64v16h-8c-4.4 0-8 3.6-8 8v24h-8c-3 0-5.8 1.7-7.2 4.4L66 340.9H39v-24H7v-16h-64v160H7v-16zm224 24h80v16h-80v-16zm86.7 176h-15.5L295 580l-15.9 1.8 7 63.1h-29.6l14.4-86.7-15.8-2.6-14.9 89.3h-15.9l21.6-144h50.2l21.6 144zM95 244.9v-16h32v16H95zm80-16v16h-32v-16h32zm40 16h-24v-16h24v16zm-88-40c0-4.4 3.6-8 8-8s8 3.6 8 8v8h-16v-8zm-72 24h24v16H55v-16zm72 32h16v16h-16v-16zm-16 32h48v16h-48v-16zm-40.8 64l39.2 7.8 3.1-15.7-29.7-6 9.1-18.2H178l9.1 18.2-29.8 6 3.1 15.7 39.3-7.8H223c39.7 0 72 32.3 72 72v24h-48v-8c0-22.1-17.9-40-40-40H39v-48h31.2zm-47.2-24v96H7v-96h16zm-64 112v-128h32v128h-32zM368.8 551.8c-22.2 27.3-17.9 68.2-17.7 69.9.4 3.4 2.9 6.1 6.2 6.8.6.1 1.2.2 1.8.2 2.8 0 5.4-1.4 6.9-3.8.1-.1 6.4-9.6 37.4-29.4 11.6-5.9 18.4-18.3 17.3-31.2-2-11.2-10.3-20.3-21.3-23.2-11.5-2.9-23.6 1.3-30.6 10.7zm22.9 4.4c1.1 0 2.2.2 3.3.5 4.9 1.3 8.7 5.2 9.7 10.2.8 5.2-2.8 10.7-10 15.3-9.6 6-18.8 12.5-27.6 19.6.8-14.3 5.7-28.1 14.1-39.7 2.4-3.6 6.3-5.7 10.5-5.9z"/><path class="st0" d="M127.2 553.1c-10.3 5.2-16.9 15.7-17.1 27.2.4 13.8 8.6 26.1 21.2 31.7 16.7 7.9 32.1 18.1 45.9 30.4 2.2 2.4 5.6 3.2 8.7 2.1s5.1-4 5.2-7.2c.1-2.3 1.6-57.1-27.2-78.7-10.2-8.8-24.5-10.9-36.7-5.5zm47 66.2c-11.3-8-23.2-15.2-35.5-21.5-7.2-2.8-12.1-9.6-12.7-17.3.1-5.5 3.2-10.6 8.2-13.1 2-1 4.1-1.5 6.3-1.4 5 .3 9.8 2.1 13.6 5.3 13 9.7 18.3 31.3 20.1 48zM191 548.9h16v16h-16v-16zM335 524.9h16v16h-16v-16zM159 500.9h16v16h-16v-16zM367 460.9h16v16h-16v-16z"/></svg>