<svg id="Layer_1" xmlns="http://www.w3.org/2000/svg" viewBox="-41 164.9 512 512"><style>.st0{fill:#b3404a}.st1{fill:#f4b2b0}</style><path class="st0" d="M391.5 676.9h-37.8c-8 0-14.5-6.5-14.5-14.5s6.5-14.5 14.5-14.5h37.8c27.8 0 50.5-22.7 50.5-50.5v-353c0-27.8-22.6-50.5-50.5-50.5H173.4c-8 0-14.5-6.5-14.5-14.5s6.5-14.5 14.5-14.5h218.1c43.9 0 79.5 35.7 79.5 79.5v352.9c0 43.9-35.7 79.6-79.5 79.6zM248.7 676.9H38.5c-43.9 0-79.5-35.7-79.5-79.5v-353c0-43.9 35.7-79.5 79.5-79.5h32.7c8 0 14.5 6.5 14.5 14.5s-6.5 14.5-14.5 14.5H38.5c-27.8 0-50.5 22.7-50.5 50.5v352.9c0 27.8 22.6 50.5 50.5 50.5h210.2c8 0 14.5 6.5 14.5 14.5 0 8.1-6.5 14.6-14.5 14.6z"/><path class="st1" d="M318.6 266.9H111.4c-27.8 0-50.3 22.5-50.3 50.3v207.2c0 27.8 22.5 50.3 50.3 50.3h207.2c27.8 0 50.3-22.5 50.3-50.3V317.3c0-27.8-22.5-50.4-50.3-50.4zM215 495.7c-41.3 0-74.8-33.5-74.8-74.8s33.5-74.8 74.8-74.8 74.8 33.5 74.8 74.8-33.5 74.8-74.8 74.8z"/><g><path class="st0" d="M318.6 589.4H111.4c-35.8 0-64.9-29.1-64.9-64.9V317.3c0-35.8 29.1-64.9 64.9-64.9h207.2c35.8 0 64.9 29.1 64.9 64.9v207.2c0 35.8-29.1 64.9-64.9 64.9zM111.4 281.5c-19.8 0-35.8 16.1-35.8 35.8v207.2c0 19.8 16.1 35.8 35.8 35.8h207.2c19.8 0 35.8-16.1 35.8-35.8V317.3c0-19.8-16.1-35.8-35.8-35.8H111.4zM215 510.2c-49.2 0-89.3-40.1-89.3-89.3s40.1-89.3 89.3-89.3 89.3 40.1 89.3 89.3-40.1 89.3-89.3 89.3zm0-149.6c-33.2 0-60.3 27-60.3 60.3s27 60.3 60.3 60.3 60.3-27 60.3-60.3-27.1-60.3-60.3-60.3z"/><circle class="st0" cx="305.4" cy="329.4" r="20.4"/></g></svg>