<svg id="Режим_изоляции" xmlns="http://www.w3.org/2000/svg" viewBox="-187 240.9 220 360"><style>.st0{opacity:.1}.st1{fill:#213148}.st2{fill:#e4be8d}.st3{fill:#d6dcdd}</style><g class="st0"><path class="st1" d="M.3 280.6c-3.9-.2-7.6-.3-11.4.4-.6.1-1-.6-.6-1 1.7-1.9 3.1-4.1 4.1-6.4.2-.5 1.1-.1.9.4-.8 2-1.9 3.8-3.1 5.5 2-.3 4-.4 6.1-.4-.3-.1-.4-.4-.2-.7.4-.5.8-1.1 1-1.7-.3-.4-.5-.8-.8-1.1-.4.6-.7 1.3-1 1.9-.3.5-1 .1-.8-.5.3-.8.8-1.5 1.3-2.3-.1-.1-.1-.2-.2-.3l-1.2 1.2c-.4.4-1.1-.3-.6-.6.5-.4 1-.8 1.4-1.3-.6-1-1.2-2.1-1.7-3.2-.4-.9.8-1.6 1.4-.8 1.1 1.6 2 3.3 3 5 1 1.6 2.1 3.3 3.1 4.9.1.4-.2 1-.7 1zm-3.5-1.5c.7 0 1.4 0 2.1.1-.4-.5-.8-1-1.1-1.6-.2.5-.4.9-.8 1.3-.1.2-.2.2-.2.2zM13.8 256.5c3.1 2.4 6.1 4.6 9.7 6.1.6.2.5 1-.1 1.2-2.5.6-4.8 1.7-7 3-.5.3-1-.5-.5-.8 1.8-1.2 3.7-2.1 5.7-2.8-1.8-.9-3.6-1.9-5.3-3.1.1.2.1.6-.2.7-.6.2-1.3.5-1.8.8v1.4c.6-.3 1.3-.7 1.9-1 .5-.3.9.5.4.8-.7.5-1.5.8-2.3 1.2v.4c.6-.1 1.1-.3 1.7-.3.6-.1.7.8.2.8-.6 0-1.3.2-1.9.3-.1 1.2-.2 2.4-.4 3.6-.2 1-1.6.9-1.6-.1 0-1.9.2-3.9.3-5.8.1-1.9.1-3.9.2-5.8 0-.6.6-.9 1-.6zm2.1 3.2c-.6-.4-1.1-.8-1.7-1.2 0 .6.1 1.3.1 1.9.4-.3.9-.5 1.4-.7h.2zM-16.3 300.9c3.9.2 7.6.2 11.4-.6.6-.1 1 .5.6 1-1.7 1.9-3 4.1-4 6.5-.2.5-1.1.1-.9-.4.8-2 1.8-3.8 3-5.6-2 .4-4 .5-6.1.5.3.1.4.4.2.7-.4.5-.8 1.1-1 1.7.3.4.5.7.8 1.1.3-.6.6-1.3 1-1.9.3-.5 1-.1.8.5-.3.8-.8 1.5-1.2 2.3.1.1.1.2.2.3.4-.4.8-.9 1.2-1.2.4-.4 1.1.3.6.6-.5.4-1 .8-1.4 1.3.6 1 1.2 2.1 1.8 3.2.4.9-.8 1.6-1.3.8-1.1-1.6-2-3.3-3.1-4.9-1-1.6-2.1-3.2-3.1-4.9-.3-.4 0-1 .5-1zm3.5 1.4h-2.1l1.2 1.5c.2-.5.4-.9.7-1.4.1 0 .2 0 .2-.1z"/><path class="st2" d="M10.7 306.5c-.2-3.9-.4-7.6-1.6-11.3-.2-.6.5-1.1 1-.7 2.1 1.5 4.4 2.6 6.8 3.4.5.2.3 1.1-.3 1-2.1-.6-4-1.5-5.8-2.5.5 2 .8 4 1 6 .1-.3.4-.5.7-.3.6.4 1.2.7 1.8.9.3-.3.7-.6 1-.9-.7-.3-1.3-.5-2-.8-.6-.2-.2-1 .4-.8.8.3 1.6.6 2.4 1l.3-.3c-.5-.3-.9-.7-1.3-1.1-.4-.4.2-1.1.6-.7.4.5.9.9 1.4 1.3 1-.7 2-1.4 3-2 .9-.5 1.7.6.9 1.3-1.5 1.2-3.1 2.3-4.6 3.5-1.5 1.2-3 2.4-4.6 3.5-.4.3-1 0-1.1-.5zm1.2-3.7c.1.7.1 1.4.2 2.1.5-.4.9-.9 1.4-1.3-.5-.1-1-.4-1.4-.6-.2 0-.2-.1-.2-.2z"/><path class="st3" d="M-28.5 292.1c-2.8-2.6-5.6-5.1-9.1-7-.5-.3-.4-1.1.2-1.2 2.5-.4 4.9-1.2 7.2-2.3.5-.3.9.6.5.9-1.9 1-3.9 1.7-5.9 2.3 1.8 1 3.4 2.3 4.9 3.6-.1-.3-.1-.6.3-.6.6-.1 1.3-.4 1.9-.7 0-.5.1-.9.1-1.4-.7.3-1.3.6-2 .8-.6.2-.8-.6-.3-.9.8-.4 1.6-.7 2.4-.9 0-.1 0-.3.1-.4-.6.1-1.1.1-1.7.1-.6 0-.6-.9-.1-.9.6 0 1.3 0 1.9-.1.2-1.2.4-2.4.7-3.5.3-1 1.7-.8 1.6.3-.2 1.9-.6 3.8-.9 5.7s-.5 3.8-.8 5.7c0 .5-.6.8-1 .5zm-1.8-3.4c.5.5 1.1.9 1.6 1.4 0-.6.1-1.3.1-1.9-.4.2-.9.4-1.4.6-.1-.1-.2-.1-.3-.1z"/><path class="st2" d="M-20.4 258.7c-3.8.9-7.4 1.9-10.8 3.8-.5.3-1.1-.2-.9-.8 1.1-2.3 1.7-4.8 2-7.3.1-.6 1-.5 1 .1-.2 2.1-.6 4.2-1.3 6.2 1.8-.9 3.7-1.6 5.7-2.2-.3 0-.5-.3-.4-.6.2-.6.4-1.3.5-1.9-.4-.3-.7-.6-1.1-.9-.1.7-.3 1.4-.4 2.1-.1.6-1 .4-.9-.2.1-.9.3-1.7.5-2.5l-.3-.3c-.2.5-.5 1-.8 1.5-.3.5-1.1.1-.8-.4.4-.5.7-1.1.9-1.7-.9-.8-1.8-1.7-2.6-2.6-.7-.7.3-1.8 1.1-1.2 1.5 1.2 2.9 2.6 4.3 3.8 1.4 1.3 2.9 2.5 4.4 3.8.6.4.4 1.1-.1 1.3zm-3.8-.4c.7-.2 1.4-.4 2-.6-.5-.4-1.1-.8-1.6-1.2 0 .5-.1 1-.3 1.5 0 .2 0 .3-.1.3z"/></g><g class="st0"><path class="st1" d="M.3 350.6c-3.9-.2-7.6-.3-11.4.4-.6.1-1-.6-.6-1 1.7-1.9 3.1-4.1 4.1-6.4.2-.5 1.1-.1.9.4-.8 2-1.9 3.8-3.1 5.5 2-.3 4-.4 6.1-.4-.3-.1-.4-.4-.2-.7.4-.5.8-1.1 1-1.7-.3-.4-.5-.8-.8-1.1-.4.6-.7 1.3-1 1.9-.3.5-1 .1-.8-.5.3-.8.8-1.5 1.3-2.3-.1-.1-.1-.2-.2-.3l-1.2 1.2c-.4.4-1.1-.3-.6-.6.5-.4 1-.8 1.4-1.3-.6-1.1-1.2-2.1-1.7-3.2-.4-.9.8-1.6 1.4-.8 1.1 1.6 2 3.3 3 5 1 1.6 2.1 3.3 3.1 4.9.1.4-.2 1-.7 1zm-3.5-1.5c.7 0 1.4 0 2.1.1-.4-.5-.8-1-1.1-1.6-.2.5-.4.9-.8 1.3-.1.2-.2.2-.2.2zM13.8 326.5c3.1 2.4 6.1 4.6 9.7 6.1.6.2.5 1-.1 1.2-2.5.6-4.8 1.7-7 3-.5.3-1-.5-.5-.8 1.8-1.2 3.7-2.1 5.7-2.8-1.8-.9-3.6-1.9-5.3-3.1.1.2.1.6-.2.7-.6.2-1.3.5-1.8.8v1.3c.6-.3 1.3-.7 1.9-1 .5-.3.9.5.4.8-.7.5-1.5.8-2.3 1.2v.4c.6-.1 1.1-.3 1.7-.3.6-.1.7.8.2.9-.6 0-1.3.1-1.9.3-.1 1.2-.2 2.4-.4 3.6-.2 1-1.6.9-1.6-.1 0-1.9.2-3.9.3-5.8.1-1.9.1-3.9.2-5.8 0-.6.6-.9 1-.6zm2.1 3.2c-.6-.4-1.1-.8-1.7-1.2 0 .6.1 1.3.1 1.9.4-.3.9-.5 1.4-.7h.2zM-16.3 370.9c3.9.2 7.6.2 11.4-.6.6-.1 1 .6.6 1-1.7 1.9-3 4.1-4 6.5-.2.5-1.1.1-.9-.4.8-2 1.8-3.8 3-5.6-2 .4-4 .5-6.1.5.3.1.4.4.2.7-.4.5-.8 1.1-1 1.7.3.4.5.7.8 1.1.3-.6.6-1.3 1-1.9.3-.5 1-.1.8.5-.3.8-.8 1.5-1.2 2.3.1.1.1.2.2.3.4-.4.8-.9 1.2-1.2.4-.4 1.1.3.6.6-.5.4-1 .9-1.4 1.3.6 1 1.2 2.1 1.8 3.2.4.9-.8 1.6-1.3.8-1.1-1.6-2-3.3-3.1-4.9-1-1.6-2.1-3.2-3.1-4.9-.3-.4 0-1 .5-1zm3.5 1.4h-2.1c.4.5.8 1 1.2 1.6.2-.5.4-.9.7-1.4.1-.1.2-.1.2-.2z"/><path class="st2" d="M10.7 376.5c-.2-3.9-.4-7.6-1.6-11.3-.2-.6.5-1.1 1-.7 2.1 1.5 4.4 2.6 6.8 3.4.5.2.3 1.1-.3.9-2.1-.6-4-1.5-5.8-2.5.5 1.9.8 4 1 6 .1-.3.4-.4.7-.3.6.4 1.2.6 1.8.9.3-.3.7-.6 1-.9-.7-.3-1.3-.5-2-.8-.6-.2-.2-1 .4-.8.8.3 1.6.6 2.4 1l.3-.3c-.5-.3-.9-.7-1.3-1.1-.4-.4.2-1.1.6-.7.4.5.9.9 1.4 1.3 1-.7 2-1.4 3-2 .9-.5 1.7.6.9 1.3-1.5 1.2-3.1 2.3-4.6 3.5-1.5 1.2-3 2.4-4.6 3.6-.4.3-1 0-1.1-.5zm1.2-3.7c.1.7.1 1.4.2 2.1.5-.4.9-.9 1.4-1.3-.5-.1-1-.4-1.4-.6-.2 0-.2-.1-.2-.2z"/><path class="st3" d="M-28.5 362.1c-2.8-2.6-5.6-5.1-9.1-7-.5-.3-.4-1.1.2-1.2 2.5-.4 4.9-1.2 7.2-2.3.5-.3.9.6.5.9-1.9 1-3.9 1.7-5.9 2.3 1.8 1 3.4 2.3 4.9 3.6-.1-.3-.1-.6.3-.6.6-.1 1.3-.4 1.9-.7 0-.5.1-.9.1-1.4-.7.3-1.3.6-2 .8-.6.2-.8-.6-.3-.9.8-.4 1.6-.7 2.4-.9 0-.1 0-.3.1-.4-.6.1-1.1.1-1.7.1-.6 0-.6-.9-.1-.9.6 0 1.3 0 1.9-.1.2-1.2.4-2.4.7-3.5.3-1 1.7-.8 1.6.3-.2 1.9-.6 3.8-.9 5.7s-.5 3.8-.8 5.7c0 .5-.6.8-1 .5zm-1.8-3.4c.5.5 1.1.9 1.6 1.4 0-.6.1-1.3.1-1.9-.4.2-.9.4-1.4.6-.1-.1-.2-.1-.3-.1z"/><path class="st2" d="M-20.4 328.7c-3.8.9-7.4 1.9-10.8 3.8-.5.3-1.1-.2-.9-.8 1.1-2.3 1.7-4.8 2-7.3.1-.6 1-.5 1 .1-.2 2.1-.6 4.2-1.3 6.2 1.8-.9 3.7-1.6 5.7-2.2-.3 0-.5-.3-.4-.6.2-.6.4-1.3.5-1.9-.4-.3-.7-.6-1.1-.9-.1.7-.3 1.4-.4 2.1-.1.6-1 .4-.9-.2.1-.9.3-1.7.5-2.5l-.3-.3c-.2.5-.5 1-.8 1.5-.3.5-1.1 0-.8-.4.4-.5.7-1.1.9-1.7-.9-.8-1.8-1.7-2.6-2.5-.7-.7.3-1.8 1.1-1.2 1.5 1.2 2.9 2.6 4.3 3.8 1.4 1.3 2.9 2.5 4.4 3.8.6.3.4 1.1-.1 1.2zm-3.8-.4c.7-.2 1.4-.4 2-.6-.5-.4-1.1-.8-1.6-1.2 0 .5-.1 1-.3 1.5 0 .2 0 .3-.1.3z"/></g><g class="st0"><path class="st1" d="M.3 420.6c-3.9-.2-7.6-.3-11.4.4-.6.1-1-.6-.6-1 1.7-1.9 3.1-4.1 4.1-6.4.2-.5 1.1-.1.9.4-.8 2-1.9 3.8-3.1 5.5 2-.3 4-.4 6.1-.4-.3-.1-.4-.4-.2-.7.4-.5.8-1.1 1-1.7-.3-.4-.5-.8-.8-1.1-.4.6-.7 1.3-1 1.9-.3.5-1 .1-.8-.5.3-.8.8-1.5 1.3-2.3-.1-.1-.1-.2-.2-.3l-1.2 1.2c-.4.4-1.1-.3-.6-.6.5-.4 1-.8 1.4-1.3-.6-1.1-1.2-2.1-1.7-3.2-.4-.9.8-1.6 1.4-.8 1.1 1.6 2 3.3 3 4.9 1 1.6 2.1 3.3 3.1 4.9.1.5-.2 1.1-.7 1.1zm-3.5-1.5c.7 0 1.4 0 2.1.1-.4-.5-.8-1-1.1-1.6-.2.5-.4.9-.8 1.4-.1.1-.2.1-.2.1zM13.8 396.5c3.1 2.4 6.1 4.6 9.7 6.1.6.2.5 1-.1 1.2-2.5.6-4.8 1.7-7 3-.5.3-1-.5-.5-.8 1.8-1.2 3.7-2.1 5.7-2.8-1.8-.9-3.6-1.9-5.3-3.1.1.2.1.6-.2.7-.6.2-1.3.5-1.8.8v1.4c.6-.3 1.3-.7 1.9-1 .5-.3.9.5.4.8-.7.5-1.5.8-2.3 1.2v.4c.6-.1 1.1-.3 1.7-.3.6-.1.7.8.2.9-.6 0-1.3.1-1.9.3-.1 1.2-.2 2.4-.4 3.6-.2 1-1.6.9-1.6-.1 0-1.9.2-3.9.3-5.8.1-1.9.1-3.9.2-5.8 0-.7.6-1 1-.7zm2.1 3.2c-.6-.4-1.1-.8-1.7-1.2 0 .6.1 1.3.1 1.9.4-.3.9-.5 1.4-.7h.2zM-16.3 440.9c3.9.2 7.6.2 11.4-.6.6-.1 1 .6.6 1-1.7 1.9-3 4.1-4 6.5-.2.5-1.1.1-.9-.4.8-2 1.8-3.8 3-5.6-2 .4-4 .5-6.1.5.3.1.4.4.2.7-.4.5-.8 1.1-1 1.7.3.4.5.7.8 1.1.3-.6.6-1.3 1-1.9.3-.5 1-.1.8.5-.3.8-.8 1.5-1.2 2.3.1.1.1.2.2.3.4-.4.8-.9 1.2-1.2.4-.4 1.1.3.6.6-.5.4-1 .9-1.4 1.3.6 1 1.2 2.1 1.8 3.2.4.9-.8 1.6-1.3.8-1.1-1.6-2-3.3-3.1-4.9-1-1.6-2.1-3.2-3.1-4.9-.3-.4 0-1 .5-1zm3.5 1.4h-2.1c.4.5.8 1 1.2 1.6.2-.5.4-.9.7-1.4.1-.1.2-.1.2-.2z"/><path class="st2" d="M10.7 446.5c-.2-3.9-.4-7.6-1.6-11.3-.2-.6.5-1.1 1-.7 2.1 1.5 4.4 2.6 6.8 3.4.5.2.3 1.1-.3.9-2.1-.6-4-1.5-5.8-2.5.5 1.9.8 4 1 6 .1-.3.4-.4.7-.3.6.4 1.2.6 1.8.9.3-.3.7-.6 1-.9-.7-.3-1.3-.5-2-.8-.6-.2-.2-1 .4-.8.8.3 1.6.6 2.4 1l.3-.3c-.5-.3-.9-.7-1.3-1.1-.4-.4.2-1.1.6-.7.4.5.9.9 1.4 1.3 1-.7 2-1.4 3-2 .9-.5 1.7.6.9 1.3-1.5 1.2-3.1 2.3-4.6 3.5-1.5 1.2-3 2.4-4.6 3.6-.4.3-1 0-1.1-.5zm1.2-3.7c.1.7.1 1.4.2 2.1.5-.4.9-.9 1.4-1.3-.5-.1-1-.4-1.4-.6-.2 0-.2-.1-.2-.2z"/><path class="st3" d="M-28.5 432.1c-2.8-2.6-5.6-5.1-9.1-7-.5-.3-.4-1.1.2-1.2 2.5-.4 4.9-1.2 7.2-2.3.5-.3.9.6.5.9-1.9 1-3.9 1.7-5.9 2.3 1.8 1 3.4 2.3 4.9 3.6-.1-.3-.1-.6.3-.6.6-.1 1.3-.4 1.9-.7 0-.5.1-.9.1-1.4-.7.3-1.3.5-2 .8-.6.2-.8-.6-.3-.9.8-.4 1.6-.7 2.4-.9 0-.1 0-.3.1-.4-.6.1-1.1.1-1.7.1-.6 0-.6-.9-.1-.9.6 0 1.3 0 1.9-.1.2-1.2.4-2.4.7-3.6.3-1 1.7-.8 1.6.3-.2 1.9-.6 3.8-.9 5.7-.3 1.9-.5 3.8-.8 5.7 0 .6-.6.9-1 .6zm-1.8-3.4c.5.5 1.1.9 1.6 1.4 0-.6.1-1.3.1-1.9-.4.2-.9.4-1.4.6-.1-.1-.2-.1-.3-.1z"/><path class="st2" d="M-20.4 398.7c-3.8.9-7.4 1.9-10.8 3.8-.5.3-1.1-.2-.9-.8 1.1-2.3 1.7-4.8 2-7.3.1-.6 1-.5 1 .1-.2 2.1-.6 4.2-1.3 6.2 1.8-.9 3.7-1.6 5.7-2.2-.3 0-.5-.3-.4-.6.2-.6.4-1.3.5-2-.4-.3-.7-.6-1.1-.9-.1.7-.3 1.4-.4 2.1-.1.6-1 .4-.9-.2.1-.9.3-1.7.5-2.5l-.3-.3c-.2.5-.5 1-.8 1.5-.3.5-1.1 0-.8-.4.4-.5.7-1.1.9-1.7-.9-.8-1.8-1.7-2.6-2.5-.7-.7.3-1.8 1.1-1.2 1.5 1.2 2.9 2.6 4.3 3.8s2.9 2.5 4.4 3.8c.6.4.4 1.2-.1 1.3zm-3.8-.4c.7-.2 1.4-.4 2-.6-.5-.4-1.1-.8-1.6-1.2 0 .5-.1 1-.3 1.5 0 .2 0 .3-.1.3z"/></g><g class="st0"><path class="st1" d="M.3 490.6c-3.9-.2-7.6-.3-11.4.4-.6.1-1-.6-.6-1 1.7-1.9 3.1-4.1 4.1-6.4.2-.5 1.1-.1.9.4-.8 2-1.9 3.8-3.1 5.5 2-.3 4-.4 6.1-.4-.3-.1-.4-.4-.2-.7.4-.5.8-1.1 1-1.7-.3-.4-.5-.8-.8-1.1-.4.6-.7 1.3-1 1.9-.3.5-1 .1-.8-.5.3-.8.8-1.5 1.3-2.3-.1-.1-.1-.2-.2-.3l-1.2 1.2c-.4.4-1.1-.3-.6-.6.5-.4 1-.8 1.4-1.3-.6-1.1-1.2-2.1-1.7-3.2-.4-.9.8-1.6 1.4-.8 1.1 1.6 2 3.3 3 4.9 1 1.6 2.1 3.3 3.1 4.9.1.5-.2 1.1-.7 1.1zm-3.5-1.5c.7 0 1.4 0 2.1.1-.4-.5-.8-1-1.1-1.6-.2.5-.4.9-.8 1.4-.1.1-.2.1-.2.1zM13.8 466.5c3.1 2.4 6.1 4.6 9.7 6.1.6.2.5 1-.1 1.2-2.5.6-4.8 1.7-7 3-.5.3-1-.5-.5-.8 1.8-1.2 3.7-2.1 5.7-2.8-1.8-.9-3.6-1.9-5.3-3.1.1.2.1.6-.2.7-.6.2-1.3.5-1.8.8v1.4c.6-.3 1.3-.7 1.9-1 .5-.3.9.5.4.8-.7.5-1.5.8-2.3 1.2v.4c.6-.1 1.1-.3 1.7-.3.6-.1.7.8.2.9-.6 0-1.3.1-1.9.3-.1 1.2-.2 2.4-.4 3.6-.2 1-1.6.9-1.6-.1 0-1.9.2-3.9.3-5.8.1-1.9.1-3.9.2-5.8 0-.7.6-1 1-.7zm2.1 3.2c-.6-.4-1.1-.8-1.7-1.2 0 .6.1 1.3.1 1.9.4-.3.9-.5 1.4-.7h.2zM-16.3 510.9c3.9.2 7.6.2 11.4-.6.6-.1 1 .5.6 1-1.7 1.9-3 4.1-4 6.5-.2.5-1.1.2-.9-.4.8-2 1.8-3.8 3-5.6-2 .4-4 .5-6.1.5.3.1.4.4.2.7-.4.5-.8 1.1-1 1.7.3.4.5.7.8 1.1.3-.6.6-1.3 1-1.9.3-.5 1-.1.8.5-.3.8-.8 1.5-1.2 2.3.1.1.1.2.2.3l1.2-1.2c.4-.4 1.1.3.6.6-.5.4-1 .8-1.4 1.3.6 1 1.2 2.1 1.8 3.2.4.9-.8 1.6-1.3.8-1.1-1.6-2-3.3-3.1-4.9-1-1.6-2.1-3.2-3.1-4.8-.3-.5 0-1.1.5-1.1zm3.5 1.4h-2.1l1.2 1.5c.2-.5.4-.9.7-1.4.1 0 .2 0 .2-.1z"/><path class="st2" d="M10.7 516.5c-.2-3.9-.4-7.6-1.6-11.3-.2-.6.5-1.1 1-.7 2.1 1.5 4.4 2.6 6.8 3.4.5.2.3 1.1-.3 1-2.1-.6-4-1.5-5.8-2.5.5 2 .8 4 1 6 .1-.3.4-.4.7-.3.6.4 1.2.7 1.8.9.3-.3.7-.6 1-.9-.7-.3-1.3-.5-2-.8-.6-.2-.2-1 .4-.8.8.3 1.6.6 2.4 1l.3-.3c-.5-.3-.9-.7-1.3-1.1-.4-.4.2-1.1.6-.7.4.5.9.9 1.4 1.3 1-.7 2-1.4 3-2 .9-.5 1.7.6.9 1.3-1.5 1.2-3.1 2.3-4.6 3.5-1.5 1.2-3 2.4-4.6 3.5-.4.3-1 0-1.1-.5zm1.2-3.7c.1.7.1 1.4.2 2.1.5-.4.9-.9 1.4-1.3-.5-.1-1-.4-1.4-.6-.2 0-.2-.1-.2-.2z"/><path class="st3" d="M-28.5 502.1c-2.8-2.6-5.6-5.1-9.1-7-.5-.3-.4-1.1.2-1.2 2.5-.4 4.9-1.2 7.2-2.3.5-.3.9.6.5.9-1.9 1-3.9 1.7-5.9 2.3 1.8 1 3.4 2.3 4.9 3.6-.1-.3-.1-.6.3-.6.6-.1 1.3-.4 1.9-.7 0-.5.1-.9.1-1.4-.7.3-1.3.5-2 .8-.6.2-.8-.6-.3-.9.8-.4 1.6-.7 2.4-.9 0-.1 0-.3.1-.4-.6.1-1.1.1-1.7.1-.6 0-.6-.9-.1-.9.6 0 1.3 0 1.9-.1.2-1.2.4-2.4.7-3.6.3-1 1.7-.8 1.6.3-.2 1.9-.6 3.8-.9 5.7-.3 1.9-.5 3.8-.8 5.7 0 .6-.6.9-1 .6zm-1.8-3.4c.5.5 1.1.9 1.6 1.4 0-.6.1-1.3.1-1.9-.4.2-.9.4-1.4.5h-.3z"/><path class="st2" d="M-20.4 468.7c-3.8.9-7.4 1.9-10.8 3.8-.5.3-1.1-.2-.9-.8 1.1-2.3 1.7-4.8 2-7.3.1-.6 1-.5 1 .1-.2 2.1-.6 4.2-1.3 6.2 1.8-.9 3.7-1.6 5.7-2.2-.3 0-.5-.3-.4-.6.2-.6.4-1.3.5-2-.4-.3-.7-.6-1.1-.9-.1.7-.3 1.4-.4 2.1-.1.6-1 .4-.9-.2.1-.9.3-1.7.5-2.5l-.3-.3c-.2.5-.5 1-.8 1.5-.3.5-1.1 0-.8-.4.4-.5.7-1.1.9-1.7-.9-.8-1.8-1.7-2.6-2.5-.7-.7.3-1.8 1.1-1.2 1.5 1.2 2.9 2.6 4.3 3.8s2.9 2.5 4.4 3.8c.6.4.4 1.2-.1 1.3zm-3.8-.4c.7-.2 1.4-.4 2-.6-.5-.4-1.1-.8-1.6-1.2 0 .5-.1 1-.3 1.5 0 .2 0 .3-.1.3z"/></g><g class="st0"><path class="st1" d="M.3 560.6c-3.9-.2-7.6-.3-11.4.4-.6.1-1-.6-.6-1 1.7-1.9 3.1-4.1 4.1-6.4.2-.5 1.1-.1.9.4-.8 2-1.9 3.8-3.1 5.5 2-.3 4-.4 6.1-.4-.3-.1-.4-.4-.2-.7.4-.5.8-1.1 1-1.7-.3-.4-.5-.8-.8-1.1-.4.6-.7 1.3-1 1.9-.3.5-1 .1-.8-.5.3-.8.8-1.5 1.3-2.3-.1-.1-.1-.2-.2-.3l-1.2 1.2c-.4.4-1.1-.3-.6-.6.5-.4 1-.8 1.4-1.3-.6-1-1.2-2.1-1.7-3.2-.4-.9.8-1.6 1.4-.8 1.1 1.6 2 3.3 3 5S0 558 1 559.6c.1.4-.2 1.1-.7 1zm-3.5-1.4c.7 0 1.4 0 2.1.1-.4-.5-.8-1-1.1-1.6-.2.5-.4.9-.8 1.3-.1.1-.2.1-.2.2zM13.8 536.5c3.1 2.3 6.1 4.6 9.7 6.1.6.2.5 1-.1 1.2-2.5.6-4.8 1.7-7 3-.5.3-1-.5-.5-.8 1.8-1.2 3.7-2.1 5.7-2.8-1.8-.8-3.6-1.9-5.3-3.1.1.2.1.6-.2.7-.6.2-1.3.5-1.8.8v1.3c.6-.3 1.3-.7 1.9-1 .5-.3.9.5.4.8-.7.5-1.5.8-2.3 1.2v.4c.6-.1 1.1-.3 1.7-.3.6-.1.7.8.2.9-.6 0-1.3.1-1.9.3-.1 1.2-.2 2.4-.4 3.6-.2 1-1.6.9-1.6-.1 0-1.9.2-3.9.3-5.8.1-1.9.1-3.9.2-5.8 0-.6.6-.9 1-.6zm2.1 3.2c-.6-.4-1.1-.8-1.7-1.2 0 .6.1 1.3.1 1.9.4-.3.9-.5 1.4-.7h.2zM-16.3 580.9c3.9.2 7.6.2 11.4-.6.6-.1 1 .5.6 1-1.7 1.9-3 4.1-4 6.5-.2.5-1.1.2-.9-.4.8-2 1.8-3.8 3-5.6-2 .4-4 .5-6.1.5.3.1.4.4.2.7-.4.5-.8 1.1-1 1.7.3.4.5.7.8 1.1.3-.6.6-1.3 1-1.9.3-.5 1-.1.8.5-.3.8-.8 1.5-1.2 2.3.1.1.1.2.2.3l1.2-1.2c.4-.4 1.1.3.6.6-.5.4-1 .8-1.4 1.3.6 1 1.2 2.1 1.8 3.2.4.9-.8 1.6-1.3.8-1.1-1.6-2-3.3-3.1-4.9-1-1.6-2.1-3.2-3.1-4.8-.3-.5 0-1.1.5-1.1zm3.5 1.4h-2.1l1.2 1.5c.2-.5.4-.9.7-1.4.1 0 .2 0 .2-.1z"/><path class="st2" d="M10.7 586.5c-.2-3.9-.4-7.6-1.6-11.3-.2-.6.5-1.1 1-.7 2.1 1.5 4.4 2.6 6.8 3.4.5.2.3 1.1-.3 1-2.1-.6-4-1.5-5.8-2.5.5 2 .8 4 1 6 .1-.3.4-.5.7-.3.6.4 1.2.7 1.8.9.3-.3.7-.6 1-.9-.7-.3-1.3-.5-2-.8-.6-.2-.2-1 .4-.8.8.3 1.6.6 2.4 1l.3-.3c-.5-.3-.9-.7-1.3-1.1-.4-.4.2-1.1.6-.7.4.5.9.9 1.4 1.3 1-.7 2-1.4 3-2 .9-.5 1.7.6.9 1.3-1.5 1.2-3.1 2.3-4.6 3.5-1.5 1.2-3 2.4-4.6 3.5-.4.3-1 0-1.1-.5zm1.2-3.7c.1.7.1 1.4.2 2.1.5-.4.9-.9 1.4-1.3-.5-.1-1-.4-1.4-.6-.2 0-.2-.1-.2-.2z"/><path class="st3" d="M-28.5 572.1c-2.8-2.6-5.6-5.1-9.1-7-.5-.3-.4-1.1.2-1.2 2.5-.3 4.9-1.2 7.2-2.3.5-.3.9.6.5.9-1.9 1-3.9 1.7-5.9 2.3 1.8 1 3.4 2.3 4.9 3.6-.1-.3-.1-.6.3-.6.6-.1 1.3-.4 1.9-.7 0-.5.1-.9.1-1.4-.7.3-1.3.5-2 .8-.6.2-.8-.6-.3-.9.8-.4 1.6-.7 2.4-.9 0-.1 0-.3.1-.4-.6.1-1.1.1-1.7.1-.6 0-.6-.9-.1-.9.6 0 1.3 0 1.9-.1.2-1.2.4-2.4.7-3.5.3-1 1.7-.8 1.6.3-.2 1.9-.6 3.8-.9 5.7-.3 1.9-.5 3.8-.8 5.7 0 .5-.6.8-1 .5zm-1.8-3.4c.5.5 1.1.9 1.6 1.4 0-.6.1-1.3.1-1.9-.4.2-.9.4-1.4.5h-.3z"/><path class="st2" d="M-20.4 538.7c-3.8.9-7.4 1.9-10.8 3.8-.5.3-1.1-.2-.9-.8 1.1-2.3 1.7-4.8 2-7.3.1-.6 1-.5 1 .1-.2 2.1-.6 4.2-1.3 6.2 1.8-.9 3.7-1.6 5.7-2.2-.3 0-.5-.3-.4-.6.2-.6.4-1.3.5-2-.4-.3-.7-.6-1.1-.9-.1.7-.3 1.4-.4 2.1-.1.6-1 .4-.9-.2.1-.9.3-1.7.5-2.5l-.3-.3c-.2.5-.5 1-.8 1.5-.3.5-1.1 0-.8-.4.4-.5.7-1.1.9-1.7-.9-.8-1.8-1.7-2.6-2.5-.7-.7.3-1.8 1.1-1.2 1.5 1.2 2.9 2.6 4.3 3.8 1.4 1.3 2.9 2.5 4.4 3.8.6.4.4 1.1-.1 1.3zm-3.8-.4c.7-.2 1.4-.4 2-.6-.5-.4-1.1-.8-1.6-1.2 0 .5-.1 1-.3 1.5 0 .2 0 .3-.1.3z"/></g><g class="st0"><path class="st1" d="M-69.7 280.6c-3.9-.2-7.6-.3-11.4.4-.6.1-1-.6-.6-1 1.7-1.9 3.1-4.1 4.1-6.4.2-.5 1.1-.1.9.4-.8 2-1.8 3.8-3.1 5.5 2-.3 4-.4 6.1-.4-.3-.1-.4-.4-.2-.7.4-.5.8-1.1 1-1.7-.3-.4-.5-.8-.8-1.1-.3.6-.7 1.3-1 1.9-.3.5-1 .1-.8-.5.3-.8.8-1.5 1.3-2.3-.1-.1-.1-.2-.2-.3l-1.2 1.2c-.4.4-1.1-.3-.6-.6.5-.4 1-.8 1.4-1.3-.6-1-1.2-2.1-1.7-3.2-.4-.9.8-1.6 1.4-.8 1.1 1.6 2 3.3 3 5 1 1.6 2.1 3.3 3.1 4.9.2.4-.2 1-.7 1zm-3.5-1.5c.7 0 1.4 0 2.1.1-.4-.5-.8-1-1.2-1.6-.2.5-.4.9-.8 1.3 0 .2-.1.2-.1.2zM-56.2 256.5c3.1 2.4 6.1 4.6 9.7 6.1.6.2.5 1-.1 1.2-2.5.6-4.8 1.7-7 3-.5.3-1-.5-.5-.8 1.8-1.2 3.7-2.1 5.7-2.8-1.8-.9-3.6-1.9-5.3-3.1.1.2.1.6-.2.7-.6.2-1.3.5-1.8.8v1.4c.6-.3 1.3-.7 1.9-1 .5-.3.9.5.4.8-.7.5-1.5.8-2.3 1.2v.4c.6-.1 1.1-.3 1.7-.3.6-.1.7.8.2.8-.6 0-1.3.2-1.9.3-.1 1.2-.2 2.4-.4 3.6-.2 1-1.6.9-1.6-.1 0-1.9.2-3.9.3-5.8.1-1.9.1-3.9.2-5.8 0-.6.6-.9 1-.6zm2.1 3.2c-.6-.4-1.1-.8-1.7-1.2 0 .6.1 1.3.1 1.9.4-.3.9-.5 1.4-.7h.2zM-86.3 300.9c3.9.2 7.6.2 11.4-.6.6-.1 1 .5.6 1-1.7 1.9-3 4.1-4 6.5-.2.5-1.1.1-.9-.4.8-2 1.8-3.8 3-5.6-2 .4-4 .5-6.1.5.3.1.4.4.2.7-.4.5-.8 1.1-1 1.7.3.4.5.7.8 1.1.3-.6.6-1.3 1-1.9.3-.5 1-.1.8.5-.3.8-.8 1.5-1.2 2.3.1.1.2.2.2.3.4-.4.8-.9 1.2-1.2.4-.4 1.1.3.6.6-.5.4-1 .8-1.4 1.3.6 1 1.2 2.1 1.8 3.2.4.9-.8 1.6-1.3.8-1.1-1.6-2-3.3-3.1-4.9-1-1.6-2.1-3.2-3.2-4.9-.3-.4.1-1 .6-1zm3.5 1.4h-2.1l1.2 1.5c.2-.5.4-.9.7-1.4.1 0 .2 0 .2-.1z"/><path class="st2" d="M-59.3 306.5c-.2-3.9-.4-7.6-1.6-11.3-.2-.6.5-1.1 1-.7 2 1.5 4.4 2.6 6.8 3.4.5.2.3 1.1-.3 1-2.1-.6-4-1.5-5.8-2.5.5 2 .8 4 1 6 .1-.3.4-.5.7-.3.6.4 1.2.7 1.8.9.3-.3.7-.6 1-.9-.7-.3-1.3-.5-2-.8-.6-.2-.2-1 .4-.8.8.3 1.6.6 2.4 1l.3-.3c-.5-.3-.9-.7-1.3-1.1-.4-.4.2-1.1.6-.7.4.5.9.9 1.4 1.3 1-.7 2-1.4 3-2 .9-.5 1.7.6.9 1.3-1.5 1.2-3.1 2.3-4.6 3.5-1.5 1.2-3 2.4-4.6 3.5-.4.3-1 0-1.1-.5zm1.2-3.7c.1.7.1 1.4.2 2.1.5-.4.9-.9 1.4-1.3-.5-.1-1-.4-1.4-.6-.2 0-.2-.1-.2-.2z"/><path class="st3" d="M-98.5 292.1c-2.8-2.6-5.6-5.1-9.1-7-.5-.3-.4-1.1.2-1.2 2.5-.4 4.9-1.2 7.2-2.3.5-.3.9.6.5.9-1.9 1-3.9 1.7-5.9 2.3 1.8 1 3.4 2.3 4.9 3.6-.1-.3-.1-.6.3-.6.7-.1 1.3-.4 1.9-.7 0-.5.1-.9.1-1.4-.7.3-1.3.6-2 .8-.6.2-.8-.6-.3-.9.8-.4 1.6-.7 2.4-.9 0-.1 0-.3.1-.4-.6.1-1.1.1-1.7.1-.6 0-.6-.9-.1-.9.6 0 1.3 0 1.9-.1.2-1.2.4-2.4.7-3.5.3-1 1.7-.8 1.6.3-.2 1.9-.6 3.8-.9 5.7-.3 1.9-.5 3.8-.8 5.7 0 .5-.6.8-1 .5zm-1.8-3.4c.5.5 1.1.9 1.6 1.4 0-.6.1-1.3.1-1.9-.4.2-.9.4-1.4.6-.1-.1-.2-.1-.3-.1z"/><path class="st2" d="M-90.4 258.7c-3.8.9-7.4 1.9-10.8 3.8-.5.3-1.2-.2-.9-.8 1.1-2.3 1.7-4.8 2-7.3.1-.6 1-.5 1 .1-.2 2.1-.6 4.2-1.3 6.2 1.8-.9 3.7-1.6 5.7-2.2-.3 0-.5-.3-.4-.6.2-.6.4-1.3.5-1.9-.3-.3-.7-.6-1.1-.9-.1.7-.3 1.4-.4 2.1-.1.6-1 .4-.9-.2.1-.9.3-1.7.5-2.5l-.3-.3c-.2.5-.5 1-.8 1.5-.3.5-1.1.1-.8-.4.4-.5.7-1.1.9-1.7-.9-.8-1.8-1.7-2.6-2.6-.7-.7.3-1.8 1.1-1.2 1.5 1.2 2.9 2.6 4.3 3.8 1.4 1.3 2.9 2.5 4.4 3.8.6.4.4 1.1-.1 1.3zm-3.8-.4c.7-.2 1.4-.4 2-.6-.5-.4-1.1-.8-1.6-1.2 0 .5-.2 1-.3 1.5 0 .2 0 .3-.1.3z"/></g><g class="st0"><path class="st1" d="M-69.7 350.6c-3.9-.2-7.6-.3-11.4.4-.6.1-1-.6-.6-1 1.7-1.9 3.1-4.1 4.1-6.4.2-.5 1.1-.1.9.4-.8 2-1.8 3.8-3.1 5.5 2-.3 4-.4 6.1-.4-.3-.1-.4-.4-.2-.7.4-.5.8-1.1 1-1.7-.3-.4-.5-.8-.8-1.1-.3.6-.7 1.3-1 1.9-.3.5-1 .1-.8-.5.3-.8.8-1.5 1.3-2.3-.1-.1-.1-.2-.2-.3l-1.2 1.2c-.4.4-1.1-.3-.6-.6.5-.4 1-.8 1.4-1.3-.6-1.1-1.2-2.1-1.7-3.2-.4-.9.8-1.6 1.4-.8 1.1 1.6 2 3.3 3 5 1 1.6 2.1 3.3 3.1 4.9.2.4-.2 1-.7 1zm-3.5-1.5c.7 0 1.4 0 2.1.1-.4-.5-.8-1-1.2-1.6-.2.5-.4.9-.8 1.3 0 .2-.1.2-.1.2zM-56.2 326.5c3.1 2.4 6.1 4.6 9.7 6.1.6.2.5 1-.1 1.2-2.5.6-4.8 1.7-7 3-.5.3-1-.5-.5-.8 1.8-1.2 3.7-2.1 5.7-2.8-1.8-.9-3.6-1.9-5.3-3.1.1.2.1.6-.2.7-.6.2-1.3.5-1.8.8v1.3c.6-.3 1.3-.7 1.9-1 .5-.3.9.5.4.8-.7.5-1.5.8-2.3 1.2v.4c.6-.1 1.1-.3 1.7-.3.6-.1.7.8.2.9-.6 0-1.3.1-1.9.3-.1 1.2-.2 2.4-.4 3.6-.2 1-1.6.9-1.6-.1 0-1.9.2-3.9.3-5.8.1-1.9.1-3.9.2-5.8 0-.6.6-.9 1-.6zm2.1 3.2c-.6-.4-1.1-.8-1.7-1.2 0 .6.1 1.3.1 1.9.4-.3.9-.5 1.4-.7h.2zM-86.3 370.9c3.9.2 7.6.2 11.4-.6.6-.1 1 .6.6 1-1.7 1.9-3 4.1-4 6.5-.2.5-1.1.1-.9-.4.8-2 1.8-3.8 3-5.6-2 .4-4 .5-6.1.5.3.1.4.4.2.7-.4.5-.8 1.1-1 1.7.3.4.5.7.8 1.1.3-.6.6-1.3 1-1.9.3-.5 1-.1.8.5-.3.8-.8 1.5-1.2 2.3.1.1.2.2.2.3.4-.4.8-.9 1.2-1.2.4-.4 1.1.3.6.6-.5.4-1 .9-1.4 1.3.6 1 1.2 2.1 1.8 3.2.4.9-.8 1.6-1.3.8-1.1-1.6-2-3.3-3.1-4.9-1-1.6-2.1-3.2-3.2-4.9-.3-.4.1-1 .6-1zm3.5 1.4h-2.1c.4.5.8 1 1.2 1.6.2-.5.4-.9.7-1.4.1-.1.2-.1.2-.2z"/><path class="st2" d="M-59.3 376.5c-.2-3.9-.4-7.6-1.6-11.3-.2-.6.5-1.1 1-.7 2 1.5 4.4 2.6 6.8 3.4.5.2.3 1.1-.3.9-2.1-.6-4-1.5-5.8-2.5.5 1.9.8 4 1 6 .1-.3.4-.4.7-.3.6.4 1.2.6 1.8.9.3-.3.7-.6 1-.9-.7-.3-1.3-.5-2-.8-.6-.2-.2-1 .4-.8.8.3 1.6.6 2.4 1l.3-.3c-.5-.3-.9-.7-1.3-1.1-.4-.4.2-1.1.6-.7.4.5.9.9 1.4 1.3 1-.7 2-1.4 3-2 .9-.5 1.7.6.9 1.3-1.5 1.2-3.1 2.3-4.6 3.5-1.5 1.2-3 2.4-4.6 3.6-.4.3-1 0-1.1-.5zm1.2-3.7c.1.7.1 1.4.2 2.1.5-.4.9-.9 1.4-1.3-.5-.1-1-.4-1.4-.6-.2 0-.2-.1-.2-.2z"/><path class="st3" d="M-98.5 362.1c-2.8-2.6-5.6-5.1-9.1-7-.5-.3-.4-1.1.2-1.2 2.5-.4 4.9-1.2 7.2-2.3.5-.3.9.6.5.9-1.9 1-3.9 1.7-5.9 2.3 1.8 1 3.4 2.3 4.9 3.6-.1-.3-.1-.6.3-.6.7-.1 1.3-.4 1.9-.7 0-.5.1-.9.1-1.4-.7.3-1.3.6-2 .8-.6.2-.8-.6-.3-.9.8-.4 1.6-.7 2.4-.9 0-.1 0-.3.1-.4-.6.1-1.1.1-1.7.1-.6 0-.6-.9-.1-.9.6 0 1.3 0 1.9-.1.2-1.2.4-2.4.7-3.5.3-1 1.7-.8 1.6.3-.2 1.9-.6 3.8-.9 5.7-.3 1.9-.5 3.8-.8 5.7 0 .5-.6.8-1 .5zm-1.8-3.4c.5.5 1.1.9 1.6 1.4 0-.6.1-1.3.1-1.9-.4.2-.9.4-1.4.6-.1-.1-.2-.1-.3-.1z"/><path class="st2" d="M-90.4 328.7c-3.8.9-7.4 1.9-10.8 3.8-.5.3-1.2-.2-.9-.8 1.1-2.3 1.7-4.8 2-7.3.1-.6 1-.5 1 .1-.2 2.1-.6 4.2-1.3 6.2 1.8-.9 3.7-1.6 5.7-2.2-.3 0-.5-.3-.4-.6.2-.6.4-1.3.5-1.9-.3-.3-.7-.6-1.1-.9-.1.7-.3 1.4-.4 2.1-.1.6-1 .4-.9-.2.1-.9.3-1.7.5-2.5l-.3-.3c-.2.5-.5 1-.8 1.5-.3.5-1.1 0-.8-.4.4-.5.7-1.1.9-1.7-.9-.8-1.8-1.7-2.6-2.5-.7-.7.3-1.8 1.1-1.2 1.5 1.2 2.9 2.6 4.3 3.8 1.4 1.3 2.9 2.5 4.4 3.8.6.3.4 1.1-.1 1.2zm-3.8-.4c.7-.2 1.4-.4 2-.6-.5-.4-1.1-.8-1.6-1.2 0 .5-.2 1-.3 1.5 0 .2 0 .3-.1.3z"/></g><g class="st0"><path class="st1" d="M-69.7 420.6c-3.9-.2-7.6-.3-11.4.4-.6.1-1-.6-.6-1 1.7-1.9 3.1-4.1 4.1-6.4.2-.5 1.1-.1.9.4-.8 2-1.8 3.8-3.1 5.5 2-.3 4-.4 6.1-.4-.3-.1-.4-.4-.2-.7.4-.5.8-1.1 1-1.7-.3-.4-.5-.8-.8-1.1-.3.6-.7 1.3-1 1.9-.3.5-1 .1-.8-.5.3-.8.8-1.5 1.3-2.3-.1-.1-.1-.2-.2-.3l-1.2 1.2c-.4.4-1.1-.3-.6-.6.5-.4 1-.8 1.4-1.3-.6-1.1-1.2-2.1-1.7-3.2-.4-.9.8-1.6 1.4-.8 1.1 1.6 2 3.3 3 4.9 1 1.6 2.1 3.3 3.1 4.9.2.5-.2 1.1-.7 1.1zm-3.5-1.5c.7 0 1.4 0 2.1.1-.4-.5-.8-1-1.2-1.6-.2.5-.4.9-.8 1.4 0 .1-.1.1-.1.1zM-56.2 396.5c3.1 2.4 6.1 4.6 9.7 6.1.6.2.5 1-.1 1.2-2.5.6-4.8 1.7-7 3-.5.3-1-.5-.5-.8 1.8-1.2 3.7-2.1 5.7-2.8-1.8-.9-3.6-1.9-5.3-3.1.1.2.1.6-.2.7-.6.2-1.3.5-1.8.8v1.4c.6-.3 1.3-.7 1.9-1 .5-.3.9.5.4.8-.7.5-1.5.8-2.3 1.2v.4c.6-.1 1.1-.3 1.7-.3.6-.1.7.8.2.9-.6 0-1.3.1-1.9.3-.1 1.2-.2 2.4-.4 3.6-.2 1-1.6.9-1.6-.1 0-1.9.2-3.9.3-5.8.1-1.9.1-3.9.2-5.8 0-.7.6-1 1-.7zm2.1 3.2c-.6-.4-1.1-.8-1.7-1.2 0 .6.1 1.3.1 1.9.4-.3.9-.5 1.4-.7h.2zM-86.3 440.9c3.9.2 7.6.2 11.4-.6.6-.1 1 .6.6 1-1.7 1.9-3 4.1-4 6.5-.2.5-1.1.1-.9-.4.8-2 1.8-3.8 3-5.6-2 .4-4 .5-6.1.5.3.1.4.4.2.7-.4.5-.8 1.1-1 1.7.3.4.5.7.8 1.1.3-.6.6-1.3 1-1.9.3-.5 1-.1.8.5-.3.8-.8 1.5-1.2 2.3.1.1.2.2.2.3.4-.4.8-.9 1.2-1.2.4-.4 1.1.3.6.6-.5.4-1 .9-1.4 1.3.6 1 1.2 2.1 1.8 3.2.4.9-.8 1.6-1.3.8-1.1-1.6-2-3.3-3.1-4.9-1-1.6-2.1-3.2-3.2-4.9-.3-.4.1-1 .6-1zm3.5 1.4h-2.1c.4.5.8 1 1.2 1.6.2-.5.4-.9.7-1.4.1-.1.2-.1.2-.2z"/><path class="st2" d="M-59.3 446.5c-.2-3.9-.4-7.6-1.6-11.3-.2-.6.5-1.1 1-.7 2 1.5 4.4 2.6 6.8 3.4.5.2.3 1.1-.3.9-2.1-.6-4-1.5-5.8-2.5.5 1.9.8 4 1 6 .1-.3.4-.4.7-.3.6.4 1.2.6 1.8.9.3-.3.7-.6 1-.9-.7-.3-1.3-.5-2-.8-.6-.2-.2-1 .4-.8.8.3 1.6.6 2.4 1l.3-.3c-.5-.3-.9-.7-1.3-1.1-.4-.4.2-1.1.6-.7.4.5.9.9 1.4 1.3 1-.7 2-1.4 3-2 .9-.5 1.7.6.9 1.3-1.5 1.2-3.1 2.3-4.6 3.5-1.5 1.2-3 2.4-4.6 3.6-.4.3-1 0-1.1-.5zm1.2-3.7c.1.7.1 1.4.2 2.1.5-.4.9-.9 1.4-1.3-.5-.1-1-.4-1.4-.6-.2 0-.2-.1-.2-.2z"/><path class="st3" d="M-98.5 432.1c-2.8-2.6-5.6-5.1-9.1-7-.5-.3-.4-1.1.2-1.2 2.5-.4 4.9-1.2 7.2-2.3.5-.3.9.6.5.9-1.9 1-3.9 1.7-5.9 2.3 1.8 1 3.4 2.3 4.9 3.6-.1-.3-.1-.6.3-.6.7-.1 1.3-.4 1.9-.7 0-.5.1-.9.1-1.4-.7.3-1.3.5-2 .8-.6.2-.8-.6-.3-.9.8-.4 1.6-.7 2.4-.9 0-.1 0-.3.1-.4-.6.1-1.1.1-1.7.1-.6 0-.6-.9-.1-.9.6 0 1.3 0 1.9-.1.2-1.2.4-2.4.7-3.6.3-1 1.7-.8 1.6.3-.2 1.9-.6 3.8-.9 5.7-.3 1.9-.5 3.8-.8 5.7 0 .6-.6.9-1 .6zm-1.8-3.4c.5.5 1.1.9 1.6 1.4 0-.6.1-1.3.1-1.9-.4.2-.9.4-1.4.6-.1-.1-.2-.1-.3-.1z"/><path class="st2" d="M-90.4 398.7c-3.8.9-7.4 1.9-10.8 3.8-.5.3-1.2-.2-.9-.8 1.1-2.3 1.7-4.8 2-7.3.1-.6 1-.5 1 .1-.2 2.1-.6 4.2-1.3 6.2 1.8-.9 3.7-1.6 5.7-2.2-.3 0-.5-.3-.4-.6.2-.6.4-1.3.5-2-.3-.3-.7-.6-1.1-.9-.1.7-.3 1.4-.4 2.1-.1.6-1 .4-.9-.2.1-.9.3-1.7.5-2.5l-.3-.3c-.2.5-.5 1-.8 1.5-.3.5-1.1 0-.8-.4.4-.5.7-1.1.9-1.7-.9-.8-1.8-1.7-2.6-2.5-.7-.7.3-1.8 1.1-1.2 1.5 1.2 2.9 2.6 4.3 3.8s2.9 2.5 4.4 3.8c.6.4.4 1.2-.1 1.3zm-3.8-.4c.7-.2 1.4-.4 2-.6-.5-.4-1.1-.8-1.6-1.2 0 .5-.2 1-.3 1.5 0 .2 0 .3-.1.3z"/></g><g class="st0"><path class="st1" d="M-69.7 490.6c-3.9-.2-7.6-.3-11.4.4-.6.1-1-.6-.6-1 1.7-1.9 3.1-4.1 4.1-6.4.2-.5 1.1-.1.9.4-.8 2-1.8 3.8-3.1 5.5 2-.3 4-.4 6.1-.4-.3-.1-.4-.4-.2-.7.4-.5.8-1.1 1-1.7-.3-.4-.5-.8-.8-1.1-.3.6-.7 1.3-1 1.9-.3.5-1 .1-.8-.5.3-.8.8-1.5 1.3-2.3-.1-.1-.1-.2-.2-.3l-1.2 1.2c-.4.4-1.1-.3-.6-.6.5-.4 1-.8 1.4-1.3-.6-1.1-1.2-2.1-1.7-3.2-.4-.9.8-1.6 1.4-.8 1.1 1.6 2 3.3 3 4.9 1 1.6 2.1 3.3 3.1 4.9.2.5-.2 1.1-.7 1.1zm-3.5-1.5c.7 0 1.4 0 2.1.1-.4-.5-.8-1-1.2-1.6-.2.5-.4.9-.8 1.4 0 .1-.1.1-.1.1zM-56.2 466.5c3.1 2.4 6.1 4.6 9.7 6.1.6.2.5 1-.1 1.2-2.5.6-4.8 1.7-7 3-.5.3-1-.5-.5-.8 1.8-1.2 3.7-2.1 5.7-2.8-1.8-.9-3.6-1.9-5.3-3.1.1.2.1.6-.2.7-.6.2-1.3.5-1.8.8v1.4c.6-.3 1.3-.7 1.9-1 .5-.3.9.5.4.8-.7.5-1.5.8-2.3 1.2v.4c.6-.1 1.1-.3 1.7-.3.6-.1.7.8.2.9-.6 0-1.3.1-1.9.3-.1 1.2-.2 2.4-.4 3.6-.2 1-1.6.9-1.6-.1 0-1.9.2-3.9.3-5.8.1-1.9.1-3.9.2-5.8 0-.7.6-1 1-.7zm2.1 3.2c-.6-.4-1.1-.8-1.7-1.2 0 .6.1 1.3.1 1.9.4-.3.9-.5 1.4-.7h.2zM-86.3 510.9c3.9.2 7.6.2 11.4-.6.6-.1 1 .5.6 1-1.7 1.9-3 4.1-4 6.5-.2.5-1.1.2-.9-.4.8-2 1.8-3.8 3-5.6-2 .4-4 .5-6.1.5.3.1.4.4.2.7-.4.5-.8 1.1-1 1.7.3.4.5.7.8 1.1.3-.6.6-1.3 1-1.9.3-.5 1-.1.8.5-.3.8-.8 1.5-1.2 2.3.1.1.2.2.2.3l1.2-1.2c.4-.4 1.1.3.6.6-.5.4-1 .8-1.4 1.3.6 1 1.2 2.1 1.8 3.2.4.9-.8 1.6-1.3.8-1.1-1.6-2-3.3-3.1-4.9-1-1.6-2.1-3.2-3.2-4.8-.3-.5.1-1.1.6-1.1zm3.5 1.4h-2.1l1.2 1.5c.2-.5.4-.9.7-1.4.1 0 .2 0 .2-.1z"/><path class="st2" d="M-59.3 516.5c-.2-3.9-.4-7.6-1.6-11.3-.2-.6.5-1.1 1-.7 2 1.5 4.4 2.6 6.8 3.4.5.2.3 1.1-.3 1-2.1-.6-4-1.5-5.8-2.5.5 2 .8 4 1 6 .1-.3.4-.4.7-.3.6.4 1.2.7 1.8.9.3-.3.7-.6 1-.9-.7-.3-1.3-.5-2-.8-.6-.2-.2-1 .4-.8.8.3 1.6.6 2.4 1l.3-.3c-.5-.3-.9-.7-1.3-1.1-.4-.4.2-1.1.6-.7.4.5.9.9 1.4 1.3 1-.7 2-1.4 3-2 .9-.5 1.7.6.9 1.3-1.5 1.2-3.1 2.3-4.6 3.5-1.5 1.2-3 2.4-4.6 3.5-.4.3-1 0-1.1-.5zm1.2-3.7c.1.7.1 1.4.2 2.1.5-.4.9-.9 1.4-1.3-.5-.1-1-.4-1.4-.6-.2 0-.2-.1-.2-.2z"/><path class="st3" d="M-98.5 502.1c-2.8-2.6-5.6-5.1-9.1-7-.5-.3-.4-1.1.2-1.2 2.5-.4 4.9-1.2 7.2-2.3.5-.3.9.6.5.9-1.9 1-3.9 1.7-5.9 2.3 1.8 1 3.4 2.3 4.9 3.6-.1-.3-.1-.6.3-.6.7-.1 1.3-.4 1.9-.7 0-.5.1-.9.1-1.4-.7.3-1.3.5-2 .8-.6.2-.8-.6-.3-.9.8-.4 1.6-.7 2.4-.9 0-.1 0-.3.1-.4-.6.1-1.1.1-1.7.1-.6 0-.6-.9-.1-.9.6 0 1.3 0 1.9-.1.2-1.2.4-2.4.7-3.6.3-1 1.7-.8 1.6.3-.2 1.9-.6 3.8-.9 5.7-.3 1.9-.5 3.8-.8 5.7 0 .6-.6.9-1 .6zm-1.8-3.4c.5.5 1.1.9 1.6 1.4 0-.6.1-1.3.1-1.9-.4.2-.9.4-1.4.5h-.3z"/><path class="st2" d="M-90.4 468.7c-3.8.9-7.4 1.9-10.8 3.8-.5.3-1.2-.2-.9-.8 1.1-2.3 1.7-4.8 2-7.3.1-.6 1-.5 1 .1-.2 2.1-.6 4.2-1.3 6.2 1.8-.9 3.7-1.6 5.7-2.2-.3 0-.5-.3-.4-.6.2-.6.4-1.3.5-2-.3-.3-.7-.6-1.1-.9-.1.7-.3 1.4-.4 2.1-.1.6-1 .4-.9-.2.1-.9.3-1.7.5-2.5l-.3-.3c-.2.5-.5 1-.8 1.5-.3.5-1.1 0-.8-.4.4-.5.7-1.1.9-1.7-.9-.8-1.8-1.7-2.6-2.5-.7-.7.3-1.8 1.1-1.2 1.5 1.2 2.9 2.6 4.3 3.8s2.9 2.5 4.4 3.8c.6.4.4 1.2-.1 1.3zm-3.8-.4c.7-.2 1.4-.4 2-.6-.5-.4-1.1-.8-1.6-1.2 0 .5-.2 1-.3 1.5 0 .2 0 .3-.1.3z"/></g><g class="st0"><path class="st1" d="M-69.7 560.6c-3.9-.2-7.6-.3-11.4.4-.6.1-1-.6-.6-1 1.7-1.9 3.1-4.1 4.1-6.4.2-.5 1.1-.1.9.4-.8 2-1.8 3.8-3.1 5.5 2-.3 4-.4 6.1-.4-.3-.1-.4-.4-.2-.7.4-.5.8-1.1 1-1.7-.3-.4-.5-.8-.8-1.1-.3.6-.7 1.3-1 1.9-.3.5-1 .1-.8-.5.3-.8.8-1.5 1.3-2.3-.1-.1-.1-.2-.2-.3l-1.2 1.2c-.4.4-1.1-.3-.6-.6.5-.4 1-.8 1.4-1.3-.6-1-1.2-2.1-1.7-3.2-.4-.9.8-1.6 1.4-.8 1.1 1.6 2 3.3 3 5s2.1 3.3 3.1 4.9c.2.4-.2 1.1-.7 1zm-3.5-1.4c.7 0 1.4 0 2.1.1-.4-.5-.8-1-1.2-1.6-.2.5-.4.9-.8 1.3 0 .1-.1.1-.1.2zM-56.2 536.5c3.1 2.3 6.1 4.6 9.7 6.1.6.2.5 1-.1 1.2-2.5.6-4.8 1.7-7 3-.5.3-1-.5-.5-.8 1.8-1.2 3.7-2.1 5.7-2.8-1.8-.8-3.6-1.9-5.3-3.1.1.2.1.6-.2.7-.6.2-1.3.5-1.8.8v1.3c.6-.3 1.3-.7 1.9-1 .5-.3.9.5.4.8-.7.5-1.5.8-2.3 1.2v.4c.6-.1 1.1-.3 1.7-.3.6-.1.7.8.2.9-.6 0-1.3.1-1.9.3-.1 1.2-.2 2.4-.4 3.6-.2 1-1.6.9-1.6-.1 0-1.9.2-3.9.3-5.8.1-1.9.1-3.9.2-5.8 0-.6.6-.9 1-.6zm2.1 3.2c-.6-.4-1.1-.8-1.7-1.2 0 .6.1 1.3.1 1.9.4-.3.9-.5 1.4-.7h.2zM-86.3 580.9c3.9.2 7.6.2 11.4-.6.6-.1 1 .5.6 1-1.7 1.9-3 4.1-4 6.5-.2.5-1.1.2-.9-.4.8-2 1.8-3.8 3-5.6-2 .4-4 .5-6.1.5.3.1.4.4.2.7-.4.5-.8 1.1-1 1.7.3.4.5.7.8 1.1.3-.6.6-1.3 1-1.9.3-.5 1-.1.8.5-.3.8-.8 1.5-1.2 2.3.1.1.2.2.2.3l1.2-1.2c.4-.4 1.1.3.6.6-.5.4-1 .8-1.4 1.3.6 1 1.2 2.1 1.8 3.2.4.9-.8 1.6-1.3.8-1.1-1.6-2-3.3-3.1-4.9-1-1.6-2.1-3.2-3.2-4.8-.3-.5.1-1.1.6-1.1zm3.5 1.4h-2.1l1.2 1.5c.2-.5.4-.9.7-1.4.1 0 .2 0 .2-.1z"/><path class="st2" d="M-59.3 586.5c-.2-3.9-.4-7.6-1.6-11.3-.2-.6.5-1.1 1-.7 2 1.5 4.4 2.6 6.8 3.4.5.2.3 1.1-.3 1-2.1-.6-4-1.5-5.8-2.5.5 2 .8 4 1 6 .1-.3.4-.5.7-.3.6.4 1.2.7 1.8.9.3-.3.7-.6 1-.9-.7-.3-1.3-.5-2-.8-.6-.2-.2-1 .4-.8.8.3 1.6.6 2.4 1l.3-.3c-.5-.3-.9-.7-1.3-1.1-.4-.4.2-1.1.6-.7.4.5.9.9 1.4 1.3 1-.7 2-1.4 3-2 .9-.5 1.7.6.9 1.3-1.5 1.2-3.1 2.3-4.6 3.5-1.5 1.2-3 2.4-4.6 3.5-.4.3-1 0-1.1-.5zm1.2-3.7c.1.7.1 1.4.2 2.1.5-.4.9-.9 1.4-1.3-.5-.1-1-.4-1.4-.6-.2 0-.2-.1-.2-.2z"/><path class="st3" d="M-98.5 572.1c-2.8-2.6-5.6-5.1-9.1-7-.5-.3-.4-1.1.2-1.2 2.5-.3 4.9-1.2 7.2-2.3.5-.3.9.6.5.9-1.9 1-3.9 1.7-5.9 2.3 1.8 1 3.4 2.3 4.9 3.6-.1-.3-.1-.6.3-.6.7-.1 1.3-.4 1.9-.7 0-.5.1-.9.1-1.4-.7.3-1.3.5-2 .8-.6.2-.8-.6-.3-.9.8-.4 1.6-.7 2.4-.9 0-.1 0-.3.1-.4-.6.1-1.1.1-1.7.1-.6 0-.6-.9-.1-.9.6 0 1.3 0 1.9-.1.2-1.2.4-2.4.7-3.5.3-1 1.7-.8 1.6.3-.2 1.9-.6 3.8-.9 5.7-.3 1.9-.5 3.8-.8 5.7 0 .5-.6.8-1 .5zm-1.8-3.4c.5.5 1.1.9 1.6 1.4 0-.6.1-1.3.1-1.9-.4.2-.9.4-1.4.5h-.3z"/><path class="st2" d="M-90.4 538.7c-3.8.9-7.4 1.9-10.8 3.8-.5.3-1.2-.2-.9-.8 1.1-2.3 1.7-4.8 2-7.3.1-.6 1-.5 1 .1-.2 2.1-.6 4.2-1.3 6.2 1.8-.9 3.7-1.6 5.7-2.2-.3 0-.5-.3-.4-.6.2-.6.4-1.3.5-2-.3-.3-.7-.6-1.1-.9-.1.7-.3 1.4-.4 2.1-.1.6-1 .4-.9-.2.1-.9.3-1.7.5-2.5l-.3-.3c-.2.5-.5 1-.8 1.5-.3.5-1.1 0-.8-.4.4-.5.7-1.1.9-1.7-.9-.8-1.8-1.7-2.6-2.5-.7-.7.3-1.8 1.1-1.2 1.5 1.2 2.9 2.6 4.3 3.8 1.4 1.3 2.9 2.5 4.4 3.8.6.4.4 1.1-.1 1.3zm-3.8-.4c.7-.2 1.4-.4 2-.6-.5-.4-1.1-.8-1.6-1.2 0 .5-.2 1-.3 1.5 0 .2 0 .3-.1.3z"/></g><g class="st0"><path class="st1" d="M-139.7 280.6c-3.9-.2-7.6-.3-11.4.4-.6.1-1-.6-.6-1 1.7-1.9 3-4.1 4.1-6.4.2-.5 1.1-.1.9.4-.8 2-1.9 3.8-3.1 5.5 2-.3 4-.4 6.1-.4-.3-.1-.4-.4-.2-.7.4-.5.8-1.1 1-1.7-.3-.4-.5-.8-.8-1.1-.4.6-.7 1.3-1 1.9-.3.5-1 .1-.8-.5.3-.8.8-1.5 1.3-2.3-.1-.1-.1-.2-.2-.3l-1.2 1.2c-.4.4-1.1-.3-.6-.6.5-.4 1-.8 1.4-1.3-.6-1-1.2-2.1-1.7-3.2-.4-.9.8-1.6 1.4-.8 1.1 1.6 2 3.3 3 5 1 1.6 2.1 3.3 3.1 4.9.1.4-.2 1-.7 1zm-3.5-1.5c.7 0 1.4 0 2.1.1-.4-.5-.8-1-1.1-1.6-.2.5-.4.9-.8 1.3-.1.2-.2.2-.2.2zM-126.2 256.5c3.1 2.4 6.1 4.6 9.7 6.1.6.2.5 1-.1 1.2-2.5.6-4.8 1.7-7 3-.5.3-1-.5-.5-.8 1.8-1.2 3.7-2.1 5.7-2.8-1.8-.9-3.6-1.9-5.3-3.1.1.2.1.6-.2.7-.6.2-1.3.5-1.8.8v1.4c.6-.3 1.3-.7 1.9-1 .5-.3.9.5.4.8-.7.5-1.5.8-2.3 1.2v.4c.5-.1 1.1-.3 1.7-.3.6-.1.7.8.2.8-.6 0-1.3.2-1.9.3-.1 1.2-.2 2.4-.4 3.6-.2 1-1.6.9-1.6-.1 0-1.9.2-3.9.3-5.8.1-1.9.1-3.9.2-5.8 0-.6.6-.9 1-.6zm2.1 3.2c-.6-.4-1.2-.8-1.7-1.2 0 .6.1 1.3.1 1.9.4-.3.9-.5 1.4-.7h.2zM-156.3 300.9c3.9.2 7.6.2 11.4-.6.6-.1 1 .5.6 1-1.7 1.9-3 4.1-4 6.5-.2.5-1.1.1-.9-.4.8-2 1.8-3.8 3-5.6-2 .4-4 .5-6.1.5.3.1.4.4.2.7-.4.5-.8 1.1-1 1.7.3.4.5.7.8 1.1.3-.6.6-1.3 1-1.9.3-.5 1-.1.8.5-.3.8-.8 1.5-1.2 2.3.1.1.1.2.2.3.4-.4.8-.9 1.2-1.2.4-.4 1.1.3.6.6-.5.4-1 .8-1.4 1.3.6 1 1.2 2.1 1.8 3.2.4.9-.8 1.6-1.3.8-1.1-1.6-2-3.3-3.1-4.9-1-1.6-2.1-3.2-3.1-4.9-.3-.4 0-1 .5-1zm3.5 1.4h-2.1l1.2 1.5c.2-.5.4-.9.7-1.4.1 0 .2 0 .2-.1z"/><path class="st2" d="M-129.3 306.5c-.2-3.9-.4-7.6-1.6-11.3-.2-.6.5-1.1 1-.7 2 1.5 4.4 2.6 6.8 3.4.5.2.3 1.1-.3 1-2.1-.6-4-1.5-5.8-2.5.5 2 .8 4 1 6 .1-.3.3-.5.7-.3.6.4 1.2.7 1.8.9.3-.3.7-.6 1-.9-.7-.3-1.3-.5-2-.8-.6-.2-.2-1 .4-.8.8.3 1.6.6 2.4 1l.3-.3c-.5-.3-.9-.7-1.3-1.1-.4-.4.2-1.1.6-.7.4.5.9.9 1.4 1.3 1-.7 2-1.4 3-2 .9-.5 1.7.6.9 1.3-1.5 1.2-3.1 2.3-4.6 3.5-1.5 1.2-3 2.4-4.6 3.5-.4.3-1 0-1.1-.5zm1.2-3.7c.1.7.1 1.4.2 2.1.5-.4 1-.9 1.4-1.3-.5-.1-1-.4-1.4-.6-.2 0-.2-.1-.2-.2z"/><path class="st3" d="M-168.5 292.1c-2.8-2.6-5.6-5.1-9.1-7-.5-.3-.4-1.1.2-1.2 2.5-.4 4.9-1.2 7.2-2.3.5-.3 1 .6.5.9-1.9 1-3.9 1.7-5.9 2.3 1.8 1 3.4 2.3 4.9 3.6-.1-.3-.1-.6.3-.6.7-.1 1.3-.4 1.9-.7 0-.5.1-.9.1-1.4-.7.3-1.3.6-2 .8-.6.2-.8-.6-.3-.9.8-.4 1.6-.7 2.4-.9 0-.1 0-.3.1-.4-.6.1-1.1.1-1.7.1-.6 0-.6-.9-.1-.9.6 0 1.3 0 1.9-.1.2-1.2.4-2.4.7-3.5.3-1 1.7-.8 1.6.3-.2 1.9-.6 3.8-.9 5.7s-.5 3.8-.8 5.7c0 .5-.6.8-1 .5zm-1.8-3.4c.5.5 1.1.9 1.6 1.4 0-.6.1-1.3.1-1.9-.4.2-.9.4-1.4.6-.1-.1-.2-.1-.3-.1z"/><path class="st2" d="M-160.4 258.7c-3.8.9-7.4 1.9-10.8 3.8-.5.3-1.1-.2-.9-.8 1.1-2.3 1.7-4.8 2-7.3.1-.6 1-.5 1 .1-.2 2.1-.6 4.2-1.3 6.2 1.8-.9 3.7-1.6 5.7-2.2-.3 0-.5-.3-.4-.6.2-.6.4-1.3.5-1.9-.3-.3-.7-.6-1.1-.9-.1.7-.3 1.4-.4 2.1-.1.6-1 .4-.9-.2.1-.9.3-1.7.5-2.5l-.3-.3c-.2.5-.5 1-.8 1.5-.3.5-1.1.1-.8-.4.4-.5.7-1.1.9-1.7-.9-.8-1.8-1.7-2.6-2.6-.7-.7.3-1.8 1.1-1.2 1.5 1.2 2.9 2.6 4.3 3.8 1.5 1.3 2.9 2.5 4.4 3.8.6.4.4 1.1-.1 1.3zm-3.8-.4c.7-.2 1.4-.4 2-.6-.5-.4-1.1-.8-1.6-1.2 0 .5-.2 1-.3 1.5 0 .2 0 .3-.1.3z"/></g><g class="st0"><path class="st1" d="M-139.7 350.6c-3.9-.2-7.6-.3-11.4.4-.6.1-1-.6-.6-1 1.7-1.9 3-4.1 4.1-6.4.2-.5 1.1-.1.9.4-.8 2-1.9 3.8-3.1 5.5 2-.3 4-.4 6.1-.4-.3-.1-.4-.4-.2-.7.4-.5.8-1.1 1-1.7-.3-.4-.5-.8-.8-1.1-.4.6-.7 1.3-1 1.9-.3.5-1 .1-.8-.5.3-.8.8-1.5 1.3-2.3-.1-.1-.1-.2-.2-.3l-1.2 1.2c-.4.4-1.1-.3-.6-.6.5-.4 1-.8 1.4-1.3-.6-1.1-1.2-2.1-1.7-3.2-.4-.9.8-1.6 1.4-.8 1.1 1.6 2 3.3 3 5 1 1.6 2.1 3.3 3.1 4.9.1.4-.2 1-.7 1zm-3.5-1.5c.7 0 1.4 0 2.1.1-.4-.5-.8-1-1.1-1.6-.2.5-.4.9-.8 1.3-.1.2-.2.2-.2.2zM-126.2 326.5c3.1 2.4 6.1 4.6 9.7 6.1.6.2.5 1-.1 1.2-2.5.6-4.8 1.7-7 3-.5.3-1-.5-.5-.8 1.8-1.2 3.7-2.1 5.7-2.8-1.8-.9-3.6-1.9-5.3-3.1.1.2.1.6-.2.7-.6.2-1.3.5-1.8.8v1.3c.6-.3 1.3-.7 1.9-1 .5-.3.9.5.4.8-.7.5-1.5.8-2.3 1.2v.4c.5-.1 1.1-.3 1.7-.3.6-.1.7.8.2.9-.6 0-1.3.1-1.9.3-.1 1.2-.2 2.4-.4 3.6-.2 1-1.6.9-1.6-.1 0-1.9.2-3.9.3-5.8.1-1.9.1-3.9.2-5.8 0-.6.6-.9 1-.6zm2.1 3.2c-.6-.4-1.2-.8-1.7-1.2 0 .6.1 1.3.1 1.9.4-.3.9-.5 1.4-.7h.2zM-156.3 370.9c3.9.2 7.6.2 11.4-.6.6-.1 1 .6.6 1-1.7 1.9-3 4.1-4 6.5-.2.5-1.1.1-.9-.4.8-2 1.8-3.8 3-5.6-2 .4-4 .5-6.1.5.3.1.4.4.2.7-.4.5-.8 1.1-1 1.7.3.4.5.7.8 1.1.3-.6.6-1.3 1-1.9.3-.5 1-.1.8.5-.3.8-.8 1.5-1.2 2.3.1.1.1.2.2.3.4-.4.8-.9 1.2-1.2.4-.4 1.1.3.6.6-.5.4-1 .9-1.4 1.3.6 1 1.2 2.1 1.8 3.2.4.9-.8 1.6-1.3.8-1.1-1.6-2-3.3-3.1-4.9-1-1.6-2.1-3.2-3.1-4.9-.3-.4 0-1 .5-1zm3.5 1.4h-2.1c.4.5.8 1 1.2 1.6.2-.5.4-.9.7-1.4.1-.1.2-.1.2-.2z"/><path class="st2" d="M-129.3 376.5c-.2-3.9-.4-7.6-1.6-11.3-.2-.6.5-1.1 1-.7 2 1.5 4.4 2.6 6.8 3.4.5.2.3 1.1-.3.9-2.1-.6-4-1.5-5.8-2.5.5 1.9.8 4 1 6 .1-.3.3-.4.7-.3.6.4 1.2.6 1.8.9.3-.3.7-.6 1-.9-.7-.3-1.3-.5-2-.8-.6-.2-.2-1 .4-.8.8.3 1.6.6 2.4 1l.3-.3c-.5-.3-.9-.7-1.3-1.1-.4-.4.2-1.1.6-.7.4.5.9.9 1.4 1.3 1-.7 2-1.4 3-2 .9-.5 1.7.6.9 1.3-1.5 1.2-3.1 2.3-4.6 3.5-1.5 1.2-3 2.4-4.6 3.6-.4.3-1 0-1.1-.5zm1.2-3.7c.1.7.1 1.4.2 2.1.5-.4 1-.9 1.4-1.3-.5-.1-1-.4-1.4-.6-.2 0-.2-.1-.2-.2z"/><path class="st3" d="M-168.5 362.1c-2.8-2.6-5.6-5.1-9.1-7-.5-.3-.4-1.1.2-1.2 2.5-.4 4.9-1.2 7.2-2.3.5-.3 1 .6.5.9-1.9 1-3.9 1.7-5.9 2.3 1.8 1 3.4 2.3 4.9 3.6-.1-.3-.1-.6.3-.6.7-.1 1.3-.4 1.9-.7 0-.5.1-.9.1-1.4-.7.3-1.3.6-2 .8-.6.2-.8-.6-.3-.9.8-.4 1.6-.7 2.4-.9 0-.1 0-.3.1-.4-.6.1-1.1.1-1.7.1-.6 0-.6-.9-.1-.9.6 0 1.3 0 1.9-.1.2-1.2.4-2.4.7-3.5.3-1 1.7-.8 1.6.3-.2 1.9-.6 3.8-.9 5.7s-.5 3.8-.8 5.7c0 .5-.6.8-1 .5zm-1.8-3.4c.5.5 1.1.9 1.6 1.4 0-.6.1-1.3.1-1.9-.4.2-.9.4-1.4.6-.1-.1-.2-.1-.3-.1z"/><path class="st2" d="M-160.4 328.7c-3.8.9-7.4 1.9-10.8 3.8-.5.3-1.1-.2-.9-.8 1.1-2.3 1.7-4.8 2-7.3.1-.6 1-.5 1 .1-.2 2.1-.6 4.2-1.3 6.2 1.8-.9 3.7-1.6 5.7-2.2-.3 0-.5-.3-.4-.6.2-.6.4-1.3.5-1.9-.3-.3-.7-.6-1.1-.9-.1.7-.3 1.4-.4 2.1-.1.6-1 .4-.9-.2.1-.9.3-1.7.5-2.5l-.3-.3c-.2.5-.5 1-.8 1.5-.3.5-1.1 0-.8-.4.4-.5.7-1.1.9-1.7-.9-.8-1.8-1.7-2.6-2.5-.7-.7.3-1.8 1.1-1.2 1.5 1.2 2.9 2.6 4.3 3.8 1.5 1.3 2.9 2.5 4.4 3.8.6.3.4 1.1-.1 1.2zm-3.8-.4c.7-.2 1.4-.4 2-.6-.5-.4-1.1-.8-1.6-1.2 0 .5-.2 1-.3 1.5 0 .2 0 .3-.1.3z"/></g><g class="st0"><path class="st1" d="M-139.7 420.6c-3.9-.2-7.6-.3-11.4.4-.6.1-1-.6-.6-1 1.7-1.9 3-4.1 4.1-6.4.2-.5 1.1-.1.9.4-.8 2-1.9 3.8-3.1 5.5 2-.3 4-.4 6.1-.4-.3-.1-.4-.4-.2-.7.4-.5.8-1.1 1-1.7-.3-.4-.5-.8-.8-1.1-.4.6-.7 1.3-1 1.9-.3.5-1 .1-.8-.5.3-.8.8-1.5 1.3-2.3-.1-.1-.1-.2-.2-.3l-1.2 1.2c-.4.4-1.1-.3-.6-.6.5-.4 1-.8 1.4-1.3-.6-1.1-1.2-2.1-1.7-3.2-.4-.9.8-1.6 1.4-.8 1.1 1.6 2 3.3 3 4.9 1 1.6 2.1 3.3 3.1 4.9.1.5-.2 1.1-.7 1.1zm-3.5-1.5c.7 0 1.4 0 2.1.1-.4-.5-.8-1-1.1-1.6-.2.5-.4.9-.8 1.4-.1.1-.2.1-.2.1zM-126.2 396.5c3.1 2.4 6.1 4.6 9.7 6.1.6.2.5 1-.1 1.2-2.5.6-4.8 1.7-7 3-.5.3-1-.5-.5-.8 1.8-1.2 3.7-2.1 5.7-2.8-1.8-.9-3.6-1.9-5.3-3.1.1.2.1.6-.2.7-.6.2-1.3.5-1.8.8v1.4c.6-.3 1.3-.7 1.9-1 .5-.3.9.5.4.8-.7.5-1.5.8-2.3 1.2v.4c.5-.1 1.1-.3 1.7-.3.6-.1.7.8.2.9-.6 0-1.3.1-1.9.3-.1 1.2-.2 2.4-.4 3.6-.2 1-1.6.9-1.6-.1 0-1.9.2-3.9.3-5.8.1-1.9.1-3.9.2-5.8 0-.7.6-1 1-.7zm2.1 3.2c-.6-.4-1.2-.8-1.7-1.2 0 .6.1 1.3.1 1.9.4-.3.9-.5 1.4-.7h.2zM-156.3 440.9c3.9.2 7.6.2 11.4-.6.6-.1 1 .6.6 1-1.7 1.9-3 4.1-4 6.5-.2.5-1.1.1-.9-.4.8-2 1.8-3.8 3-5.6-2 .4-4 .5-6.1.5.3.1.4.4.2.7-.4.5-.8 1.1-1 1.7.3.4.5.7.8 1.1.3-.6.6-1.3 1-1.9.3-.5 1-.1.8.5-.3.8-.8 1.5-1.2 2.3.1.1.1.2.2.3.4-.4.8-.9 1.2-1.2.4-.4 1.1.3.6.6-.5.4-1 .9-1.4 1.3.6 1 1.2 2.1 1.8 3.2.4.9-.8 1.6-1.3.8-1.1-1.6-2-3.3-3.1-4.9-1-1.6-2.1-3.2-3.1-4.9-.3-.4 0-1 .5-1zm3.5 1.4h-2.1c.4.5.8 1 1.2 1.6.2-.5.4-.9.7-1.4.1-.1.2-.1.2-.2z"/><path class="st2" d="M-129.3 446.5c-.2-3.9-.4-7.6-1.6-11.3-.2-.6.5-1.1 1-.7 2 1.5 4.4 2.6 6.8 3.4.5.2.3 1.1-.3.9-2.1-.6-4-1.5-5.8-2.5.5 1.9.8 4 1 6 .1-.3.3-.4.7-.3.6.4 1.2.6 1.8.9.3-.3.7-.6 1-.9-.7-.3-1.3-.5-2-.8-.6-.2-.2-1 .4-.8.8.3 1.6.6 2.4 1l.3-.3c-.5-.3-.9-.7-1.3-1.1-.4-.4.2-1.1.6-.7.4.5.9.9 1.4 1.3 1-.7 2-1.4 3-2 .9-.5 1.7.6.9 1.3-1.5 1.2-3.1 2.3-4.6 3.5-1.5 1.2-3 2.4-4.6 3.6-.4.3-1 0-1.1-.5zm1.2-3.7c.1.7.1 1.4.2 2.1.5-.4 1-.9 1.4-1.3-.5-.1-1-.4-1.4-.6-.2 0-.2-.1-.2-.2z"/><path class="st3" d="M-168.5 432.1c-2.8-2.6-5.6-5.1-9.1-7-.5-.3-.4-1.1.2-1.2 2.5-.4 4.9-1.2 7.2-2.3.5-.3 1 .6.5.9-1.9 1-3.9 1.7-5.9 2.3 1.8 1 3.4 2.3 4.9 3.6-.1-.3-.1-.6.3-.6.7-.1 1.3-.4 1.9-.7 0-.5.1-.9.1-1.4-.7.3-1.3.5-2 .8-.6.2-.8-.6-.3-.9.8-.4 1.6-.7 2.4-.9 0-.1 0-.3.1-.4-.6.1-1.1.1-1.7.1-.6 0-.6-.9-.1-.9.6 0 1.3 0 1.9-.1.2-1.2.4-2.4.7-3.6.3-1 1.7-.8 1.6.3-.2 1.9-.6 3.8-.9 5.7-.3 1.9-.5 3.8-.8 5.7 0 .6-.6.9-1 .6zm-1.8-3.4c.5.5 1.1.9 1.6 1.4 0-.6.1-1.3.1-1.9-.4.2-.9.4-1.4.6-.1-.1-.2-.1-.3-.1z"/><path class="st2" d="M-160.4 398.7c-3.8.9-7.4 1.9-10.8 3.8-.5.3-1.1-.2-.9-.8 1.1-2.3 1.7-4.8 2-7.3.1-.6 1-.5 1 .1-.2 2.1-.6 4.2-1.3 6.2 1.8-.9 3.7-1.6 5.7-2.2-.3 0-.5-.3-.4-.6.2-.6.4-1.3.5-2-.3-.3-.7-.6-1.1-.9-.1.7-.3 1.4-.4 2.1-.1.6-1 .4-.9-.2.1-.9.3-1.7.5-2.5l-.3-.3c-.2.5-.5 1-.8 1.5-.3.5-1.1 0-.8-.4.4-.5.7-1.1.9-1.7-.9-.8-1.8-1.7-2.6-2.5-.7-.7.3-1.8 1.1-1.2 1.5 1.2 2.9 2.6 4.3 3.8 1.5 1.3 2.9 2.5 4.4 3.8.6.4.4 1.2-.1 1.3zm-3.8-.4c.7-.2 1.4-.4 2-.6-.5-.4-1.1-.8-1.6-1.2 0 .5-.2 1-.3 1.5 0 .2 0 .3-.1.3z"/></g><g class="st0"><path class="st1" d="M-139.7 490.6c-3.9-.2-7.6-.3-11.4.4-.6.1-1-.6-.6-1 1.7-1.9 3-4.1 4.1-6.4.2-.5 1.1-.1.9.4-.8 2-1.9 3.8-3.1 5.5 2-.3 4-.4 6.1-.4-.3-.1-.4-.4-.2-.7.4-.5.8-1.1 1-1.7-.3-.4-.5-.8-.8-1.1-.4.6-.7 1.3-1 1.9-.3.5-1 .1-.8-.5.3-.8.8-1.5 1.3-2.3-.1-.1-.1-.2-.2-.3l-1.2 1.2c-.4.4-1.1-.3-.6-.6.5-.4 1-.8 1.4-1.3-.6-1.1-1.2-2.1-1.7-3.2-.4-.9.8-1.6 1.4-.8 1.1 1.6 2 3.3 3 4.9 1 1.6 2.1 3.3 3.1 4.9.1.5-.2 1.1-.7 1.1zm-3.5-1.5c.7 0 1.4 0 2.1.1-.4-.5-.8-1-1.1-1.6-.2.5-.4.9-.8 1.4-.1.1-.2.1-.2.1zM-126.2 466.5c3.1 2.4 6.1 4.6 9.7 6.1.6.2.5 1-.1 1.2-2.5.6-4.8 1.7-7 3-.5.3-1-.5-.5-.8 1.8-1.2 3.7-2.1 5.7-2.8-1.8-.9-3.6-1.9-5.3-3.1.1.2.1.6-.2.7-.6.2-1.3.5-1.8.8v1.4c.6-.3 1.3-.7 1.9-1 .5-.3.9.5.4.8-.7.5-1.5.8-2.3 1.2v.4c.5-.1 1.1-.3 1.7-.3.6-.1.7.8.2.9-.6 0-1.3.1-1.9.3-.1 1.2-.2 2.4-.4 3.6-.2 1-1.6.9-1.6-.1 0-1.9.2-3.9.3-5.8.1-1.9.1-3.9.2-5.8 0-.7.6-1 1-.7zm2.1 3.2c-.6-.4-1.2-.8-1.7-1.2 0 .6.1 1.3.1 1.9.4-.3.9-.5 1.4-.7h.2zM-156.3 510.9c3.9.2 7.6.2 11.4-.6.6-.1 1 .5.6 1-1.7 1.9-3 4.1-4 6.5-.2.5-1.1.2-.9-.4.8-2 1.8-3.8 3-5.6-2 .4-4 .5-6.1.5.3.1.4.4.2.7-.4.5-.8 1.1-1 1.7.3.4.5.7.8 1.1.3-.6.6-1.3 1-1.9.3-.5 1-.1.8.5-.3.8-.8 1.5-1.2 2.3.1.1.1.2.2.3l1.2-1.2c.4-.4 1.1.3.6.6-.5.4-1 .8-1.4 1.3.6 1 1.2 2.1 1.8 3.2.4.9-.8 1.6-1.3.8-1.1-1.6-2-3.3-3.1-4.9-1-1.6-2.1-3.2-3.1-4.8-.3-.5 0-1.1.5-1.1zm3.5 1.4h-2.1l1.2 1.5c.2-.5.4-.9.7-1.4.1 0 .2 0 .2-.1z"/><path class="st2" d="M-129.3 516.5c-.2-3.9-.4-7.6-1.6-11.3-.2-.6.5-1.1 1-.7 2 1.5 4.4 2.6 6.8 3.4.5.2.3 1.1-.3 1-2.1-.6-4-1.5-5.8-2.5.5 2 .8 4 1 6 .1-.3.3-.4.7-.3.6.4 1.2.7 1.8.9.3-.3.7-.6 1-.9-.7-.3-1.3-.5-2-.8-.6-.2-.2-1 .4-.8.8.3 1.6.6 2.4 1l.3-.3c-.5-.3-.9-.7-1.3-1.1-.4-.4.2-1.1.6-.7.4.5.9.9 1.4 1.3 1-.7 2-1.4 3-2 .9-.5 1.7.6.9 1.3-1.5 1.2-3.1 2.3-4.6 3.5-1.5 1.2-3 2.4-4.6 3.5-.4.3-1 0-1.1-.5zm1.2-3.7c.1.7.1 1.4.2 2.1.5-.4 1-.9 1.4-1.3-.5-.1-1-.4-1.4-.6-.2 0-.2-.1-.2-.2z"/><path class="st3" d="M-168.5 502.1c-2.8-2.6-5.6-5.1-9.1-7-.5-.3-.4-1.1.2-1.2 2.5-.4 4.9-1.2 7.2-2.3.5-.3 1 .6.5.9-1.9 1-3.9 1.7-5.9 2.3 1.8 1 3.4 2.3 4.9 3.6-.1-.3-.1-.6.3-.6.7-.1 1.3-.4 1.9-.7 0-.5.1-.9.1-1.4-.7.3-1.3.5-2 .8-.6.2-.8-.6-.3-.9.8-.4 1.6-.7 2.4-.9 0-.1 0-.3.1-.4-.6.1-1.1.1-1.7.1-.6 0-.6-.9-.1-.9.6 0 1.3 0 1.9-.1.2-1.2.4-2.4.7-3.6.3-1 1.7-.8 1.6.3-.2 1.9-.6 3.8-.9 5.7-.3 1.9-.5 3.8-.8 5.7 0 .6-.6.9-1 .6zm-1.8-3.4c.5.5 1.1.9 1.6 1.4 0-.6.1-1.3.1-1.9-.4.2-.9.4-1.4.5h-.3z"/><path class="st2" d="M-160.4 468.7c-3.8.9-7.4 1.9-10.8 3.8-.5.3-1.1-.2-.9-.8 1.1-2.3 1.7-4.8 2-7.3.1-.6 1-.5 1 .1-.2 2.1-.6 4.2-1.3 6.2 1.8-.9 3.7-1.6 5.7-2.2-.3 0-.5-.3-.4-.6.2-.6.4-1.3.5-2-.3-.3-.7-.6-1.1-.9-.1.7-.3 1.4-.4 2.1-.1.6-1 .4-.9-.2.1-.9.3-1.7.5-2.5l-.3-.3c-.2.5-.5 1-.8 1.5-.3.5-1.1 0-.8-.4.4-.5.7-1.1.9-1.7-.9-.8-1.8-1.7-2.6-2.5-.7-.7.3-1.8 1.1-1.2 1.5 1.2 2.9 2.6 4.3 3.8 1.5 1.3 2.9 2.5 4.4 3.8.6.4.4 1.2-.1 1.3zm-3.8-.4c.7-.2 1.4-.4 2-.6-.5-.4-1.1-.8-1.6-1.2 0 .5-.2 1-.3 1.5 0 .2 0 .3-.1.3z"/></g><g class="st0"><path class="st1" d="M-139.7 560.6c-3.9-.2-7.6-.3-11.4.4-.6.1-1-.6-.6-1 1.7-1.9 3-4.1 4.1-6.4.2-.5 1.1-.1.9.4-.8 2-1.9 3.8-3.1 5.5 2-.3 4-.4 6.1-.4-.3-.1-.4-.4-.2-.7.4-.5.8-1.1 1-1.7-.3-.4-.5-.8-.8-1.1-.4.6-.7 1.3-1 1.9-.3.5-1 .1-.8-.5.3-.8.8-1.5 1.3-2.3-.1-.1-.1-.2-.2-.3l-1.2 1.2c-.4.4-1.1-.3-.6-.6.5-.4 1-.8 1.4-1.3-.6-1-1.2-2.1-1.7-3.2-.4-.9.8-1.6 1.4-.8 1.1 1.6 2 3.3 3 5s2.1 3.3 3.1 4.9c.1.4-.2 1.1-.7 1zm-3.5-1.4c.7 0 1.4 0 2.1.1-.4-.5-.8-1-1.1-1.6-.2.5-.4.9-.8 1.3-.1.1-.2.1-.2.2zM-126.2 536.5c3.1 2.3 6.1 4.6 9.7 6.1.6.2.5 1-.1 1.2-2.5.6-4.8 1.7-7 3-.5.3-1-.5-.5-.8 1.8-1.2 3.7-2.1 5.7-2.8-1.8-.8-3.6-1.9-5.3-3.1.1.2.1.6-.2.7-.6.2-1.3.5-1.8.8v1.3c.6-.3 1.3-.7 1.9-1 .5-.3.9.5.4.8-.7.5-1.5.8-2.3 1.2v.4c.5-.1 1.1-.3 1.7-.3.6-.1.7.8.2.9-.6 0-1.3.1-1.9.3-.1 1.2-.2 2.4-.4 3.6-.2 1-1.6.9-1.6-.1 0-1.9.2-3.9.3-5.8.1-1.9.1-3.9.2-5.8 0-.6.6-.9 1-.6zm2.1 3.2c-.6-.4-1.2-.8-1.7-1.2 0 .6.1 1.3.1 1.9.4-.3.9-.5 1.4-.7h.2zM-156.3 580.9c3.9.2 7.6.2 11.4-.6.6-.1 1 .5.6 1-1.7 1.9-3 4.1-4 6.5-.2.5-1.1.2-.9-.4.8-2 1.8-3.8 3-5.6-2 .4-4 .5-6.1.5.3.1.4.4.2.7-.4.5-.8 1.1-1 1.7.3.4.5.7.8 1.1.3-.6.6-1.3 1-1.9.3-.5 1-.1.8.5-.3.8-.8 1.5-1.2 2.3.1.1.1.2.2.3l1.2-1.2c.4-.4 1.1.3.6.6-.5.4-1 .8-1.4 1.3.6 1 1.2 2.1 1.8 3.2.4.9-.8 1.6-1.3.8-1.1-1.6-2-3.3-3.1-4.9-1-1.6-2.1-3.2-3.1-4.8-.3-.5 0-1.1.5-1.1zm3.5 1.4h-2.1l1.2 1.5c.2-.5.4-.9.7-1.4.1 0 .2 0 .2-.1z"/><path class="st2" d="M-129.3 586.5c-.2-3.9-.4-7.6-1.6-11.3-.2-.6.5-1.1 1-.7 2 1.5 4.4 2.6 6.8 3.4.5.2.3 1.1-.3 1-2.1-.6-4-1.5-5.8-2.5.5 2 .8 4 1 6 .1-.3.3-.5.7-.3.6.4 1.2.7 1.8.9.3-.3.7-.6 1-.9-.7-.3-1.3-.5-2-.8-.6-.2-.2-1 .4-.8.8.3 1.6.6 2.4 1l.3-.3c-.5-.3-.9-.7-1.3-1.1-.4-.4.2-1.1.6-.7.4.5.9.9 1.4 1.3 1-.7 2-1.4 3-2 .9-.5 1.7.6.9 1.3-1.5 1.2-3.1 2.3-4.6 3.5-1.5 1.2-3 2.4-4.6 3.5-.4.3-1 0-1.1-.5zm1.2-3.7c.1.7.1 1.4.2 2.1.5-.4 1-.9 1.4-1.3-.5-.1-1-.4-1.4-.6-.2 0-.2-.1-.2-.2z"/><path class="st3" d="M-168.5 572.1c-2.8-2.6-5.6-5.1-9.1-7-.5-.3-.4-1.1.2-1.2 2.5-.3 4.9-1.2 7.2-2.3.5-.3 1 .6.5.9-1.9 1-3.9 1.7-5.9 2.3 1.8 1 3.4 2.3 4.9 3.6-.1-.3-.1-.6.3-.6.7-.1 1.3-.4 1.9-.7 0-.5.1-.9.1-1.4-.7.3-1.3.5-2 .8-.6.2-.8-.6-.3-.9.8-.4 1.6-.7 2.4-.9 0-.1 0-.3.1-.4-.6.1-1.1.1-1.7.1-.6 0-.6-.9-.1-.9.6 0 1.3 0 1.9-.1.2-1.2.4-2.4.7-3.5.3-1 1.7-.8 1.6.3-.2 1.9-.6 3.8-.9 5.7-.3 1.9-.5 3.8-.8 5.7 0 .5-.6.8-1 .5zm-1.8-3.4c.5.5 1.1.9 1.6 1.4 0-.6.1-1.3.1-1.9-.4.2-.9.4-1.4.5h-.3z"/><path class="st2" d="M-160.4 538.7c-3.8.9-7.4 1.9-10.8 3.8-.5.3-1.1-.2-.9-.8 1.1-2.3 1.7-4.8 2-7.3.1-.6 1-.5 1 .1-.2 2.1-.6 4.2-1.3 6.2 1.8-.9 3.7-1.6 5.7-2.2-.3 0-.5-.3-.4-.6.2-.6.4-1.3.5-2-.3-.3-.7-.6-1.1-.9-.1.7-.3 1.4-.4 2.1-.1.6-1 .4-.9-.2.1-.9.3-1.7.5-2.5l-.3-.3c-.2.5-.5 1-.8 1.5-.3.5-1.1 0-.8-.4.4-.5.7-1.1.9-1.7-.9-.8-1.8-1.7-2.6-2.5-.7-.7.3-1.8 1.1-1.2 1.5 1.2 2.9 2.6 4.3 3.8 1.5 1.3 2.9 2.5 4.4 3.8.6.4.4 1.1-.1 1.3zm-3.8-.4c.7-.2 1.4-.4 2-.6-.5-.4-1.1-.8-1.6-1.2 0 .5-.2 1-.3 1.5 0 .2 0 .3-.1.3z"/></g></svg>