<svg width="18" height="18" viewBox="0 0 18 18" fill="none" xmlns="http://www.w3.org/2000/svg">
<path d="M17.5299 4.42974C17.5299 4.42974 16.9509 1.66321 14.4496 0.691436C13.274 0.243139 11.1082 0.0189719 8.99839 -6.20331e-09C6.90765 0.0189831 4.74167 0.243139 3.56608 0.691436C1.06481 1.66325 0.485693 4.42974 0.485693 4.42974C0.112313 6.00026 3.66766e-09 7.58898 3.66766e-09 9.00916C3.66766e-09 10.411 0.112305 11.9998 0.485693 13.5703C0.485693 13.5703 1.06473 16.3368 3.56608 17.3086C4.74238 17.7569 6.88935 17.9818 8.99913 18C11.1089 17.981 13.2559 17.7759 14.4322 17.3086C16.9335 16.3368 17.5126 13.5703 17.5126 13.5703C17.886 12.0005 18.0165 10.4118 17.9983 9.00991C18.0158 7.58905 17.9035 6.0002 17.5301 4.42974H17.5299ZM9.764 13.271H8.34486V12.0561H9.764V13.271ZM9.78224 10.2241V10.9345H8.34487V8.89753H9.05444C9.6517 8.89753 10.1374 8.41125 10.1374 7.81328C10.1374 7.2153 9.6517 6.72902 9.05444 6.72902C8.45718 6.72902 7.97149 7.2153 7.97149 7.81328H6.53413C6.53413 6.4304 7.65427 5.28992 9.05444 5.28992C10.4357 5.28992 11.5748 6.41141 11.5748 7.81328C11.5748 8.95303 10.828 9.9256 9.78224 10.2241Z" fill="#373737"/>
</svg>
