<svg width="18" height="18" viewBox="0 0 18 18" fill="none" xmlns="http://www.w3.org/2000/svg">
<path d="M7.71429 0C7.23969 0 6.85714 0.382543 6.85714 0.857143V2.03571C6.41351 2.17215 5.98744 2.34375 5.58482 2.55804L4.75446 1.72768C4.41881 1.39202 3.87808 1.39202 3.54242 1.72768L1.72768 3.54242C1.39202 3.87808 1.39202 4.41881 1.72768 4.75446L2.55804 5.58482C2.34375 5.98744 2.17215 6.41351 2.03571 6.85714H0.857143C0.382543 6.85714 0 7.23969 0 7.71429V10.2857C0 10.7603 0.382543 11.1429 0.857143 11.1429H2.03571C2.17215 11.5865 2.34375 12.0126 2.55804 12.4152L1.72768 13.2455C1.39202 13.5812 1.39202 14.1219 1.72768 14.4576L3.54242 16.2723C3.87808 16.608 4.41881 16.608 4.75446 16.2723L5.58482 15.442C5.98744 15.6562 6.41351 15.8279 6.85714 15.9643V17.1429C6.85714 17.6175 7.23969 18 7.71429 18H10.2857C10.7603 18 11.1429 17.6175 11.1429 17.1429V15.9643C11.584 15.8287 12.0075 15.6554 12.4085 15.442L13.2388 16.2723C13.5745 16.608 14.1152 16.608 14.4509 16.2723L16.2723 14.4576C16.608 14.1219 16.608 13.5812 16.2723 13.2455L15.4353 12.4085C15.6479 12.0067 15.8287 11.5848 15.9643 11.1429H17.1429C17.6175 11.1429 18 10.7603 18 10.2857V7.71431C18 7.23971 17.6175 6.85716 17.1429 6.85716H15.9643C15.8287 6.4152 15.6479 5.99334 15.4353 5.59155L16.2723 4.75451C16.608 4.41885 16.608 3.87812 16.2723 3.54246L14.4509 1.72772C14.1152 1.39206 13.5745 1.39206 13.2388 1.72772L12.4085 2.55808C12.0075 2.34463 11.584 2.17136 11.1429 2.03576V0.857186C11.1429 0.382586 10.7603 4.29153e-05 10.2857 4.29153e-05L7.71429 0ZM9 5.14286C11.1303 5.14286 12.8571 6.8697 12.8571 9C12.8571 11.1303 11.1303 12.8571 9 12.8571C6.8697 12.8571 5.14286 11.1303 5.14286 9C5.14286 6.8697 6.8697 5.14286 9 5.14286Z" fill="white"/>
</svg>
