<svg width="23" height="18" viewBox="0 0 23 18" fill="none" xmlns="http://www.w3.org/2000/svg">
<path d="M18.9716 3.52925C19.4647 4.71389 19.355 6.20244 18.4674 7.07985C17.0529 8.47805 15.4342 8.45719 14.3125 7.73602C12.6717 6.68121 12.179 5.14656 13.041 3.39884C13.0473 3.38609 13.0549 3.37492 13.0613 3.36232C12.0878 3.36073 11.0949 3.36857 10.1197 3.38513C10.1473 3.44775 10.1784 3.50856 10.2008 3.57382C10.8458 5.45364 10.1219 6.89879 8.983 7.59249C7.31695 8.60719 5.71825 8.3814 4.51742 6.84575C3.73862 5.84974 3.624 4.66896 4.05687 3.63436C2.4245 3.76138 1.4032 3.92805 1.51806 4.12456C3.54528 8.02669 4.4684 14.9638 3.96161 16.1199C3.69405 16.7303 19.9324 16.4191 19.4374 15.831C17.917 14.0244 20.1252 7.01496 21.5009 4.12456C21.7621 3.84644 20.7101 3.65215 18.9716 3.52925Z" fill="#FBB040"/>
<path d="M12.972 4.5177C11.7233 5.27826 10.525 5.10904 9.62501 3.95804C8.72498 2.80704 9.00206 1.32494 10.1553 0.426651C11.3085 -0.47164 13.4107 0.12444 13.8847 1.50573C14.3681 2.91463 13.8256 3.99779 12.972 4.5177Z" fill="#FBB040"/>
<path d="M3.37021 5.70911C2.28592 6.36953 1.24547 6.22259 0.463958 5.22314C-0.317558 4.2237 -0.0769667 2.93676 0.924411 2.15676C1.92579 1.37675 3.75119 1.89434 4.16274 3.09375C4.58252 4.31713 4.11142 5.25766 3.37021 5.70911Z" fill="#FBB040"/>
<path d="M22.0498 5.70911C20.9655 6.36953 19.925 6.22259 19.1435 5.22314C18.362 4.2237 18.6026 2.93676 19.604 2.15676C20.6054 1.37675 22.4308 1.89434 22.8423 3.09375C23.2621 4.31713 22.791 5.25766 22.0498 5.70911Z" fill="#FBB040"/>
<path d="M19.908 16.969C19.1944 17.3374 15.8495 17.9631 11.5094 17.9988C7.16938 18.0344 3.84011 17.2942 3.02034 16.698C2.29396 16.1698 2.58593 15.4515 3.13743 15.0722C3.90375 14.545 7.08109 15.136 11.2922 15.1806C15.5312 15.2254 18.0228 14.5844 19.0935 14.6928C20.1641 14.8012 21.4827 16.1561 19.908 16.969Z" fill="#FBB040"/>
<path d="M11.7551 16.2829C10.469 16.4358 9.5669 15.8588 9.26744 14.6011C8.96797 13.3434 9.73836 12.2523 10.9985 11.9534C12.2586 11.6545 13.7307 12.9077 13.6022 14.194C13.471 15.506 12.6343 16.1784 11.7551 16.2829Z" fill="white"/>
</svg>
