<svg xmlns="http://www.w3.org/2000/svg" width="21" height="21" viewBox="0 0 21 21"><g><g><path fill="#4b4b4b" d="M10.5 0C4.71 0 0 4.71 0 10.5S4.71 21 10.5 21a.647.647 0 1 0 0-1.294c-5.076 0-9.205-4.13-9.205-9.205 0-5.076 4.129-9.206 9.205-9.206 5.076 0 9.204 4.13 9.204 9.206 0 2.12-1.129 4.224-2.744 5.114a3.968 3.968 0 0 1-1.903.49 3.04 3.04 0 0 0 1.023-.985c.052-.078.12-.145.153-.23.211-.508.23-1.083.357-1.618.156-.686-2.995-2.02-3.268-1.167-.1.317-.251 1.316-.45 1.58-.177.235-.612.124-.885-.108-.718-.612-1.52-1.512-2.223-2.222l.001-.001a2.542 2.542 0 0 0-.059-.058l-.06-.06c-.71-.702-1.61-1.503-2.222-2.223-.232-.272-.343-.707-.108-.884.263-.2 1.264-.35 1.58-.449.852-.273-.482-3.426-1.167-3.268-.535.125-1.11.145-1.618.355-.086.036-.153.103-.23.154-1.8 1.141-2.032 3.91-.276 5.973.67.79 1.368 1.554 2.086 2.3l-.004.002.062.058.056.06.004-.003c.746.719 1.63 1.777 3.066 2.735 3.023 2.02 5.343 1.456 6.71.706 2.36-1.3 3.415-4.074 3.415-6.248C21 4.71 16.29 0 10.5 0z"/></g></g></svg>