<svg xmlns="http://www.w3.org/2000/svg" width="20" height="20" viewBox="0 0 20 20"><g><g><path fill="#4b4b4b" d="M10 10a4.224 4.224 0 0 1-4.219-4.219A4.224 4.224 0 0 1 10 1.563a4.224 4.224 0 0 1 4.219 4.218A4.224 4.224 0 0 1 10 10zm7.071 2.929a9.962 9.962 0 0 0-3.8-2.384 5.78 5.78 0 0 0 2.51-4.764A5.788 5.788 0 0 0 10 0a5.788 5.788 0 0 0-5.781 5.781 5.78 5.78 0 0 0 2.51 4.764 9.962 9.962 0 0 0-3.8 2.384A9.935 9.935 0 0 0 0 20h1.563c0-4.652 3.785-8.438 8.437-8.438 4.652 0 8.438 3.786 8.438 8.438H20a9.935 9.935 0 0 0-2.929-7.071z"/></g></g></svg>