<svg xmlns="http://www.w3.org/2000/svg" width="24" height="24" viewBox="0 0 24 24"><g><g><path fill="#4b4b4b" d="M21.95 21.95l-1.987-.55-.266.172a6.327 6.327 0 0 1-3.455 1.022 6.367 6.367 0 0 1-6.021-4.327 9.181 9.181 0 0 0 8.046-8.047 6.368 6.368 0 0 1 4.327 6.022 6.327 6.327 0 0 1-1.022 3.455l-.172.266zM4.725 15.527l-2.676.74.74-2.676-.168-.264A7.727 7.727 0 0 1 1.406 9.16c0-4.275 3.478-7.753 7.753-7.753s7.753 3.478 7.753 7.753-3.478 7.753-7.753 7.753a7.727 7.727 0 0 1-4.17-1.216zM24 16.242a7.776 7.776 0 0 0-5.681-7.475C18.11 3.897 14.084 0 9.164 0 4.111 0 0 4.11 0 9.164c0 1.647.438 3.25 1.27 4.658L.035 18.294l4.472-1.237a9.13 9.13 0 0 0 4.26 1.262A7.776 7.776 0 0 0 16.242 24a7.73 7.73 0 0 0 3.948-1.078l3.776 1.044-1.044-3.776A7.73 7.73 0 0 0 24 16.242z"/></g></g></svg>