<svg xmlns="http://www.w3.org/2000/svg" width="29" height="19" viewBox="0 0 29 19"><g><g><g><g><path fill="#fff" d="M27.26 16.734c-.216.504-.505.792-.867.9-.397.108-.903.036-1.481-.18-1.265-.504-2.747-1.62-4.192-2.989-1.373-1.368-3.794-2.052-6.215-2.052s-4.842.684-6.251 1.98c-1.482 1.368-2.963 2.52-4.192 2.989-.578.216-1.084.324-1.481.18-.362-.108-.65-.396-.868-.9-.289-.684-.433-1.8-.36-3.457a24.76 24.76 0 0 1 .758-4.97c.397-1.548.903-2.988 1.518-4.069 1.987-3.565 4.3-2.988 7.046-2.268 1.12.288 2.276.576 3.54.684H14.759c1.3-.108 2.457-.396 3.577-.684 2.746-.684 5.06-1.297 7.046 2.268.615 1.08 1.12 2.485 1.518 4.07.398 1.656.687 3.384.759 4.969.072 1.656-.072 2.773-.398 3.529zm1.724-3.594c-.072-1.657-.36-3.495-.794-5.225-.434-1.657-.976-3.206-1.626-4.395-2.528-4.432-5.273-3.748-8.56-2.883-1.048.252-2.168.54-3.323.649h-.362c-1.155-.109-2.275-.397-3.323-.649-3.287-.829-6.032-1.55-8.56 2.919C1.786 4.745 1.208 6.294.81 7.95.377 9.681.088 11.52.016 13.176c-.073 1.838.108 3.17.505 4.108.398.864.976 1.405 1.734 1.621.686.18 1.481.108 2.312-.252 1.409-.577 3.034-1.802 4.623-3.279 1.12-1.081 3.215-1.621 5.31-1.621 2.095 0 4.19.54 5.31 1.621 1.59 1.477 3.214 2.702 4.623 3.279.831.324 1.626.432 2.312.252.722-.216 1.336-.72 1.734-1.657.397-.901.578-2.234.505-4.108z"/></g><g><path fill="#fff" d="M10.171 8.197a.728.728 0 0 1-.536.214h-.501a.68.68 0 0 0-.68.68v.465a.728.728 0 0 1-.214.536.728.728 0 0 1-.537.215.728.728 0 0 1-.536-.215.728.728 0 0 1-.215-.536v-.5a.68.68 0 0 0-.68-.68h-.5a.728.728 0 0 1-.537-.215.725.725 0 0 1-.214-.5c0-.215.071-.394.214-.537l.036-.036a.855.855 0 0 1 .5-.179h.502a.68.68 0 0 0 .68-.68v-.5c0-.215.07-.394.214-.537a.728.728 0 0 1 .536-.214c.215 0 .394.071.537.214l.035.036a.855.855 0 0 1 .18.5v.501c0 .358.285.68.679.68h.5c.215 0 .394.072.537.215a.728.728 0 0 1 .215.536.728.728 0 0 1-.215.537zm.883-2.003c-.357-.322-.785-.573-1.285-.608a2.037 2.037 0 0 0-.571-1.252l-.036-.036a2.02 2.02 0 0 0-1.464-.608c-.57 0-1.106.25-1.463.608a2.08 2.08 0 0 0-.607 1.288c-.5.035-.928.25-1.285.572l-.036.036A2.028 2.028 0 0 0 3.7 7.66c0 .572.25 1.109.607 1.467.357.357.785.572 1.32.608.036.5.25.965.608 1.287a2.02 2.02 0 0 0 1.463.608c.571 0 1.107-.25 1.464-.608.321-.357.571-.787.607-1.287.5-.036.964-.25 1.285-.608.393-.394.607-.895.607-1.467 0-.572-.25-1.109-.607-1.466z"/></g><g><path fill="#fff" d="M20.9 6.242c.706 0 1.279-.571 1.279-1.276 0-.705-.573-1.276-1.28-1.276-.706 0-1.279.571-1.279 1.276 0 .705.573 1.276 1.28 1.276z"/></g><g><path fill="#fff" d="M20.9 11.342c.706 0 1.279-.571 1.279-1.276 0-.705-.573-1.276-1.28-1.276-.706 0-1.279.571-1.279 1.276 0 .705.573 1.276 1.28 1.276z"/></g><g><path fill="#fff" d="M18.34 8.792c.706 0 1.279-.571 1.279-1.276 0-.705-.573-1.276-1.28-1.276-.706 0-1.279.571-1.279 1.276 0 .705.573 1.276 1.28 1.276z"/></g><g><path fill="#fff" d="M23.46 8.792c.706 0 1.279-.571 1.279-1.276 0-.705-.573-1.276-1.28-1.276-.706 0-1.279.571-1.279 1.276 0 .705.573 1.276 1.28 1.276z"/></g></g></g></g></svg>