<svg xmlns="http://www.w3.org/2000/svg" width="19" height="19" viewBox="0 0 19 19"><g><g><path fill="#019948" d="M9.5 9.5a4.012 4.012 0 0 1-4.008-4.008A4.012 4.012 0 0 1 9.5 1.484a4.012 4.012 0 0 1 4.008 4.008A4.012 4.012 0 0 1 9.5 9.5zm6.718 2.782a9.464 9.464 0 0 0-3.61-2.264 5.49 5.49 0 0 0 2.384-4.526A5.498 5.498 0 0 0 9.5 0a5.498 5.498 0 0 0-5.492 5.492 5.49 5.49 0 0 0 2.385 4.526 9.464 9.464 0 0 0-3.61 2.264A9.438 9.438 0 0 0 0 19h1.484c0-4.42 3.596-8.016 8.016-8.016S17.516 14.58 17.516 19H19a9.438 9.438 0 0 0-2.782-6.718z"/></g></g></svg>