<?xml version="1.0" encoding="utf-8"?>
<!-- Generator: Adobe Illustrator 19.0.1, SVG Export Plug-In . SVG Version: 6.00 Build 0)  -->
<svg version="1.1" id="Слой_1" xmlns="http://www.w3.org/2000/svg" xmlns:xlink="http://www.w3.org/1999/xlink" x="0px" y="0px"
	 viewBox="-41 164.9 512 512" style="enable-background:new -41 164.9 512 512;" xml:space="preserve">
<style type="text/css">
	.st0{fill:#FB734E;}
</style>
<g>
	<path class="st0" d="M-35.1,440.6c-3.9-3.9-5.9-9.8-5.9-13.8c0-3.9,2-9.8,5.9-13.8l27.6-27.6c7.9-7.9,19.7-7.9,27.6,0l2,2
		l108.3,116.2c3.9,3.9,9.8,3.9,13.8,0L408,229.9h2l0,0c7.9-7.9,19.7-7.9,27.6,0l27.6,27.6c7.9,7.9,7.9,19.7,0,27.6l0,0L150,611.9
		c-3.9,3.9-7.9,5.9-13.8,5.9s-9.8-2-13.8-5.9L-31.2,446.5L-35.1,440.6L-35.1,440.6z"/>
</g>
</svg>
