<?xml version="1.0" encoding="utf-8"?>
<!-- Generator: Adobe Illustrator 19.0.1, SVG Export Plug-In . SVG Version: 6.00 Build 0)  -->
<svg version="1.1" id="Capa_1" xmlns="http://www.w3.org/2000/svg" xmlns:xlink="http://www.w3.org/1999/xlink" x="0px" y="0px"
	 viewBox="-45 168.7 504.2 504.2" style="enable-background:new -45 168.7 504.2 504.2;" xml:space="preserve">
<style type="text/css">
	.st0{fill:#FC5B35;}
</style>
<g>
	<path class="st0" d="M299.1,431.6c-7.9,0-14.4,6.5-14.4,14.4v201.4c0,1.3-1.1,2.4-2.4,2.4H-19.8c-1.3,0-2.4-1.1-2.4-2.4V194.2
		c0-1.3,1.1-2.4,2.4-2.4h302.2c1.3,0,2.4,1.1,2.4,2.4v50.4c0,7.9,6.5,14.4,14.4,14.4s14.4-6.5,14.4-14.4v-50.4
		c0-17.2-14-31.2-31.2-31.2H-19.8C-37,163-51,177-51,194.2v453.2c0,17.2,14,31.2,31.2,31.2h302.2c17.2,0,31.2-14,31.2-31.2V446
		c0-3.8-1.5-7.5-4.2-10.2C306.6,433.1,303,431.6,299.1,431.6z"/>
	<path class="st0" d="M451.1,193.3L451.1,193.3c-10.1-10.2-23.7-14.8-36.9-14l3.9-3.9l-8.9,4.5c-9.4,1.6-18.4,6-25.7,13.2
		l-26.6,26.4l0.5-0.2l-29.1,29.1l-288.9,289c-0.3,0.3-0.5,0.6-0.7,0.8c-1,1.1-1.7,2.3-2.3,3.6L0.7,625c-1.9,4.5-1.5,9.5,1.2,13.6
		c2.7,4,7.2,6.5,12,6.5l0,0c2,0,3.9-0.4,5.6-1.2l82.9-35.5l0.3-0.1c1.3-0.6,2.5-1.3,3.6-2.3c0.2-0.2,0.5-0.4,0.8-0.7L396,316.2
		l55.3-55.3C469.8,242.2,469.7,211.9,451.1,193.3z M71.6,590.2l-30.5,13.1l13.1-30.5L71.6,590.2z M365.5,306L96.8,574.6l-27.1-27.1
		l268.6-268.6L365.5,306z M391,280.4l-5.2,5.2l-27.1-27.1l5.2-5.2L391,280.4z M431.7,239.8l-20.3,20.3L384.3,233l19.5-19.5
		c4.8-4.8,11.9-6.7,18.5-5c6.6,1.8,11.8,7,13.6,13.6C437.5,228.3,435.9,235,431.7,239.8z"/>
	<path class="st0" d="M232,238.5H30.5c-7.9,0-14.4,6.5-14.4,14.4s6.5,14.4,14.4,14.4H232c7.9,0,14.4-6.5,14.4-14.4
		S239.9,238.5,232,238.5z"/>
	<path class="st0" d="M232,317.7c3.8,0,7.5-1.5,10.2-4.2c2.7-2.7,4.2-6.3,4.2-10.2c0-7.9-6.5-14.4-14.4-14.4H30.5
		c-7.9,0-14.4,6.5-14.4,14.4c0,7.9,6.5,14.4,14.4,14.4H232L232,317.7z"/>
	<path class="st0" d="M30.5,339.2c-7.9,0-14.4,6.5-14.4,14.4S22.6,368,30.5,368h151.1c7.9,0,14.4-6.5,14.4-14.4s-6.5-14.4-14.4-14.4
		H30.5z"/>
</g>
</svg>
