<svg width="35" height="35" viewBox="0 0 35 35" fill="none" xmlns="http://www.w3.org/2000/svg">
<path fill-rule="evenodd" clip-rule="evenodd" d="M17.5008 8.16666C14.966 8.16666 14.6479 8.17774 13.6523 8.22305C12.6587 8.26855 11.9805 8.42585 11.387 8.65666C10.7732 8.89505 10.2525 9.21395 9.73367 9.73292C9.2145 10.2517 8.89561 10.7724 8.65644 11.3861C8.42505 11.9798 8.26754 12.6582 8.22282 13.6514C8.17829 14.647 8.16663 14.9653 8.16663 17.5001C8.16663 20.0349 8.1779 20.352 8.22302 21.3476C8.26871 22.3412 8.42602 23.0195 8.65663 23.6129C8.89522 24.2268 9.21411 24.7475 9.73309 25.2663C10.2517 25.7854 10.7724 26.1051 11.3859 26.3435C11.9797 26.5743 12.6581 26.7316 13.6516 26.7771C14.6471 26.8224 14.9651 26.8335 17.4997 26.8335C20.0347 26.8335 20.3518 26.8224 21.3474 26.7771C22.341 26.7316 23.02 26.5743 23.6138 26.3435C24.2275 26.1051 24.7475 25.7854 25.2661 25.2663C25.7852 24.7475 26.1041 24.2268 26.3433 23.6131C26.5727 23.0194 26.7302 22.341 26.7769 21.3478C26.8216 20.3522 26.8333 20.0349 26.8333 17.5001C26.8333 14.9653 26.8216 14.6472 26.7769 13.6516C26.7302 12.658 26.5727 11.9798 26.3433 11.3863C26.1041 10.7724 25.7852 10.2517 25.2661 9.73292C24.7469 9.21375 24.2277 8.89486 23.6133 8.65666C23.0183 8.42585 22.3396 8.26855 21.346 8.22305C20.3504 8.17774 20.0335 8.16666 17.4979 8.16666H17.5008ZM16.6635 9.84859C16.912 9.8482 17.1893 9.84859 17.5008 9.84859C19.9928 9.84859 20.2882 9.85754 21.2723 9.90226C22.1823 9.94387 22.6762 10.0959 23.0052 10.2237C23.4407 10.3928 23.7513 10.5951 24.0777 10.9217C24.4044 11.2484 24.6066 11.5595 24.7762 11.9951C24.904 12.3237 25.0562 12.8176 25.0976 13.7276C25.1423 14.7115 25.1521 15.0071 25.1521 17.4979C25.1521 19.9888 25.1423 20.2843 25.0976 21.2682C25.056 22.1782 24.904 22.6721 24.7762 23.0008C24.607 23.4363 24.4044 23.7465 24.0777 24.0729C23.7511 24.3996 23.4409 24.6018 23.0052 24.771C22.6766 24.8993 22.1823 25.051 21.2723 25.0926C20.2884 25.1373 19.9928 25.1471 17.5008 25.1471C15.0086 25.1471 14.7132 25.1373 13.7293 25.0926C12.8193 25.0506 12.3254 24.8986 11.9962 24.7708C11.5606 24.6016 11.2495 24.3994 10.9229 24.0727C10.5962 23.7461 10.394 23.4357 10.2244 23C10.0967 22.6714 9.94441 22.1775 9.90299 21.2675C9.85827 20.2836 9.84933 19.988 9.84933 17.4956C9.84933 15.0032 9.85827 14.7092 9.90299 13.7253C9.9446 12.8153 10.0967 12.3214 10.2244 11.9924C10.3936 11.5568 10.5962 11.2457 10.9229 10.919C11.2495 10.5923 11.5606 10.3901 11.9962 10.2206C12.3252 10.0922 12.8193 9.94057 13.7293 9.89876C14.5903 9.85987 14.924 9.8482 16.6635 9.84626V9.84859ZM22.4829 11.3983C21.8646 11.3983 21.3629 11.8994 21.3629 12.518C21.3629 13.1363 21.8646 13.638 22.4829 13.638C23.1012 13.638 23.6029 13.1363 23.6029 12.518C23.6029 11.8996 23.1012 11.3983 22.4829 11.3983ZM17.5008 12.707C14.8539 12.707 12.7077 14.8531 12.7077 17.5001C12.7077 20.1471 14.8539 22.2922 17.5008 22.2922C20.1478 22.2922 22.2932 20.1471 22.2932 17.5001C22.2932 14.8531 20.1478 12.707 17.5008 12.707ZM17.5008 14.3889C19.2189 14.3889 20.612 15.7817 20.612 17.5001C20.612 19.2182 19.2189 20.6112 17.5008 20.6112C15.7825 20.6112 14.3897 19.2182 14.3897 17.5001C14.3897 15.7817 15.7825 14.3889 17.5008 14.3889Z" fill="white"/>
</svg>
