<svg width="52" height="49" viewBox="0 0 52 49" fill="none" xmlns="http://www.w3.org/2000/svg">
<path fill-rule="evenodd" clip-rule="evenodd" d="M27.0941 5.1929C27.9367 4.89667 28.5404 4.09738 28.5404 3.15784C28.5404 1.9661 27.5691 1 26.371 1C25.1729 1 24.2016 1.9661 24.2016 3.15784C24.2016 4.09738 24.8053 4.89667 25.6479 5.1929V9.69104C24.087 9.95152 22.8087 11.041 22.2862 12.4887L10.7103 11.003L1 36.6354L1.13022 36.9107L1.78452 36.6044C1.13022 36.9107 1.13022 36.9107 1.13022 36.9107L1.13084 36.912L1.13174 36.9139L1.13435 36.9193L1.1428 36.9367C1.14988 36.9512 1.15985 36.9713 1.17273 36.9967C1.19849 37.0476 1.2359 37.1196 1.28506 37.2099C1.38334 37.3902 1.52892 37.6438 1.72269 37.9462C2.1094 38.5499 2.69251 39.3551 3.48021 40.1623C5.0531 41.7742 7.48816 43.4376 10.8237 43.4376C14.6733 43.4376 17.2894 41.8043 18.9315 40.1698C19.7485 39.3564 20.3243 38.5439 20.697 37.9327C20.8837 37.6267 21.0204 37.3695 21.1117 37.1859C21.1573 37.094 21.1917 37.0204 21.2154 36.968C21.2272 36.9418 21.2364 36.9209 21.243 36.9057L21.2509 36.8872L21.2534 36.8812L21.2547 36.8782C21.2547 36.8782 21.2534 36.8812 21.255 36.8774L21.363 36.6156L12.2863 12.6558L22.0324 13.9066L22.0322 13.9471C22.0322 16.3305 23.9748 18.2627 26.371 18.2627C28.3651 18.2627 30.045 16.9247 30.5527 15.1019L40.5726 16.3478L31.7575 40.8985L31.8239 41.123L31.8241 41.1238L31.8251 41.1271L31.827 41.1334L31.8329 41.1525C31.8379 41.1682 31.8447 41.1895 31.8537 41.2162C31.8715 41.2695 31.8977 41.3442 31.933 41.4372C32.0037 41.6231 32.1114 41.8829 32.2638 42.192C32.5678 42.8089 33.0535 43.6302 33.7832 44.4529C35.256 46.1132 37.7047 47.7532 41.5568 47.7532C45.07 47.7532 47.4235 46.0929 48.8784 44.4529C49.6026 43.6365 50.1079 42.8223 50.4328 42.2119C50.5956 41.906 50.7142 41.6492 50.7931 41.4661C50.8326 41.3745 50.8622 41.3011 50.8825 41.2491C50.8927 41.223 50.9005 41.2023 50.9061 41.1872L50.9129 41.1689L50.915 41.1631L50.9157 41.161L50.916 41.1602L50.9129 41.1689L50.9163 41.1595L51 40.9235L42.0944 15.0872L30.701 13.6706C30.5731 11.6572 29.0571 10.0186 27.0941 9.69104V5.1929ZM29.2635 13.9471C29.2635 15.536 27.9685 16.8242 26.371 16.8242C24.7735 16.8242 23.4785 15.536 23.4785 13.9471C23.4785 12.3581 24.7735 11.0699 26.371 11.0699C27.9685 11.0699 29.2635 12.3581 29.2635 13.9471ZM11.1852 13.8291L2.82977 35.8851H19.5407L11.1852 13.8291ZM4.51802 39.1604C3.87749 38.504 3.38571 37.8458 3.04035 37.3237H19.3754C19.0483 37.8408 18.5672 38.4972 17.9084 39.1529C16.4795 40.5753 14.2144 41.999 10.8237 41.999C8.01256 41.999 5.92804 40.6054 4.51802 39.1604ZM33.5438 40.2008L41.5429 17.9226L49.222 40.2008H33.5438ZM34.8677 43.5011C34.2728 42.8306 33.8656 42.1588 33.6027 41.6394H49.1004C48.8142 42.1624 48.3868 42.8327 47.7939 43.5011C46.537 44.918 44.5518 46.3147 41.5568 46.3147C38.1775 46.3147 36.1067 44.8978 34.8677 43.5011Z" fill="#003366"/>
<path d="M1.13022 36.9107L1 36.6354L10.7103 11.003L22.2862 12.4887C22.8087 11.041 24.087 9.95151 25.6479 9.69104V5.1929C24.8053 4.89667 24.2016 4.09738 24.2016 3.15784C24.2016 1.9661 25.1729 1 26.371 1C27.5691 1 28.5404 1.9661 28.5404 3.15784C28.5404 4.09738 27.9367 4.89667 27.0941 5.1929V9.69104C29.0571 10.0186 30.5731 11.6572 30.701 13.6706L42.0944 15.0872L51 40.9235L50.9163 41.1595L50.9129 41.169M1.13022 36.9107L1.78452 36.6044C1.13022 36.9107 1.13022 36.9107 1.13022 36.9107ZM1.13022 36.9107L1.13084 36.912L1.13174 36.9139L1.13435 36.9193L1.1428 36.9367C1.14988 36.9512 1.15985 36.9713 1.17273 36.9967C1.19849 37.0476 1.2359 37.1196 1.28506 37.2099C1.38334 37.3902 1.52892 37.6438 1.72269 37.9462C2.1094 38.5499 2.69251 39.3551 3.48021 40.1623C5.0531 41.7742 7.48816 43.4376 10.8237 43.4376C14.6733 43.4376 17.2894 41.8043 18.9315 40.1698C19.7485 39.3564 20.3243 38.5439 20.697 37.9327C20.8837 37.6267 21.0204 37.3695 21.1117 37.1859C21.1573 37.094 21.1917 37.0204 21.2154 36.968C21.2272 36.9418 21.2364 36.9209 21.243 36.9057L21.2509 36.8872L21.2534 36.8812L21.2547 36.8782C21.2547 36.8782 21.2534 36.8812 21.255 36.8774L21.363 36.6156L12.2863 12.6558L22.0324 13.9066L22.0322 13.9471C22.0322 16.3305 23.9748 18.2627 26.371 18.2627C28.3651 18.2627 30.045 16.9247 30.5527 15.102L40.5726 16.3478L31.7575 40.8985L31.8239 41.123L31.8241 41.1238L31.8251 41.1271L31.827 41.1334L31.8329 41.1525C31.8379 41.1682 31.8447 41.1895 31.8537 41.2162C31.8715 41.2695 31.8977 41.3442 31.933 41.4372C32.0037 41.6231 32.1114 41.8829 32.2638 42.192C32.5678 42.8089 33.0535 43.6302 33.7832 44.4529C35.256 46.1132 37.7047 47.7532 41.5568 47.7532C45.07 47.7532 47.4235 46.093 48.8784 44.4529C49.6026 43.6365 50.1079 42.8223 50.4328 42.2119C50.5956 41.906 50.7142 41.6492 50.7931 41.4661C50.8326 41.3745 50.8622 41.3011 50.8825 41.2491C50.8927 41.223 50.9005 41.2023 50.9061 41.1872L50.9129 41.169M50.9129 41.169L50.915 41.1631L50.9157 41.161L50.916 41.1602L50.9129 41.169ZM26.371 16.8242C27.9685 16.8242 29.2635 15.536 29.2635 13.9471C29.2635 12.3581 27.9685 11.0699 26.371 11.0699C24.7735 11.0699 23.4785 12.3581 23.4785 13.9471C23.4785 15.536 24.7735 16.8242 26.371 16.8242ZM2.82977 35.8851L11.1852 13.8291L19.5407 35.8851H2.82977ZM3.04035 37.3237C3.38571 37.8458 3.87749 38.504 4.51802 39.1604C5.92804 40.6054 8.01256 41.999 10.8237 41.999C14.2144 41.999 16.4795 40.5753 17.9084 39.1529C18.5672 38.4972 19.0483 37.8408 19.3754 37.3237H3.04035ZM41.5429 17.9226L33.5438 40.2008H49.222L41.5429 17.9226ZM33.6027 41.6394C33.8656 42.1588 34.2728 42.8306 34.8677 43.5011C36.1067 44.8978 38.1775 46.3147 41.5568 46.3147C44.5518 46.3147 46.537 44.918 47.7939 43.5011C48.3868 42.8327 48.8142 42.1624 49.1004 41.6394H33.6027Z" stroke="#003366"/>
</svg>
