<?xml version="1.0" encoding="utf-8"?>
<!-- Generator: Adobe Illustrator 22.0.1, SVG Export Plug-In . SVG Version: 6.00 Build 0)  -->
<svg version="1.1" id="Шар_1" xmlns="http://www.w3.org/2000/svg" xmlns:xlink="http://www.w3.org/1999/xlink" x="0px" y="0px"
	 viewBox="0 0 153 77.6" style="enable-background:new 0 0 153 77.6;" xml:space="preserve">
<style type="text/css">
	.st0{fill:#FFFFFF;}
	.st1{fill:#FF8300;}
</style>
<g>
	<g id="Group_6094" transform="translate(1212.45 191.012)">
		<path id="Path_3732" class="st0" d="M-1160.7-121.5c0.9-3.5,2-7.6,2.6-10h0c-1.4,3.6-4.7,11.7-7.3,17.7h-3.4
			c0.5-5.4,1.4-13.9,1.8-17.7h-0.1c-0.5,2.4-1.7,6.8-2.6,10.4l-1.7,7.3h-3.4l5.2-20.7h5.6c-0.6,6-1.1,11.3-1.5,14.3h0
			c1.1-2.9,4.1-9.9,6.1-14.3h5.5l-5.2,20.7h-3.6L-1160.7-121.5z"/>
		<path id="Path_3733" class="st0" d="M-1140.8-128.8l-2.4,9.7c-0.9,3.5-2.2,5.6-6.7,5.6c-4.3,0-5.6-2.4-4.7-6l2.5-10.2
			c0.8-3.5,3-5.2,6.4-5.2C-1141.7-134.8-1139.8-132.6-1140.8-128.8z M-1148.3-129.6l-2.6,10.7c-0.4,1.5-0.2,2.7,1.5,2.7
			c1.4,0,2-1,2.4-2.6l2.7-10.7c0.4-1.5,0-2.6-1.6-2.6C-1147.2-132.1-1147.9-131.2-1148.3-129.6L-1148.3-129.6z"/>
		<path id="Path_3734" class="st0" d="M-1134.4-134.5l-0.8,8.3c-0.3,2.8-0.7,6.9-1,9h0.1c0.8-2.2,2.3-6,3.5-9l3.3-8.4h3.9l-9.2,20.7
			h-4.6l1.1-20.7H-1134.4z"/>
		<path id="Path_3735" class="st0" d="M-1119.8-134.5l-5.2,20.7h-3.7l5.5-20.7H-1119.8z"/>
		<path id="Path_3736" class="st0" d="M-1121.7-113.8l5.2-20.7h4.3l0.4,10.5c0,1.7,0.1,3,0,3.9h0c0.5-2.7,1.1-5.6,2-9l1.3-5.4h3.5
			l-5.2,20.7h-4.2l-0.3-10.2c-0.1-1.5-0.1-3.8-0.1-4.5h0c-0.5,2.5-1.1,5.3-2,9l-1.4,5.7H-1121.7z"/>
		<path id="Path_3737" class="st0" d="M-1095.1-116.7c0,0.1-0.6,2.3-0.8,3h-3c0-0.5,0.1-1,0.3-1.6c-0.9,1.2-2.3,1.9-3.8,1.9
			c-3.7,0-4.2-2.7-3.4-6.1l2.4-9.5c0.8-3.4,2.2-5.7,6.5-5.7c5.1,0.1,5.3,3.3,4.7,5.5l-0.1,0.5h-3.8l0.1-0.7c0.3-1.4,0.3-2.6-1.3-2.6
			c-1.2,0-1.8,0.6-2.4,2.8l-2.5,10c-0.5,1.9-0.4,3.1,1.2,3.1c1.6,0,2.2-1.2,2.8-3.7l0.6-2.6h-2.2l0.7-2.7h5.9L-1095.1-116.7z"/>
	</g>
	<path class="st0" d="M83.1,19.8C70.8,1.7,47.3-5,27.2,3.8c-23,10.1-33.5,37-23.4,60l21-29l4.3,4.3l17.6-25.5l12.6,14.7l4.9-6.6
		l5.2,6.1h18.1L83.1,19.8z"/>
	<path id="Path_3739" class="st0" d="M25.1,36.7"/>
	<path class="st1" d="M138.3,32.7L138.3,32.7l-82.3,0c-2.2,0-4.1,1.4-4.7,3.5l-2.4,8.3h-9.4c-2.2,0-4.3,0.6-6.1,1.9
		c-2.8,2.1-10.7,12-10.7,12c-0.7,1.3-1.1,2.7-1.2,4.2c0,2.2-0.5,6.8-0.5,6.8c-0.5,0.8-0.9,1.6-1.1,2.5v5.6H31l6.6-21.5
		c0.5-1.8,2.2-2.9,4-2.8l94.3-0.4c0.5,0,0.8,0,1-0.1h0.3c5.9,0,5.8-5.3,5.8-5.3h-8.2l0-0.1c0.4-2.3,5.1-1.9,5.1-1.9l0.4,0h1.1
		c2.9,0.3,5.5-1.9,5.8-4.8c0-0.2,0-0.4,0-0.6h-10.2c0.6-1.9,4.3-1.9,4.3-1.9h5.4c3.2,0.2,6-2.2,6.4-5.4H138.3z"/>
	<g id="Group_6096" transform="translate(1228.81 171.144)">
		<g id="Group_6095">
			<path id="Path_3741" class="st0" d="M-1171.5-134.6h2.9c2.5,0,3.6,1.3,3,3.4l-0.2,0.9c-0.5,2-1.5,3.1-4.4,3.1h-0.9l-1.4,5.5h-2.3
				L-1171.5-134.6z M-1170.7-128.8h0.8c1.3,0,1.6-0.5,1.9-1.6l0.2-0.7c0.3-1,0.3-1.8-1-1.8h-0.7L-1170.7-128.8z"/>
			<path id="Path_3742" class="st0" d="M-1164.1-125.2l-1.4,3.5h-2.4c0.2-0.5,5.3-12.3,5.5-12.9h3.4l-0.8,12.9h-2.3l0.3-3.5H-1164.1
				z M-1161.7-127c0.2-2,0.4-4.4,0.5-5.8h-0.1c-0.3,1.1-1.3,3.8-2.1,5.8H-1161.7z"/>
			<path id="Path_3743" class="st0" d="M-1155.4-134.6h2.9c2.4,0,3.5,1.1,3,3.3l-0.2,0.7c-0.4,1.7-1.2,2.2-2.1,2.4
				c0.6,0.4,1.1,1,0.6,2.9c-0.3,1.2-0.6,2.3-0.7,3.5h-2.3c0.2-1.3,0.5-2.6,0.8-3.9c0.3-1.3,0.2-1.8-1-1.8h-0.6l-1.4,5.7h-2.3
				L-1155.4-134.6z M-1154.5-129.1h0.5c1.3,0,1.8-0.3,2.1-1.7l0.1-0.7c0.2-1,0.1-1.5-1.1-1.5h-0.6L-1154.5-129.1z"/>
			<path id="Path_3744" class="st0" d="M-1147-125.2l-1.4,3.5h-2.4c0.2-0.5,5.3-12.3,5.5-12.9h3.4l-0.8,12.9h-2.3l0.3-3.5H-1147z
				 M-1144.5-127c0.2-2,0.4-4.4,0.5-5.8h-0.1c-0.3,1.1-1.3,3.8-2.1,5.8H-1144.5z"/>
			<path id="Path_3745" class="st0" d="M-1132.7-126.5c0.6-2.2,1.2-4.7,1.6-6.2h0c-0.9,2.2-2.9,7.3-4.5,11h-2.1
				c0.3-3.4,0.9-8.7,1.1-11h0c-0.3,1.5-1.1,4.2-1.6,6.4l-1.1,4.6h-2.1l3.2-12.9h3.5c-0.4,3.7-0.7,7-0.9,8.9h0
				c0.7-1.8,2.5-6.1,3.8-8.9h3.4l-3.2,12.9h-2.2L-1132.7-126.5z"/>
			<path id="Path_3746" class="st0" d="M-1120.4-131.1l-1.5,6c-0.5,2.2-1.4,3.5-4.1,3.5c-2.7,0-3.5-1.5-2.9-3.7l1.5-6.3
				c0.3-2,2-3.4,4-3.2C-1121-134.8-1119.8-133.4-1120.4-131.1z M-1125.1-131.6l-1.6,6.7c-0.2,0.9-0.1,1.7,0.9,1.7
				c0.9,0,1.3-0.6,1.5-1.6l1.7-6.6c0.2-0.9,0-1.6-1-1.6C-1124.4-133.1-1124.8-132.6-1125.1-131.6L-1125.1-131.6z"/>
			<path id="Path_3747" class="st0" d="M-1115.5-134.6l-2.4,9.8c-0.2,0.9,0,1.4,0.9,1.4c1,0,1.3-0.6,1.5-1.4l2.4-9.8h2.3l-2.4,9.6
				c-0.5,2-1.2,3.4-4.1,3.4c-2.5,0-3.5-1.1-2.9-3.4l2.4-9.7L-1115.5-134.6z"/>
			<path id="Path_3748" class="st0" d="M-1112-121.7l3.2-12.9h2.7l0.2,6.5c0,1.1,0,1.9,0,2.4h0c0.3-1.7,0.7-3.5,1.2-5.6l0.8-3.4h2.2
				l-3.2,12.9h-2.6l-0.2-6.4c0-0.9-0.1-2.4-0.1-2.8h0c-0.3,1.6-0.7,3.3-1.2,5.6l-0.9,3.5L-1112-121.7z"/>
			<path id="Path_3749" class="st0" d="M-1098.7-132.8h-2.3l0.5-1.8h6.9l-0.5,1.8h-2.3l-2.8,11h-2.3L-1098.7-132.8z"/>
		</g>
	</g>
	<path id="Path_3750" class="st0" d="M46.2,17.3l-13.7,20l15-18.2L46.2,17.3z"/>
	<path id="Path_3751" class="st0" d="M24.4,37.7l-8,11.6l9.1-10.5L24.4,37.7z"/>
</g>
</svg>
