<?xml version="1.0" encoding="utf-8"?>
<!-- Generator: Adobe Illustrator 22.0.1, SVG Export Plug-In . SVG Version: 6.00 Build 0)  -->
<svg version="1.1" id="Шар_1" xmlns="http://www.w3.org/2000/svg" xmlns:xlink="http://www.w3.org/1999/xlink" x="0px" y="0px"
	 viewBox="0 0 153.2 77.7" style="enable-background:new 0 0 153.2 77.7;" xml:space="preserve">
<style type="text/css">
	.st0{fill:url(#Path_3669_1_);}
	.st1{fill:url(#Path_3670_1_);}
	.st2{fill:url(#Path_3671_1_);}
	.st3{fill:url(#Path_3672_1_);}
	.st4{fill:url(#Path_3673_1_);}
	.st5{fill:url(#Path_3674_1_);}
	.st6{fill:url(#SVGID_1_);}
	.st7{fill:#FFFFFF;}
	.st8{fill:#FF8300;}
	.st9{fill:#CBCBCB;}
</style>
<g>
	
		<linearGradient id="Path_3669_1_" gradientUnits="userSpaceOnUse" x1="-652.8079" y1="24.9023" x2="-652.8079" y2="25.7833" gradientTransform="matrix(20.984 0 0 20.741 13746.7705 -459.3726)">
		<stop  offset="1.000000e-02" style="stop-color:#4A4A4A"/>
		<stop  offset="1" style="stop-color:#000000"/>
	</linearGradient>
	<path id="Path_3669" class="st0" d="M51.9,69.6c0.9-3.5,2-7.6,2.6-10l0,0c-1.4,3.6-4.8,11.7-7.3,17.7h-3.4c0.5-5.4,1.4-14,1.8-17.8
		h-0.1c-0.5,2.4-1.7,6.8-2.6,10.4l-1.7,7.4h-3.4L43,56.6h5.6c-0.6,6-1.1,11.4-1.5,14.3l0,0c1.1-2.9,4.1-9.9,6.1-14.3h5.5l-5.2,20.7
		h-3.6L51.9,69.6z"/>
	
		<linearGradient id="Path_3670_1_" gradientUnits="userSpaceOnUse" x1="-637.6023" y1="24.1964" x2="-637.6023" y2="25.0514" gradientTransform="matrix(14.3222 0 0 21.359 9196.7373 -459.6786)">
		<stop  offset="1.000000e-02" style="stop-color:#4A4A4A"/>
		<stop  offset="1" style="stop-color:#000000"/>
	</linearGradient>
	<path id="Path_3670" class="st1" d="M71.8,62.3L69.4,72c-0.9,3.5-2.2,5.7-6.7,5.7c-4.4,0-5.6-2.4-4.7-6l2.5-10.2
		c0.8-3.5,3-5.2,6.4-5.2C70.8,56.3,72.7,58.5,71.8,62.3z M64.2,61.5l-2.6,10.7c-0.4,1.5-0.2,2.7,1.5,2.7c1.4,0,2-1,2.4-2.6l2.7-10.7
		c0.4-1.5,0-2.6-1.6-2.6C65.3,59.1,64.6,59.9,64.2,61.5L64.2,61.5z"/>
	
		<linearGradient id="Path_3671_1_" gradientUnits="userSpaceOnUse" x1="-635.8508" y1="24.9035" x2="-635.8508" y2="25.7844" gradientTransform="matrix(13.817 0 0 20.74 8865.8506 -459.3651)">
		<stop  offset="1.000000e-02" style="stop-color:#4A4A4A"/>
		<stop  offset="1" style="stop-color:#000000"/>
	</linearGradient>
	<path id="Path_3671" class="st2" d="M78.2,56.6l-0.8,8.3c-0.3,2.8-0.7,7-1,9h0.1c0.8-2.2,2.3-6.1,3.5-9l3.3-8.4h3.9L78,77.4h-4.6
		l1.1-20.7L78.2,56.6z"/>
	
		<linearGradient id="Path_3672_1_" gradientUnits="userSpaceOnUse" x1="-608.7372" y1="24.9035" x2="-608.7372" y2="25.7845" gradientTransform="matrix(8.937 0 0 20.74 5528.6348 -459.37)">
		<stop  offset="1.000000e-02" style="stop-color:#4A4A4A"/>
		<stop  offset="1" style="stop-color:#000000"/>
	</linearGradient>
	<path id="Path_3672" class="st3" d="M92.8,56.6l-5.2,20.7h-3.7l5.5-20.7C89.4,56.6,92.8,56.6,92.8,56.6z"/>
	
		<linearGradient id="Path_3673_1_" gradientUnits="userSpaceOnUse" x1="-644.6971" y1="24.8951" x2="-644.6971" y2="25.776" gradientTransform="matrix(16.814 0 0 20.747 10939.2871 -459.3593)">
		<stop  offset="1.000000e-02" style="stop-color:#4A4A4A"/>
		<stop  offset="1" style="stop-color:#000000"/>
	</linearGradient>
	<path id="Path_3673" class="st4" d="M90.9,77.4l5.2-20.7h4.4l0.4,10.5c0,1.7,0.1,3,0,3.9l0,0c0.5-2.7,1.1-5.6,2-9l1.4-5.4h3.5
		l-5.2,20.7h-4.2l-0.3-10.2C98,65.7,98,63.4,98,62.7l0,0c-0.5,2.5-1.1,5.3-2,9l-1.4,5.7L90.9,77.4z"/>
	
		<linearGradient id="Path_3674_1_" gradientUnits="userSpaceOnUse" x1="-637.2668" y1="24.1905" x2="-637.2668" y2="25.0455" gradientTransform="matrix(14.2215 0 0 21.3642 9176.4688 -459.6693)">
		<stop  offset="1.000000e-02" style="stop-color:#4A4A4A"/>
		<stop  offset="1" style="stop-color:#000000"/>
	</linearGradient>
	<path id="Path_3674" class="st5" d="M117.5,74.4c0,0.1-0.6,2.3-0.8,3h-3c0-0.5,0.1-1,0.3-1.6c-0.9,1.2-2.3,1.9-3.8,1.9
		c-3.7,0-4.2-2.7-3.4-6.1l2.4-9.6c0.8-3.4,2.2-5.7,6.5-5.7c5.1,0.1,5.3,3.4,4.8,5.5l-0.1,0.5h-3.8l0.1-0.7c0.3-1.4,0.3-2.6-1.3-2.6
		c-1.2,0-1.8,0.6-2.4,2.8l-2.5,10.1c-0.5,1.9-0.4,3.1,1.2,3.1s2.2-1.2,2.9-3.8l0.6-2.6H113l0.7-2.7h5.9L117.5,74.4z"/>
	<linearGradient id="SVGID_1_" gradientUnits="userSpaceOnUse" x1="31.4491" y1="0.4561" x2="42.199" y2="34.8439">
		<stop  offset="1.000000e-02" style="stop-color:#4A4A4A"/>
		<stop  offset="1" style="stop-color:#000000"/>
	</linearGradient>
	<path class="st6" d="M83.3,19.8C70.9,1.7,47.4-5,27.3,3.8C4.2,14-6.3,40.9,3.8,64l21.1-29.1l4.3,4.3l17.7-25.6l12.7,14.7l4.9-6.6
		l5.2,6.1h18.1L83.3,19.8z"/>
	<path id="Path_3676" class="st7" d="M25.1,36.8"/>
	<g>
		<path class="st8" d="M76,38.2h-0.6l-1,3.9h0.5c1.3,0,1.8-0.3,2.1-1.7l0.1-0.7C77.4,38.8,77.2,38.2,76,38.2z"/>
		<path class="st8" d="M84.4,44.2c0.2-2,0.4-4.4,0.5-5.8h-0.1c-0.3,1.1-1.3,3.8-2.1,5.8H84.4z"/>
		<path class="st8" d="M67.3,44.2c0.2-2,0.4-4.4,0.5-5.8h-0.1c-0.3,1.1-1.3,3.8-2.1,5.8H67.3z"/>
		<path class="st8" d="M105.4,38.1c-0.8,0-1.2,0.5-1.5,1.5l0,0l-1.6,6.7c-0.2,0.9-0.1,1.7,0.9,1.7c0.9,0,1.3-0.6,1.5-1.6l1.7-6.6
			C106.6,38.8,106.4,38.1,105.4,38.1z"/>
		<path class="st8" d="M60,38.2h-0.7l-1,4.1H59c1.3,0,1.6-0.5,1.9-1.6l0.2-0.7C61.3,39.1,61.3,38.2,60,38.2z"/>
		<path class="st8" d="M138.5,32.8L138.5,32.8H56c-2.2,0-4.1,1.4-4.7,3.5l-2.4,8.3h-9.4c-2.2,0-4.3,0.6-6.1,1.9
			c-2.8,2.1-10.8,12.1-10.8,12.1c-0.7,1.3-1.1,2.7-1.2,4.2c0,2.2-0.5,6.8-0.5,6.8c-0.5,0.8-0.9,1.6-1.1,2.5v5.6H31L37.6,56
			c0.5-1.8,2.2-2.9,4-2.8l94.4-0.4c0.5,0,0.8,0,1-0.1h0.3c5.9,0,5.8-5.3,5.8-5.3H135v-0.1c0.4-2.3,5.1-1.9,5.1-1.9h0.4h1.1
			c2.9,0.3,5.5-1.9,5.8-4.8c0-0.2,0-0.4,0-0.6h-10.3c0.6-1.9,4.3-1.9,4.3-1.9h5.4c3.2,0.2,6-2.2,6.4-5.4L138.5,32.8L138.5,32.8z
			 M57.8,44l-1.4,5.5h-2.3l3.2-12.9h2.9c2.5,0,3.6,1.3,3,3.4L63,40.9c-0.5,2-1.5,3.1-4.4,3.1H57.8z M69.1,49.5h-2.3l0.3-3.5h-2.3
			l-1.4,3.5H61c0.2-0.5,5.3-12.3,5.5-12.9H70L69.1,49.5z M77.8,45.9c-0.3,1.2-0.6,2.3-0.8,3.5h-2.3c0.2-1.3,0.5-2.6,0.8-3.9
			c0.3-1.4,0.2-1.8-1-1.8H74l-1.4,5.7h-2.3l3.2-12.9h2.9c2.4,0,3.5,1.1,3,3.3l-0.2,0.7c-0.4,1.7-1.2,2.2-2.1,2.4
			C77.8,43.4,78.3,44,77.8,45.9z M86.3,49.5H84l0.3-3.5H82l-1.4,3.5h-2.4c0.2-0.5,5.3-12.3,5.5-12.9h3.4L86.3,49.5z M95,49.5
			l1.2-4.8c0.6-2.2,1.2-4.7,1.6-6.2l0,0c-0.9,2.2-3,7.3-4.5,11h-2.1c0.3-3.4,0.9-8.7,1.1-11l0,0C92,40,91.2,42.7,90.7,45l-1.1,4.6
			h-2.1l3.2-12.9h3.5c-0.4,3.7-0.7,7.1-0.9,8.9l0,0c0.7-1.8,2.5-6.1,3.8-8.9h3.4l-3.2,12.9L95,49.5L95,49.5z M107.1,46.2
			c-0.5,2.2-1.4,3.5-4.2,3.5c-2.7,0-3.5-1.5-2.9-3.7l1.5-6.3c0.3-2,2-3.4,4-3.2c2.4,0,3.6,1.4,3,3.7L107.1,46.2z M111.8,49.6
			c-2.5,0-3.5-1.1-3-3.4l2.4-9.7h2.3l-2.5,9.8c-0.2,0.9,0,1.4,0.9,1.4c1,0,1.3-0.6,1.5-1.4l2.5-9.8h2.3l-2.4,9.7
			C115.3,48.3,114.6,49.6,111.8,49.6z M124.2,49.5h-2.6l-0.2-6.4c0-0.9-0.1-2.4-0.1-2.8l0,0c-0.3,1.6-0.7,3.3-1.2,5.6l-0.9,3.5H117
			l3.2-12.9h2.7l0.2,6.5c0,1.1,0,1.9,0,2.4l0,0c0.3-1.7,0.7-3.5,1.2-5.6l0.8-3.4h2.2L124.2,49.5z M135,38.4h-2.3l-2.8,11.1h-2.3
			l2.8-11.1H128l0.5-1.8h6.9L135,38.4z"/>
	</g>
	<path id="Path_3687" class="st9" d="M46.3,17.3l-13.7,20l15-18.2L46.3,17.3z"/>
	<path id="Path_3688" class="st9" d="M24.4,37.8l-8,11.6l9.1-10.5L24.4,37.8z"/>
</g>
</svg>
