<?xml version="1.0" encoding="utf-8"?>
<!-- Generator: Adobe Illustrator 23.0.0, SVG Export Plug-In . SVG Version: 6.00 Build 0)  -->
<!DOCTYPE svg PUBLIC "-//W3C//DTD SVG 1.0//EN" "http://www.w3.org/TR/2001/REC-SVG-20010904/DTD/svg10.dtd" [
	<!ENTITY st0 "fill-rule:evenodd;clip-rule:evenodd;fill:#4A74B3;">
]>
<svg version="1.0" id="Слой_1" xmlns="http://www.w3.org/2000/svg" xmlns:xlink="http://www.w3.org/1999/xlink" x="0px" y="0px"
	 viewBox="0 0 28 28" style="enable-background:new 0 0 28 28;" xml:space="preserve">
<path id="mail" style="&st0;" d="M14,14.8c-1.463,0-9-6.487-9-6.487V7.6C5,6.717,5.671,6,6.5,6h15C22.329,6,23,6.717,23,7.6
	l-0.012,0.8C22.988,8.4,15.533,14.8,14,14.8z M14,17c1.604,0,8.988-6.2,8.988-6.2L23,20.4c0,0.883-0.671,1.6-1.5,1.6h-15
	C5.672,22,5,21.283,5,20.4l0.012-9.6C5.011,10.8,12.537,17,14,17z"/>
</svg>
