<?xml version="1.0" encoding="utf-8"?>
<!-- Generator: Adobe Illustrator 23.0.0, SVG Export Plug-In . SVG Version: 6.00 Build 0)  -->
<!DOCTYPE svg PUBLIC "-//W3C//DTD SVG 1.0//EN" "http://www.w3.org/TR/2001/REC-SVG-20010904/DTD/svg10.dtd" [
	<!ENTITY st0 "fill:#4A74B3;">
]>
<svg version="1.0" id="Слой_1" xmlns="http://www.w3.org/2000/svg" xmlns:xlink="http://www.w3.org/1999/xlink" x="0px" y="0px"
	 viewBox="0 0 28 28" style="enable-background:new 0 0 28 28;" xml:space="preserve">
<path id="phone" style="&st0;" d="M22.622,18.417c-0.303-0.466-0.772-1.009-1.324-1.529c-0.399-0.377-1.77-1.606-2.651-1.606
	c-0.283,0-0.462,0.114-0.563,0.209l-1.173,1.107c-0.02,0.019-0.083,0.04-0.196,0.04c-0.651,0-2.032-0.681-3.411-1.983
	c-1.839-1.738-2.282-3.194-2.057-3.407l1.172-1.107c0.101-0.095,0.222-0.265,0.222-0.531c0.001-0.833-1.302-2.127-1.701-2.504
	C10.542,6.729,9.172,5.5,8.29,5.5c-0.282,0-0.461,0.113-0.563,0.209L5.381,7.925c-0.693,0.654-0.44,1.933,0.752,3.801
	c1.034,1.621,2.671,3.522,4.608,5.351c3.435,3.244,6.914,5.424,8.656,5.423c0.434,0,0.782-0.122,1.036-0.362l2.346-2.216
	C23.286,19.443,22.786,18.671,22.622,18.417z"/>
</svg>
