<svg width="27" height="33" viewBox="0 0 27 33" fill="none" xmlns="http://www.w3.org/2000/svg">
<path d="M0.5 2.55546C0.5 1.26633 2.01868 0.577706 2.98838 1.42714L11.8527 9.19208C12.7956 10.018 14.2044 10.018 15.1473 9.19208L24.0116 1.42714C24.9813 0.577706 26.5 1.26633 26.5 2.55546V28C26.5 30.4853 24.4853 32.5 22 32.5H5C2.51472 32.5 0.5 30.4853 0.5 28V2.55546Z" fill="#1F1C1C" stroke="#F8E71C"/>
<path fill-rule="evenodd" clip-rule="evenodd" d="M18.5591 19.2874C18.5667 19.2585 18.5689 19.2293 18.5672 19.2007C18.8189 19.1166 19 18.89 19 18.6236C19 18.2859 18.7095 18.0111 18.3523 18.0111C17.9952 18.0111 17.7047 18.2859 17.7047 18.6236C17.7047 18.8161 17.7993 18.988 17.9466 19.1003L17.0918 19.9088C16.8743 20.1145 16.5851 20.2278 16.2775 20.2278C15.9161 20.2278 15.5712 20.0643 15.3549 19.7905L13.9689 18.0364L13.9678 18.035C14.0789 17.925 14.1477 17.7763 14.1477 17.6125C14.1477 17.2748 13.8571 17 13.5 17C13.1429 17 12.8523 17.2748 12.8523 17.6125C12.8523 17.7814 12.925 17.9345 13.0422 18.0453L11.6462 19.7947C11.4298 20.0659 11.0862 20.2277 10.7258 20.2277C10.421 20.2277 10.1231 20.1105 9.90837 19.9059L9.05888 19.0964C9.20317 18.984 9.29533 18.8138 9.29533 18.6236C9.29533 18.2859 9.0048 18.0111 8.64766 18.0111C8.29052 18.0111 8 18.2859 8 18.6236C8 18.8973 8.19093 19.1296 8.45341 19.2078C8.45143 19.2372 8.45369 19.2671 8.46151 19.2969L9.14001 21.8732C9.17422 22.0032 9.29763 22.0944 9.43925 22.0944H13.5103H13.5119L17.5829 22.075C17.7238 22.0743 17.8463 21.9834 17.8805 21.8541L18.5591 19.2874ZM17.5059 22.7167C17.6763 22.7167 17.8143 22.8473 17.8143 23.0083V23.7083C17.8143 23.8694 17.6763 24 17.5059 24H9.52836C9.35804 24 9.21995 23.8694 9.21995 23.7083V23.0083C9.21995 22.8473 9.35804 22.7167 9.52836 22.7167H17.5059Z" fill="#F8E71C"/>
</svg>
