<?xml version="1.0" encoding="utf-8"?>
<!-- Generator: Adobe Illustrator 23.0.5, SVG Export Plug-In . SVG Version: 6.00 Build 0)  -->
<svg version="1.1" id="Layer_1" xmlns="http://www.w3.org/2000/svg" xmlns:xlink="http://www.w3.org/1999/xlink" x="0px" y="0px"
	 viewBox="0 0 512 512" style="enable-background:new 0 0 512 512;" xml:space="preserve">
<style type="text/css">
	.st0{fill:#FFFDFD;}
</style>
<g>
	<g>
		<g>
			<path class="st0" d="M280,31.6c-9.8,0-18.5,4.4-24.3,11.3c-5.8-6.5-14.3-10.6-23.7-10.6H0v407.9h232c8.9,0,16.2,7.2,16.2,16.2
				h15.7v-0.8c0-8.9,7.2-16.2,16.2-16.2h232V31.6H280z M248.1,429c-4.7-2.8-10.3-4.4-16.2-4.4H15.7V48.1H232
				c8.9,0,16.2,7.2,16.2,16.2V429z M496.3,423.9L496.3,423.9H280c-5.9,0-11.4,1.6-16.2,4.4v-364v-0.8c0-8.9,7.2-16.2,16.2-16.2
				h216.3L496.3,423.9L496.3,423.9z"/>
			<rect x="248" y="464.6" class="st0" width="16" height="15.7"/>
			<rect x="47.9" y="88.4" class="st0" width="168.1" height="15.7"/>
			<rect x="47.9" y="128.4" class="st0" width="168.1" height="15.7"/>
			<rect x="47.9" y="168.5" class="st0" width="168.1" height="15.7"/>
			<rect x="47.9" y="208.5" class="st0" width="168.1" height="15.7"/>
			<rect x="47.9" y="248.5" class="st0" width="168.1" height="15.7"/>
			<rect x="47.9" y="288.5" class="st0" width="168.1" height="15.7"/>
			<rect x="47.9" y="328.6" class="st0" width="168.1" height="15.7"/>
			<rect x="47.9" y="368.6" class="st0" width="168.1" height="15.7"/>
			<rect x="296" y="88.4" class="st0" width="168.1" height="15.7"/>
			<rect x="296" y="128.4" class="st0" width="168.1" height="15.7"/>
			<rect x="296" y="168.5" class="st0" width="168.1" height="15.7"/>
			<rect x="296" y="208.5" class="st0" width="168.1" height="15.7"/>
			<rect x="296" y="248.5" class="st0" width="168.1" height="15.7"/>
			<rect x="296" y="288.5" class="st0" width="168.1" height="15.7"/>
			<rect x="296" y="328.6" class="st0" width="168.1" height="15.7"/>
			<rect x="296" y="368.6" class="st0" width="168.1" height="15.7"/>
		</g>
	</g>
</g>
</svg>
