<?xml version="1.0" encoding="utf-8"?>
<!-- Generator: Adobe Illustrator 23.0.5, SVG Export Plug-In . SVG Version: 6.00 Build 0)  -->
<svg version="1.1" id="Layer_1" xmlns="http://www.w3.org/2000/svg" xmlns:xlink="http://www.w3.org/1999/xlink" x="0px" y="0px"
	 viewBox="0 0 463 463" style="enable-background:new 0 0 463 463;" xml:space="preserve">
<style type="text/css">
	.st0{fill:#FFFFFF;}
</style>
<g>
	<g>
		<g>
			<path class="st0" d="M439.5,96h-416C10.5,96,0,106.5,0,119.5v224c0,13,10.5,23.5,23.5,23.5h416c13,0,23.5-10.5,23.5-23.5v-224
				C463,106.5,452.5,96,439.5,96z M448,343.5c0,4.7-3.8,8.5-8.5,8.5h-416c-4.7,0-8.5-3.8-8.5-8.5v-224c0-4.7,3.8-8.5,8.5-8.5h416
				c4.7,0,8.5,3.8,8.5,8.5V343.5z"/>
			<path class="st0" d="M111.5,144c-4.1,0-7.5,3.4-7.5,7.5V184h-9v-32.5c0-4.1-3.4-7.5-7.5-7.5s-7.5,3.4-7.5,7.5V184h-9v-32.5
				c0-4.1-3.4-7.5-7.5-7.5s-7.5,3.4-7.5,7.5v48c0,13,10.5,23.5,23.5,23.5H80v88.5c0,4.1,3.4,7.5,7.5,7.5s7.5-3.4,7.5-7.5V223h0.5
				c13,0,23.5-10.5,23.5-23.5v-48C119,147.4,115.6,144,111.5,144z M104,199.5c0,4.7-3.8,8.5-8.5,8.5h-16c-4.7,0-8.5-3.8-8.5-8.5V199
				h33V199.5z"/>
			<path class="st0" d="M168,157.8c-1.1-7.9-8-13.8-15.9-13.8c-8.9,0-16.1,7.2-16.1,16.1v151.4c0,4.1,3.4,7.5,7.5,7.5
				s7.5-3.4,7.5-7.5V271h15.3c4.5,0,8.8-1.9,11.7-5.3c2.9-3.4,4.3-7.9,3.6-12.3L168,157.8z M166.7,255.8c-0.1,0.2-0.3,0.2-0.4,0.2
				H151v-95.9c0-0.6,0.5-1.1,1.1-1.1c0.5,0,1,0.4,1,0.9l13.6,95.5C166.8,255.5,166.8,255.7,166.7,255.8z"/>
			<path class="st0" d="M383.5,144h-136c-13,0-23.5,10.5-23.5,23.5s10.5,23.5,23.5,23.5h136c13,0,23.5-10.5,23.5-23.5
				S396.5,144,383.5,144z M383.5,176h-136c-4.7,0-8.5-3.8-8.5-8.5s3.8-8.5,8.5-8.5h136c4.7,0,8.5,3.8,8.5,8.5
				C392,172.2,388.2,176,383.5,176z"/>
			<path class="st0" d="M399.5,208h-168c-4.1,0-7.5,3.4-7.5,7.5s3.4,7.5,7.5,7.5h168c4.1,0,7.5-3.4,7.5-7.5S403.6,208,399.5,208z"/>
			<path class="st0" d="M359.5,240h-80c-4.1,0-7.5,3.4-7.5,7.5s3.4,7.5,7.5,7.5h80c4.1,0,7.5-3.4,7.5-7.5S363.6,240,359.5,240z"/>
			<path class="st0" d="M359.5,304h-80c-4.1,0-7.5,3.4-7.5,7.5s3.4,7.5,7.5,7.5h80c4.1,0,7.5-3.4,7.5-7.5S363.6,304,359.5,304z"/>
			<path class="st0" d="M359.5,272h-80c-4.1,0-7.5,3.4-7.5,7.5s3.4,7.5,7.5,7.5h80c4.1,0,7.5-3.4,7.5-7.5S363.6,272,359.5,272z"/>
			<path class="st0" d="M247.5,240h-16c-4.1,0-7.5,3.4-7.5,7.5s3.4,7.5,7.5,7.5h16c4.1,0,7.5-3.4,7.5-7.5S251.6,240,247.5,240z"/>
			<path class="st0" d="M247.5,272h-16c-4.1,0-7.5,3.4-7.5,7.5s3.4,7.5,7.5,7.5h16c4.1,0,7.5-3.4,7.5-7.5S251.6,272,247.5,272z"/>
			<path class="st0" d="M247.5,304h-16c-4.1,0-7.5,3.4-7.5,7.5s3.4,7.5,7.5,7.5h16c4.1,0,7.5-3.4,7.5-7.5S251.6,304,247.5,304z"/>
		</g>
	</g>
</g>
</svg>
