<svg xmlns="http://www.w3.org/2000/svg" width="23.648" height="35.994" viewBox="0 0 23.648 35.994">
  <path id="adress" d="M-3810.427,89.714s-2.03-3.053-6.415-9.86c-4.463-6.939-4.164-12.284-4.149-12.5a11.4,11.4,0,0,1,11.2-11.339V56l.1,0,.094,0v.011A11.41,11.41,0,0,1-3798.4,67.4c.01.173.309,5.517-4.155,12.457-4.343,6.739-6.609,9.855-6.629,9.887l-.625.865ZM-3819.47,67.4c0,.1-.262,5.15,3.913,11.633,2.995,4.658,4.888,7.552,5.785,8.911.94-1.338,2.922-4.223,5.943-8.911,4.17-6.483,3.912-11.533,3.912-11.58a9.9,9.9,0,0,0-9.775-9.918A9.877,9.877,0,0,0-3819.47,67.4Zm4.689.508a5.194,5.194,0,0,1,5.182-5.186,5.19,5.19,0,0,1,5.182,5.186,5.186,5.186,0,0,1-5.182,5.183A5.19,5.19,0,0,1-3814.781,67.905Zm1.521,0a3.665,3.665,0,0,0,3.661,3.662,3.664,3.664,0,0,0,3.661-3.662,3.664,3.664,0,0,0-3.661-3.661A3.664,3.664,0,0,0-3813.26,67.905Z" transform="translate(3821.521 -55.474)" fill="#ff8300" stroke="rgba(0,0,0,0)" stroke-miterlimit="10" stroke-width="1"/>
</svg>
