<svg xmlns="http://www.w3.org/2000/svg" width="35" height="29.557" viewBox="0 0 35 29.557">
  <path id="data" d="M-3818.014,85.557A2.99,2.99,0,0,1-3821,82.571V60.8a2.99,2.99,0,0,1,2.986-2.986h1.852V56.567a.567.567,0,0,1,.568-.567.567.567,0,0,1,.567.567v1.247h4.914V56.567a.566.566,0,0,1,.567-.567.567.567,0,0,1,.567.567v1.247h4.914V56.567A.567.567,0,0,1-3803.5,56a.566.566,0,0,1,.567.567v1.247h4.914V56.567a.567.567,0,0,1,.568-.567.567.567,0,0,1,.567.567v1.247h4.914V56.567a.567.567,0,0,1,.567-.567.567.567,0,0,1,.568.567v1.247h1.852A2.99,2.99,0,0,1-3786,60.8V82.571a2.99,2.99,0,0,1-2.986,2.986Zm-1.853-2.986a1.855,1.855,0,0,0,1.853,1.853h29.028a1.854,1.854,0,0,0,1.852-1.853V63.786h-3.379a2.514,2.514,0,0,1,.21,1.016V79.147a1.936,1.936,0,0,1-1.691,2.107h-23.013a1.935,1.935,0,0,1-1.69-2.107V64.8a2.514,2.514,0,0,1,.21-1.016h-3.38Zm23.234-2.662h4.638a.7.7,0,0,0,.612-.761v-2.2h-5.25Zm-6.329,0h5.25V76.951h-5.25Zm-6.328,0h5.25V76.951h-5.25Zm-6.329-.761a.7.7,0,0,0,.612.761h4.638V76.951h-5.25Zm18.986-3.541h5.25V72.647h-5.25Zm-6.329,0h5.25V72.647h-5.25Zm-6.328,0h5.25V72.647h-5.25Zm-6.329,0h5.25V72.647h-5.25Zm18.986-4.3h5.25V68.344h-5.25Zm-6.329,0h5.25V68.344h-5.25Zm-6.328,0h5.25V68.344h-5.25Zm-6.329,0h5.25V68.344h-5.25Zm18.986-4.3h5.25V64.8a.7.7,0,0,0-.612-.762h-4.638Zm-6.329,0h5.25V64.04h-5.25Zm-6.328,0h5.25V64.04h-5.25Zm-6.329-2.2V67h5.25V64.04h-4.638A.7.7,0,0,0-3815.618,64.8Zm-4.248-4v1.853h32.733V60.8a1.853,1.853,0,0,0-1.852-1.852h-1.852V60.2a.567.567,0,0,1-.568.567.567.567,0,0,1-.567-.567V58.948h-4.914V60.2a.567.567,0,0,1-.567.567.567.567,0,0,1-.568-.567V58.948h-4.914V60.2a.567.567,0,0,1-.567.567.567.567,0,0,1-.567-.567V58.948h-4.914V60.2a.567.567,0,0,1-.567.567.567.567,0,0,1-.567-.567V58.948h-4.914V60.2a.567.567,0,0,1-.567.567.567.567,0,0,1-.568-.567V58.948h-1.852A1.854,1.854,0,0,0-3819.867,60.8Z" transform="translate(3821 -56)"/>
</svg>
