<?xml version="1.0" encoding="utf-8"?>
<!-- Generator: Adobe Illustrator 22.0.1, SVG Export Plug-In . SVG Version: 6.00 Build 0)  -->
<svg version="1.1" id="Шар_1" xmlns="http://www.w3.org/2000/svg" xmlns:xlink="http://www.w3.org/1999/xlink" x="0px" y="0px"
	 viewBox="0 0 55 55" style="enable-background:new 0 0 55 55;" xml:space="preserve">
<path d="M51.7,36c-0.2,0-0.5,0-0.7,0.1c-4.1,1.1-8.2,1.9-12.4,2.3c-0.2,0-0.4,0-0.7,0c-2.8,0-7.2-0.5-8.1-0.9
	c-0.5-0.2-0.9-0.6-1.2-1h6.4c1.5,0.1,2.8-0.8,3.4-2.2h12.8c1.7,0,3-1.4,3-3v-23c0-1.7-1.4-3-3-3H24.7c-1.7,0-3,1.4-3,3v19.5
	c-2.8,0.1-6.6,0.9-9,2.9c-1,0.8-1.7,1.4-2.2,1.8c-0.4,0.3-0.7,0.5-1,0.8c-1.2,1-2.2,1.8-8.2,1.8c-0.7,0-1.3,0.6-1.3,1.3v12.3
	c0,0.7,0.6,1.3,1.3,1.3c0.1,0,0.3,0,0.4-0.1c5.1-1.8,6-2.1,8.2-2.7l0.2-0.1c0.2-0.1,0.4-0.1,0.5-0.2c1.1-0.4,2.2-0.6,3.3-0.6
	c2.4,0.1,4.7,0.4,7,0.9c6.2,1.2,9.1,1.8,11.7,1.8c1.5,0,3.1-0.2,4.6-0.4c5-1,9.9-2.6,14.6-4.9C53,43.1,55,42,55,39.8v-0.1
	C55,38,53.6,36,51.7,36z M35,7.7h5.9v10.7H35V7.7z M24.3,8.2c0-0.3,0.2-0.5,0.5-0.5c0,0,0,0,0,0h0h7.8v12c0,0.7,0.6,1.3,1.3,1.3h8.5
	c0.7,0,1.3-0.6,1.3-1.3v-12h7.8c0.3,0,0.5,0.2,0.5,0.5v23c0,0.3-0.2,0.5-0.5,0.5H38.5c-0.3-1.5-1.7-2.6-3.2-2.7
	c-1.5-0.1-4-0.4-6.3-0.7c-1.7-0.2-3.4-0.4-4.7-0.5V8.2z M52.4,39.8L52.4,39.8c0,0.5-0.4,0.9-1.8,1.6c-4.4,2.1-9,3.7-13.7,4.6
	c-1.4,0.2-2.8,0.4-4.3,0.4c-2.2,0-4.7-0.4-11.2-1.7c-2.5-0.6-5-0.9-7.5-1c-1.4,0-2.8,0.2-4.1,0.7c-0.2,0-0.3,0.1-0.5,0.2l-0.2,0.1
	c-2,0.6-2.9,0.9-6.6,2.2v-9.3c5.4-0.1,6.9-1,8.5-2.4c0.3-0.2,0.6-0.5,0.9-0.7c0.6-0.5,1.3-1,2.3-1.8c1.9-1.6,5.4-2.3,7.9-2.3
	c0.3,0,0.6,0,0.8,0c1.4,0.1,3.4,0.4,5.6,0.6c2.4,0.3,4.9,0.6,6.5,0.7c0.5,0,0.9,0.4,0.9,0.9c0,0.1,0,0.5,0,0.8c0,0.4-0.6,0.6-1,0.6
	H27c-0.7,0-1.2,0.5-1.3,1.2c0,2,1.1,3.8,2.9,4.6c1.7,0.9,7.3,1.2,9.2,1.2c0.3,0,0.6,0,0.8,0c4.3-0.4,8.6-1.2,12.8-2.4c0,0,0,0,0.1,0
	C52,38.5,52.4,39.1,52.4,39.8L52.4,39.8z"/>
</svg>
