<svg xmlns="http://www.w3.org/2000/svg" width="31.741" height="31.741" viewBox="0 0 31.741 31.741"><defs><style>.a{fill:#fff;}</style></defs><g transform="translate(-853.724 -3065.1)"><path class="a" d="M869.593,3084.146a3.17,3.17,0,1,0-3.177-3.177,3.18,3.18,0,0,0,3.177,3.177Zm0,0"/><path class="a" d="M876.531,3077.083v-3.059h-.4l-2.663.01.013,3.058Zm0,0"/><path class="a" d="M869.593,3065.1a15.87,15.87,0,1,0,15.872,15.869,15.888,15.888,0,0,0-15.872-15.869Zm9.026,14.018v7.391A3.491,3.491,0,0,1,875.13,3090H864.056a3.491,3.491,0,0,1-3.487-3.487v-11.074a3.49,3.49,0,0,1,3.487-3.489H875.13a3.49,3.49,0,0,1,3.489,3.489Zm0,0"/><path class="a" d="M874.531,3080.969a4.936,4.936,0,1,1-9.511-1.851h-2.693v7.391a1.726,1.726,0,0,0,1.729,1.727H875.13a1.727,1.727,0,0,0,1.729-1.727v-7.391h-2.694a4.938,4.938,0,0,1,.366,1.851Zm0,0"/></g></svg>