<svg xmlns="http://www.w3.org/2000/svg" width="29.917" height="22.438" viewBox="0 0 29.917 22.438">
  <path id="mail" d="M968.737,181.071h-24.3a2.81,2.81,0,0,0-2.806,2.806V200.7a2.81,2.81,0,0,0,2.806,2.806h24.3a2.809,2.809,0,0,0,2.806-2.806V183.877A2.809,2.809,0,0,0,968.737,181.071Zm0,1.872a.95.95,0,0,1,.362.073l-12.514,10.841-12.509-10.841a.907.907,0,0,1,.357-.073Zm0,18.693h-24.3a.932.932,0,0,1-.934-.934V184.989l12.472,10.81a.925.925,0,0,0,.614.231.915.915,0,0,0,.614-.231l12.472-10.81V200.7A.929.929,0,0,1,968.737,201.636Z" transform="translate(-941.626 -181.071)" fill="#ff8300"/>
</svg>
