<svg xmlns="http://www.w3.org/2000/svg" width="31.15" height="31.15" viewBox="0 0 31.15 31.15"><defs><style>.a{fill:#fff;}</style></defs><path class="a" d="M829.35,3064.943H804.438a3.124,3.124,0,0,0-3.119,3.119v24.912a3.124,3.124,0,0,0,3.119,3.119H829.35a3.123,3.123,0,0,0,3.119-3.119v-24.912a3.123,3.123,0,0,0-3.119-3.119Zm-6.228,14.016h-4.668v6.076c0,1.088.152,1.711,1.711,1.711h2.957v4.678s-1.559.152-3.268.152c-4.048,0-6.079-2.5-6.079-5.293v-7.324h-3.109V3074.6c3.734-.311,4.046-3.119,4.357-4.99h3.431v4.679h4.668Zm0,0" transform="translate(-801.319 -3064.943)"/></svg>