<?xml version="1.0" encoding="utf-8"?>
<!-- Generator: Adobe Illustrator 22.0.1, SVG Export Plug-In . SVG Version: 6.00 Build 0)  -->
<svg version="1.1" id="Шар_1" xmlns="http://www.w3.org/2000/svg" xmlns:xlink="http://www.w3.org/1999/xlink" x="0px" y="0px"
	 viewBox="0 0 30.5 30.5" style="enable-background:new 0 0 30.5 30.5;" xml:space="preserve">
<style type="text/css">
	.st0{fill:#FF8300;}
</style>
<g>
	<path class="st0" d="M15.2,2.3c7.1,0,12.9,5.8,12.9,12.9h0c0,0,0,0,0,0c0,0.5,0.4,0.9,0.9,0.9c0,0,0,0,0,0c0.5,0,0.9-0.4,0.9-0.9
		c0-3.9-1.5-7.7-4.3-10.4C22.9,2,19.2,0.5,15.2,0.5c-0.5,0-0.9,0.4-0.9,0.9C14.3,1.9,14.7,2.3,15.2,2.3z"/>
	<path class="st0" d="M15.2,6c5.1,0,9.2,4.1,9.2,9.2h0c0,0.5,0.4,0.9,0.9,0.9c0,0,0,0,0,0c0.5,0,0.9-0.4,0.9-0.9
		c0-6.1-5-11.1-11.1-11.1c-0.5,0-0.9,0.4-0.9,0.9C14.3,5.6,14.7,6,15.2,6z"/>
	<path class="st0" d="M15.2,9.7c3.1,0,5.5,2.5,5.5,5.5c0,0,0,0,0,0c0,0.5,0.4,0.9,0.9,0.9c0,0,0,0,0,0c0.5,0,0.9-0.4,0.9-0.9
		c0-4.1-3.3-7.4-7.4-7.4c-0.5,0-0.9,0.4-0.9,0.9c0,0,0,0,0,0C14.3,9.3,14.7,9.7,15.2,9.7z"/>
	<path class="st0" d="M29.3,20.8l-6.8-1.4c-0.3-0.1-0.6,0-0.8,0.2l-2.5,2.5c-4.6-2.3-8.4-6.1-10.8-10.8l2.5-2.5
		c0.2-0.2,0.3-0.5,0.2-0.8L9.7,1.2C9.6,0.8,9.3,0.5,8.8,0.5c-1.4,0-2.7,0.3-3.9,1C3.7,2.1,2.8,3,2,4C1.3,5.1,0.8,6.3,0.6,7.6
		C0.4,9,0.5,10.3,1,11.6c1.5,4.1,3.9,7.8,7,10.9c3.1,3.1,6.8,5.5,10.9,7c0.9,0.3,1.9,0.5,2.8,0.5c0.4,0,0.8,0,1.2-0.1
		c1.3-0.2,2.5-0.7,3.6-1.4c1.1-0.7,1.9-1.7,2.6-2.9c0.6-1.2,1-2.6,1-3.9C30,21.2,29.7,20.9,29.3,20.8z M25.4,27
		c-1.7,1.2-3.9,1.5-5.9,0.8c-7.8-2.8-13.9-9-16.8-16.8C2,9,2.3,6.8,3.5,5.1h0c1.1-1.5,2.7-2.5,4.6-2.7l1.2,5.5l-2.6,2.6
		c-0.3,0.3-0.3,0.7-0.2,1C9.1,17,13.5,21.4,19,24c0.4,0.2,0.8,0.1,1-0.2l2.6-2.6l5.5,1.2C27.9,24.3,26.9,25.9,25.4,27z"/>
</g>
</svg>
