<?xml version="1.0" encoding="utf-8"?>
<!-- Generator: Adobe Illustrator 22.0.1, SVG Export Plug-In . SVG Version: 6.00 Build 0)  -->
<svg version="1.1" id="Шар_1" xmlns="http://www.w3.org/2000/svg" xmlns:xlink="http://www.w3.org/1999/xlink" x="0px" y="0px"
	 viewBox="0 0 55 55" style="enable-background:new 0 0 55 55;" xml:space="preserve">
<g>
	<path d="M54,35.7h-1.1v-5.8c0-0.5-0.3-0.9-0.8-1L47.2,28l-0.7-6.2c-0.1-0.5-0.5-0.9-1-0.9H38v-8.8c0-0.5-0.4-1-1-1H1
		c-0.5,0-1,0.4-1,1v27c0,0.5,0.4,1,1,1h9.1c0.4,1.9,1.9,3.3,3.7,3.7c2.6,0.5,5.1-1.1,5.7-3.7h19.9c0.5,2.2,2.4,3.8,4.7,3.8
		c2.3,0,4.2-1.6,4.7-3.8h3.1c0.5,0,1-0.4,1-1v-1.4H54c0.5,0,1-0.4,1-1S54.6,35.7,54,35.7z M15,42.1c-1.7,0-3-1.3-3.1-3
		c0,0,0-0.1,0-0.1c0-1.6,1.3-3,3-3c1.7,0,3,1.3,3.1,3S16.7,42.1,15,42.1z M36.1,38.1H19.5c-0.5-2.2-2.4-3.8-4.7-3.8h0
		c-2.3,0-4.2,1.6-4.7,3.8H2v-25h34.1V38.1z M46.9,39.2c0,1.5-1.3,2.8-2.8,2.8c-1.6,0-2.8-1.3-2.8-2.8c0-1.6,1.3-2.8,2.8-2.8
		C45.7,36.2,46.9,37.5,46.9,39.2C46.9,39.1,46.9,39.1,46.9,39.2z M51,38.1h-2.2c-0.5-2.2-2.4-3.8-4.7-3.8h0c-2.3,0-4.2,1.6-4.7,3.8
		H38V22.9h6.7l0.7,6c0,0.4,0.4,0.8,0.8,0.9l4.8,0.9V38.1z"/>
	<path d="M23.5,23.8c-0.5,0-1,0.4-1,1V30h-7v-5.3c0-0.5-0.4-1-1-1s-1,0.4-1,1V31c0,0.5,0.4,1,1,1h8.9l0,0c0,0,0,0,0,0
		c0.5,0,1-0.4,1-1v-6.2C24.5,24.2,24,23.8,23.5,23.8z"/>
	<path d="M12,23.9l7-5.7l7,5.7c0.2,0.1,0.4,0.2,0.6,0.2l0,0c0.3,0,0.6-0.1,0.8-0.4c0.3-0.4,0.3-1-0.1-1.4l-7.6-6.1
		C19.5,16.1,19.3,16,19,16c-0.2,0-0.5,0.1-0.6,0.2l-7.6,6.1c-0.4,0.3-0.5,0.9-0.1,1.4C11,24.2,11.6,24.3,12,23.9z"/>
</g>
</svg>
