<?xml version="1.0" encoding="utf-8"?>
<!-- Generator: Adobe Illustrator 22.0.1, SVG Export Plug-In . SVG Version: 6.00 Build 0)  -->
<svg version="1.1" id="Шар_1" xmlns="http://www.w3.org/2000/svg" xmlns:xlink="http://www.w3.org/1999/xlink" x="0px" y="0px"
	 viewBox="0 0 55 55" style="enable-background:new 0 0 55 55;" xml:space="preserve">
<g>
	<path d="M53.9,15.9L42.7,4.7C42,4,41.1,3.6,40.1,3.6c-1,0-2,0.4-2.7,1.1l-2.6,2.6c-0.4,0.4-0.7,0.9-0.9,1.4L21.6,6.6
		c-5.5-1.1-10.9,2.5-12.1,8L9,17.4c-0.6,3.1,1.4,6.1,4.5,6.8c3.1,0.6,6.1-1.4,6.8-4.5l0.3-1.7l5.5,0.5l14.4,14.4l2.6,2.6
		c0.5,0.5,0.5,1.4,0,1.9c-0.5,0.5-1.4,0.5-1.9,0l-7-7c-0.5-0.5-1.3-0.5-1.8,0c-0.5,0.5-0.5,1.3,0,1.8l7,7c0.3,0.3,0.4,0.6,0.4,1
		c0,0.4-0.1,0.7-0.4,1c-0.5,0.5-1.4,0.5-1.9,0l-7-7c0,0,0,0,0,0c-0.5-0.5-1.3-0.5-1.8,0c0,0,0,0,0,0c-0.5,0.5-0.5,1.3,0,1.8l7,7
		c0.5,0.5,0.5,1.4,0,1.9c-0.3,0.3-0.6,0.4-1,0.4c-0.4,0-0.7-0.1-1-0.4l-7-7c0,0,0,0,0,0c-0.5-0.5-1.3-0.5-1.8,0c0,0,0,0,0,0
		c-0.5,0.5-0.5,1.3,0,1.8l7,7c0.5,0.5,0.5,1.4,0,1.9c-0.5,0.5-1.4,0.5-1.9,0L5.4,23.7l-3.3-3.3c-0.5-0.5-1.3-0.5-1.8,0
		c-0.5,0.5-0.5,1.3,0,1.8l3.3,3.3L7.2,29l-2,2c-0.6,0.6-1,1.5-1,2.4c0,0.9,0.4,1.8,1,2.4l0.6,0.6c0.6,0.6,1.3,0.9,2.1,1
		c0.1,0.8,0.4,1.5,1,2.1l0.6,0.6c0.6,0.6,1.3,0.9,2.1,1c0.1,0.8,0.4,1.5,1,2.1l0.6,0.6c0.6,0.6,1.3,0.9,2.1,1c0.1,0.8,0.4,1.5,1,2.1
		l0.6,0.6c0.6,0.6,1.5,1,2.4,1c0.9,0,1.8-0.4,2.4-1l2-2l4.7,4.7c0.7,0.7,1.7,1.1,2.7,1.1c1,0,2-0.4,2.7-1.1c0.7-0.7,1.1-1.6,1.1-2.6
		c1,0,1.9-0.4,2.6-1.1c0.7-0.7,1.1-1.6,1.1-2.6c1,0,1.9-0.4,2.6-1.1c0.7-0.7,1.1-1.6,1.1-2.6c1,0,1.9-0.4,2.6-1.1
		c1.5-1.5,1.5-3.9,0-5.4L43.2,32l6.3-6.3l4.4-4.4C55.4,19.8,55.4,17.4,53.9,15.9z M8.9,34.7C8.6,35,8,35,7.6,34.7L7,34
		c-0.4-0.4-0.4-0.9,0-1.3l1.8-1.8l1.9,1.9L8.9,34.7z M12.6,38.3C12.6,38.3,12.6,38.3,12.6,38.3c-0.4,0.4-0.9,0.4-1.3,0l-0.6-0.6
		c-0.4-0.4-0.4-0.9,0-1.3l1.8-1.8l1.9,1.9L12.6,38.3z M16.3,42c-0.4,0.4-0.9,0.4-1.3,0l-0.6-0.6c-0.2-0.2-0.3-0.4-0.3-0.6
		c0-0.2,0.1-0.5,0.3-0.6l1.8-1.8l1.9,1.9L16.3,42z M20,45.7c-0.4,0.4-0.9,0.4-1.3,0l-0.6-0.6c-0.4-0.4-0.4-0.9,0-1.3l1.8-1.8
		l1.9,1.9L20,45.7z M41.4,30.2L27.6,16.4c-0.2-0.2-0.5-0.3-0.8-0.4l-7.1-0.6l0,0c0,0-0.1,0-0.1,0c-0.6,0-1.1,0.4-1.2,1l-0.6,2.8
		c-0.4,1.8-2.1,2.9-3.8,2.5c-0.8-0.2-1.6-0.7-2.1-1.4c-0.5-0.7-0.7-1.6-0.5-2.4l0.6-2.8c0.9-4.2,4.9-6.9,9.1-6.1h0l12.1,2.2l1.5,1.5
		l12.1,12.1L41.4,30.2z M52.1,19.5L48.6,23L36.5,10.9c-0.2-0.2-0.4-0.6-0.4-0.9c0-0.3,0.1-0.7,0.4-0.9l2.6-2.6h0
		c0.2-0.2,0.6-0.4,0.9-0.4c0.3,0,0.7,0.1,0.9,0.4l11.2,11.2c0.2,0.2,0.4,0.6,0.4,0.9C52.5,18.9,52.4,19.3,52.1,19.5z"/>
	<path d="M49.3,17.9c-0.7,0-1.2,0.5-1.2,1.2l0,0c0,0,0,0,0,0c0,0.7,0.5,1.2,1.2,1.2c0.7,0,1.2-0.5,1.2-1.2S50,17.9,49.3,17.9z"/>
</g>
</svg>
