<?xml version="1.0" encoding="utf-8"?>
<!-- Generator: Adobe Illustrator 22.0.1, SVG Export Plug-In . SVG Version: 6.00 Build 0)  -->
<svg version="1.1" id="Шар_1" xmlns="http://www.w3.org/2000/svg" xmlns:xlink="http://www.w3.org/1999/xlink" x="0px" y="0px"
	 viewBox="0 0 55 55" style="enable-background:new 0 0 55 55;" xml:space="preserve">
<g>
	<path d="M42.1,18.2c0-0.5-0.3-0.9-0.8-0.9c-0.5-0.1-0.9,0.2-1,0.7c-0.8,5.7-6.4,10.1-12.8,10.1c-7.1,0-12.9-5.2-12.9-11.6
		S20.4,4.9,27.5,4.9c6.5,0,12,4.3,12.8,10.1c0.1,0.5,0.6,0.8,1,0.7c0,0,0,0,0,0c0.5,0,0.8-0.5,0.8-0.9c-1-6.5-7.3-11.5-14.6-11.5
		c-8.1,0-14.8,5.9-14.8,13.2l0,0c0,7.3,6.6,13.2,14.8,13.2C34.9,29.7,41.2,24.8,42.1,18.2C42.1,18.2,42.1,18.2,42.1,18.2z"/>
	<path d="M50.3,49L43,31.4c0,0,0,0,0,0c-0.2-0.4-0.7-0.7-1.1-0.5c-0.4,0.2-0.7,0.7-0.5,1.1l6.6,15.9l-6-1.7c-0.4-0.1-0.8,0.1-1,0.4
		l-3,5.5L30.9,35c8.3-1.6,14.3-8.9,14.3-17.4C45.2,7.9,37.3,0,27.5,0C17.7,0,9.8,7.9,9.8,17.7c0,3.8,1.2,7.5,3.5,10.5L4.7,49
		c-0.1,0.3-0.1,0.7,0.2,0.9c0.2,0.3,0.6,0.4,0.9,0.3l7.1-2.1l3.6,6.5c0.2,0.3,0.4,0.5,0.8,0.5h0c0.3,0,0.6-0.2,0.8-0.5L24.8,38
		c0,0,0,0,0,0c0.2-0.4,0-1-0.5-1.1c0,0,0,0,0,0c-0.4-0.2-1,0-1.1,0.5l-6.1,14.7l-3-5.5c-0.2-0.4-0.6-0.5-1-0.4l-6,1.7l7.5-18.2
		c3.3,3.6,8,5.6,12.9,5.6c0.5,0,1,0,1.6-0.1L37,54.5c0.1,0.3,0.4,0.5,0.8,0.5h0c0.3,0,0.6-0.2,0.8-0.5l3.6-6.5l7.1,2.1
		c0.3,0.1,0.7,0,0.9-0.3C50.3,49.6,50.4,49.3,50.3,49z M27.5,33.6c-8.8,0-15.9-7.1-15.9-15.9l0,0c0-8.8,7.1-15.9,15.9-15.9
		c8.8,0,15.9,7.1,15.9,15.9C43.4,26.5,36.3,33.6,27.5,33.6z"/>
	<path d="M25.2,24.1c0.6,0,1.2-0.2,1.6-0.7l8.2-8.2c0,0,0,0,0,0c0.9-0.9,0.9-2.3,0-3.2c0,0,0,0,0,0c-0.9-0.9-2.3-0.9-3.2,0l-6.6,6.6
		l-2.5-2.5c0,0,0,0,0,0c-0.9-0.9-2.3-0.9-3.2,0c0,0,0,0,0,0c-0.9,0.9-0.9,2.3,0,3.2l4.1,4.1l0,0C24.1,23.8,24.6,24.1,25.2,24.1z"/>
</g>
</svg>
