<?xml version="1.0" encoding="utf-8"?>
<!-- Generator: Adobe Illustrator 22.0.1, SVG Export Plug-In . SVG Version: 6.00 Build 0)  -->
<svg version="1.1" id="Шар_1" xmlns="http://www.w3.org/2000/svg" xmlns:xlink="http://www.w3.org/1999/xlink" x="0px" y="0px"
	 viewBox="0 0 55 55" style="enable-background:new 0 0 55 55;" xml:space="preserve">
<path d="M54.9,45.8l-3-11.4c-0.2-0.8-0.3-1.5-0.3-2.4c0,0,0-0.1,0-0.1V18c0-1.4-0.9-2.5-2.1-3c1.5-0.5,2.7-1.6,3.3-3.2
	c0.9-2.7-0.5-5.6-3.1-6.5c-1.4-0.5-2.9-0.4-4.2,0.3l-3.3-0.3c-0.1,0-0.2,0-0.2,0c-0.6,0-1.3,0.3-1.7,0.8C39.9,6.7,39.8,7.4,40,8
	l0.3,0.9c0.4,0.9,1.2,1.6,2.2,1.7l0.2,0c0.1,0.6,0.2,1.1,0.5,1.7c0.5,1,1.3,1.9,2.3,2.4l-2.6-0.1c-1.5-0.1-2.9,1.1-3.1,2.6l-1,6.6
	l-0.1,0v-7.7c0-1.6-1.2-2.9-2.8-2.9H18.5c-1.6,0-2.9,1.3-2.8,2.9v6.6l-0.8-5.5c-0.2-1.5-1.6-2.6-3.1-2.6l-2.5,0.1
	c1-0.5,1.8-1.3,2.3-2.4c0.3-0.5,0.4-1.1,0.5-1.7l0.2,0c1-0.1,1.8-0.8,2.2-1.8L14.8,8c0.2-0.6,0.2-1.3-0.2-1.9
	c-0.4-0.5-1-0.8-1.6-0.8L9.4,5.7C8.2,5,6.6,4.8,5.3,5.3c-2.7,0.9-4.1,3.9-3.1,6.5l0,0c0.5,1.5,1.8,2.7,3.3,3.2
	c-1.2,0.4-2.1,1.6-2.1,2.9c0,0-0.1,14.2-0.1,16.8L3,38.1c-0.1,0.8-0.2,1.5-0.5,2.2l-2.3,5.3c-0.3,0.8-0.3,1.6,0,2.4
	c0.4,0.7,1,1.3,1.8,1.5l0.2,0c0.2,0.1,0.5,0.1,0.8,0.1c1.3,0,2.4-0.7,3-1.9l2.1-4.5c0.4-1,0.8-2,1-3l0.7-2.9l1.7,2.6
	c0.4,0.6,0.6,1.3,0.7,2l0.6,5.2v0c0.2,1.6,1.5,2.8,3.1,2.9h0.3c0.8,0,1.6-0.3,2.1-1c0.5-0.6,0.8-1.4,0.7-2.2l-0.6-6.3
	c-0.1-1.1-0.4-2.1-0.7-3.1L15,29.8l0-0.4h25l0,1.2l-3.8,15.9c-0.2,0.8-0.1,1.7,0.4,2.4c0.5,0.7,1.3,1,2.1,1c0,0,0,0,0,0l0.3,0
	c1.5-0.1,2.8-1.1,3.2-2.6l1.9-7.5c0.2-0.8,0.5-1.5,0.9-2.2l0.5-0.9l3.4,10.8c0.4,1.3,1.6,2.2,2.9,2.2c0.2,0,0.5,0,0.7-0.1l0.2-0.1
	c0.8-0.2,1.4-0.7,1.8-1.4C55,47.4,55.1,46.6,54.9,45.8z M45,11.5c-0.2-0.5-0.3-1.1-0.3-1.6L44.8,9l-1.9-0.2c-0.3,0-0.6-0.3-0.7-0.5
	l-0.3-1l4,0.4l0.3-0.2C47,6.9,48.1,6.8,49,7.1c1.7,0.6,2.5,2.4,1.9,4.1c-0.5,1.3-1.7,2.1-3,2.1c0,0,0,0,0,0c-0.4,0-0.7-0.1-1.1-0.2
	l0,0C46.1,12.9,45.4,12.3,45,11.5z M4,11.2C3.4,9.6,4.2,7.7,5.9,7.2c0.9-0.3,2-0.2,2.8,0.3L9,7.7l3.9-0.4c0,0,0.1,0,0.2,0.1
	l-0.3,0.9c-0.1,0.3-0.4,0.5-0.7,0.6l-2,0.2l0.1,0.9c0,0.6-0.1,1.1-0.3,1.6c-0.4,0.8-1,1.4-1.8,1.6c-0.3,0.1-0.7,0.2-1.1,0.2
	C5.6,13.4,4.4,12.5,4,11.2z M52.9,47.2c-0.1,0.2-0.4,0.4-0.6,0.5l-0.2,0.1c-0.1,0-0.2,0-0.2,0c-0.5,0-1-0.3-1.1-0.8L46.1,32
	l-2.8,4.7c-0.5,0.8-0.8,1.7-1.1,2.7l-1.9,7.5c-0.2,0.7-0.8,1.1-1.4,1.1h-0.3c0,0,0,0,0,0c-0.2,0-0.4-0.1-0.6-0.3
	c-0.2-0.2-0.2-0.5-0.1-0.7L41.8,31l0.1-3.4H13l0,2.6l2.9,7.8c0.3,0.9,0.5,1.8,0.6,2.7l0.6,6.3c0,0.3-0.1,0.6-0.2,0.8
	c-0.2,0.2-0.4,0.3-0.7,0.3L16,48c-0.6,0-1.2-0.5-1.2-1.1l-0.6-5.2c-0.1-0.9-0.5-1.8-0.9-2.7l-4.2-6.6l-1.7,7.4
	c-0.2,0.9-0.5,1.8-0.9,2.6l-2.1,4.5c-0.2,0.5-0.7,0.8-1.3,0.8c-0.1,0-0.2,0-0.3,0l-0.2-0.1c-0.2-0.1-0.4-0.2-0.5-0.4
	c-0.1-0.2-0.1-0.5,0-0.8l2.3-5.4c0.3-0.9,0.6-1.8,0.6-2.8l0.2-3.4C5.1,32.1,5.2,18,5.2,18c0-0.6,0.5-1.1,1.1-1.2l5.6-0.3
	c0.6,0,1.1,0.4,1.1,1l1,6.7c0.2,0.8,0.9,1.5,1.8,1.5l1.9,0v-9.7c0-0.5,0.4-1,0.9-1H36c0.5,0,0.9,0.4,0.9,1v9.7l2.2,0
	c0.8-0.1,1.6-0.7,1.7-1.6l1-6.7c0.1-0.6,0.5-1,1.1-0.9l5.6,0.3c0.6,0,1.1,0.6,1.1,1.2l0,13.9l0,0.1l0,0.1c0,0.9,0.2,1.9,0.4,2.8
	l3,11.4C53.1,46.6,53.1,46.9,52.9,47.2z"/>
</svg>
