<?xml version="1.0" encoding="utf-8"?>
<!-- Generator: Adobe Illustrator 22.0.1, SVG Export Plug-In . SVG Version: 6.00 Build 0)  -->
<svg version="1.1" id="Шар_1" xmlns="http://www.w3.org/2000/svg" xmlns:xlink="http://www.w3.org/1999/xlink" x="0px" y="0px"
	 viewBox="0 0 55 55" style="enable-background:new 0 0 55 55;" xml:space="preserve">
<g>
	<path d="M39.3,19.6h-0.5V17c0-1.6-1.3-2.8-2.8-2.8h-7.8c3.3-0.4,5.8-3.2,5.9-6.5c0-3.6-2.9-6.5-6.5-6.5c-3.6,0-6.5,2.9-6.5,6.5
		c0,3.3,2.5,6.1,5.9,6.5H19c-1.6,0-2.8,1.3-2.8,2.8v2.6h-0.5c-0.8,0-1.4,0.6-1.4,1.4v5.3c0,0.8,0.6,1.4,1.4,1.4h0.1v8.7
		c0,0.8,0.6,1.4,1.4,1.4h1.9v12.3c0,2.1,1.7,3.7,3.7,3.7h0.8c2,0,3.6-1.6,3.7-3.6c0-0.3,0.1-0.6,0.1-0.9c0,0.4,0.1,0.7,0.1,0.9
		c0.1,2,1.8,3.5,3.7,3.6l0.8,0c2.1,0,3.7-1.7,3.7-3.7V37.8h1.9c0.8,0,1.4-0.6,1.4-1.4v-8.7h0.1c0.8,0,1.4-0.6,1.4-1.4V21
		C40.7,20.2,40.1,19.6,39.3,19.6z M30.1,17H36c0,0,0,0,0,0v2.6h-6.8L29,18.4L30.1,17z M23.8,7.7L23.8,7.7c0-2.1,1.7-3.7,3.7-3.7
		c2.1,0,3.7,1.7,3.7,3.7c0,2.1-1.7,3.7-3.7,3.7C25.4,11.4,23.8,9.8,23.8,7.7z M19,17h5.9l1.1,1.4l-0.2,1.2H19L19,17L19,17
		C19,17,19,17,19,17z M26.1,38.9c0,0.1-1.2,8.2-1.5,11c-0.1,0.4-0.3,1.1-0.9,1.1h-0.8c-0.5,0-0.9-0.4-0.9-0.9l0-12.3H27
		C26.5,38,26.2,38.4,26.1,38.9z M33.1,50.1c0,0.5-0.4,0.9-0.9,0.9h-0.8c-0.6,0-0.9-0.7-0.9-1.1c-0.4-2.7-1.5-10.9-1.5-11h0
		c-0.1-0.5-0.4-0.9-0.9-1.1h5.1V50.1z M36.4,35H18.6v-7.3h17.8V35z M37.9,24.9H17.1l0-2.5h20.8V24.9z"/>
	<path d="M26.1,32.7h2.7c0.8,0,1.4-0.6,1.4-1.4c0-0.8-0.6-1.4-1.4-1.4h-2.7c-0.8,0-1.4,0.6-1.4,1.4C24.7,32.1,25.4,32.7,26.1,32.7z"
		/>
</g>
</svg>
