<?xml version="1.0" encoding="utf-8"?>
<!-- Generator: Adobe Illustrator 22.0.1, SVG Export Plug-In . SVG Version: 6.00 Build 0)  -->
<svg version="1.1" id="Шар_1" xmlns="http://www.w3.org/2000/svg" xmlns:xlink="http://www.w3.org/1999/xlink" x="0px" y="0px"
	 viewBox="0 0 55 55" style="enable-background:new 0 0 55 55;" xml:space="preserve">
<g>
	<path d="M27.5,42.9c-8.5,0-15.4-6.9-15.4-15.4c0,0,0,0,0,0c0-0.6-0.5-1.1-1.1-1.1c-0.6,0-1.1,0.5-1.1,1.1l0,0
		c0,9.7,7.9,17.6,17.6,17.6c0.6,0,1.1-0.5,1.1-1.1c0,0,0,0,0,0C28.6,43.4,28.1,42.9,27.5,42.9z"/>
	<path d="M53,24.2l-3.9-0.8c-0.2-1.1-0.5-2.2-0.9-3.2l3-2.6c0.4-0.3,0.5-0.9,0.2-1.4l-2.2-3.8c-0.3-0.5-0.8-0.7-1.3-0.5l-3.8,1.3
		c-0.7-0.8-1.5-1.6-2.4-2.4l1.3-3.8c0.2-0.5,0-1-0.5-1.3l-3.8-2.2c-0.5-0.3-1-0.2-1.4,0.2l-2.6,3c-1-0.4-2.1-0.7-3.2-0.9L30.8,2
		c-0.1-0.5-0.6-0.9-1.1-0.9h-4.4c-0.5,0-1,0.4-1.1,0.9l-0.8,3.9c-1.1,0.2-2.2,0.5-3.2,0.9l-2.6-3c-0.3-0.4-0.9-0.5-1.4-0.2l-3.8,2.2
		C12,6,11.8,6.6,11.9,7.1l1.3,3.8c-0.8,0.7-1.6,1.5-2.4,2.4l-3.8-1.3c-0.5-0.2-1,0-1.3,0.5l-2.2,3.8c-0.3,0.5-0.2,1,0.2,1.4l3,2.6
		c-0.4,1.1-0.7,2.1-0.9,3.2L2,24.2c-0.5,0.1-0.9,0.6-0.9,1.1v4.4c0,0.5,0.4,1,0.9,1.1l3.9,0.8c0.2,1.1,0.5,2.2,0.9,3.2l-3,2.6
		c-0.4,0.3-0.5,0.9-0.2,1.4l2.2,3.8C6,43,6.6,43.2,7.1,43.1l3.8-1.3c0.7,0.8,1.5,1.6,2.4,2.4l-1.3,3.8c-0.2,0.5,0,1,0.5,1.3l3.8,2.2
		c0.5,0.3,1,0.2,1.4-0.2l2.6-3c1.1,0.4,2.1,0.7,3.2,0.9l0.8,3.9c0.1,0.5,0.6,0.9,1.1,0.9h4.4c0.5,0,1-0.4,1.1-0.9l0.8-3.9
		c1.1-0.2,2.2-0.5,3.2-0.9l2.6,3c0.3,0.4,0.9,0.5,1.4,0.2l3.8-2.2c0.5-0.3,0.7-0.8,0.5-1.3l-1.3-3.8c0.8-0.7,1.6-1.5,2.4-2.4
		l3.8,1.3c0.5,0.2,1,0,1.3-0.5l2.2-3.8c0.3-0.5,0.2-1-0.2-1.4l-3-2.6c0.4-1.1,0.7-2.1,0.9-3.2l3.9-0.8c0.5-0.1,0.9-0.6,0.9-1.1v-4.4
		C53.9,24.8,53.5,24.3,53,24.2z M51.7,28.8l-3.8,0.8c-0.5,0.1-0.8,0.5-0.9,0.9c-0.2,1.5-0.6,2.9-1.1,4.2c-0.2,0.4,0,0.9,0.3,1.2
		l2.9,2.5l-1.3,2.2l-3.6-1.2c-0.4-0.1-0.9,0-1.2,0.4C42,41,41,42,39.8,42.9c-0.4,0.3-0.5,0.8-0.4,1.2l1.2,3.6l-2.2,1.3l-2.5-2.9
		c-0.3-0.3-0.8-0.5-1.2-0.3c-1.4,0.5-2.8,0.9-4.2,1.1c-0.5,0.1-0.8,0.4-0.9,0.9l-0.8,3.8h-2.6l-0.8-3.8c-0.1-0.5-0.5-0.8-0.9-0.9
		c-1.5-0.2-2.9-0.6-4.2-1.1h0c-0.1,0-0.3-0.1-0.4-0.1c-0.3,0-0.6,0.1-0.8,0.4l-2.5,2.9l-2.2-1.3l1.2-3.6c0.1-0.4,0-0.9-0.4-1.2
		C14,42,13,41,12.1,39.8c-0.3-0.4-0.8-0.5-1.2-0.4l-3.6,1.2l-1.3-2.2l2.9-2.5c0.3-0.3,0.5-0.8,0.3-1.2c-0.5-1.4-0.9-2.8-1.1-4.2
		c-0.1-0.5-0.4-0.8-0.9-0.9l-3.8-0.8v-2.6l3.8-0.8C7.6,25.4,7.9,25,8,24.5c0.2-1.5,0.6-2.9,1.1-4.2c0.2-0.4,0-0.9-0.3-1.2l-2.9-2.5
		l1.3-2.2l3.6,1.2c0.4,0.1,0.9,0,1.2-0.4c0.9-1.1,2-2.2,3.1-3.1c0.4-0.3,0.5-0.8,0.4-1.2l-1.2-3.6l2.2-1.3l2.5,2.9
		c0.3,0.3,0.8,0.5,1.2,0.3c1.4-0.5,2.8-0.9,4.2-1.1c0.5-0.1,0.8-0.4,0.9-0.9l0.8-3.8h2.6l0.8,3.8C29.6,7.6,30,7.9,30.5,8
		c1.4,0.2,2.9,0.6,4.2,1.1c0.4,0.2,0.9,0,1.2-0.3l2.5-2.9l2.2,1.3l-1.2,3.6c-0.1,0.4,0,0.9,0.4,1.2c1.1,0.9,2.2,2,3.1,3.1
		c0.3,0.4,0.8,0.5,1.2,0.4l3.6-1.2l1.3,2.2l-2.9,2.5c-0.3,0.3-0.5,0.8-0.3,1.2c0.5,1.4,0.9,2.8,1.1,4.2c0.1,0.5,0.4,0.8,0.9,0.9
		l3.8,0.8V28.8z"/>
	<path d="M36.4,29.6l-5.2-3.5c1.2-1,1.8-2.5,1.8-4.1v-2.2c0-3-2.5-5.5-5.5-5.5c-3,0-5.5,2.5-5.5,5.5V22c0,1.5,0.7,3,1.8,4.1
		l-5.2,3.5c-0.6,0.4-1,1.1-1,1.8v3.8c0,0.3,0.1,0.6,0.3,0.8c1.7,1.6,3.9,2.5,6.3,2.5l6.6,0c2.3,0,4.6-0.9,6.3-2.5
		c0.2-0.2,0.3-0.5,0.3-0.8v-3.8C37.4,30.7,37,30,36.4,29.6z M24.2,19.8c0-1.8,1.5-3.3,3.3-3.3c1.8,0,3.3,1.5,3.3,3.3V22
		c0,1.8-1.5,3.3-3.3,3.3c-1.8,0-3.3-1.5-3.3-3.3V19.8z M35.2,34.7c-1.2,1-2.8,1.6-4.4,1.6h-6.6c-1.6,0-3.1-0.6-4.4-1.6v-3.3l6.1-4.1
		v0c0,0,0,0,0.1-0.1c0.5,0.2,1,0.2,1.5,0.2c0.5,0,1-0.1,1.5-0.2c0,0,0,0,0.1,0.1l6.1,4.1V34.7z"/>
	<path d="M27.5,9.9c-0.6,0-1.1,0.5-1.1,1.1v0c0,0.6,0.5,1.1,1.1,1.1c8.5,0,15.4,6.9,15.4,15.4c0,0.6,0.5,1.1,1.1,1.1
		c0.6,0,1.1-0.5,1.1-1.1C45.1,17.8,37.2,9.9,27.5,9.9z"/>
</g>
</svg>
