<svg width="577" height="204" viewBox="0 0 577 204" fill="none" xmlns="http://www.w3.org/2000/svg">
<g opacity="0.08" clip-path="url(#clip0)">
<path d="M129.972 6.91664C127.007 6.92064 124.076 7.54474 121.367 8.74874C118.582 9.95948 116.061 11.7015 113.944 13.8771C110.54 17.5074 108.246 22.0349 107.335 26.9249C106.424 31.8149 106.932 36.8631 108.801 41.4736C110.006 44.3855 111.751 47.0436 113.944 49.308C116.063 51.4835 118.583 53.2277 121.367 54.444C124.077 55.6444 127.008 56.2683 129.972 56.2761C132.608 56.2846 135.218 55.7632 137.648 54.743C140.04 53.7611 142.255 52.3937 144.204 50.6955C146.051 49.1065 147.582 47.1848 148.717 45.0305C149.801 43.0283 150.376 40.7907 150.391 38.5147H130.494V31.6155H158.988V62.7076H152.532L150.383 55.2796C148.734 56.7805 146.933 58.1061 145.01 59.2351C142.954 60.3504 140.794 61.2644 138.562 61.9641C135.772 62.8185 132.866 63.2323 129.949 63.1906C125.836 63.1864 121.766 62.3547 117.982 60.7452C114.215 59.1809 110.785 56.9061 107.88 54.0454C104.959 51.1581 102.594 47.7595 100.903 44.0187C99.1764 40.1068 98.2849 35.8789 98.2849 31.604C98.2849 27.3292 99.1764 23.1013 100.903 19.1894C102.586 15.4303 104.951 12.0151 107.88 9.1167C110.785 6.25599 114.215 3.98123 117.982 2.41687C121.775 0.814869 125.853 -0.00641424 129.972 0.00216875C133.413 -0.0371897 136.84 0.459378 140.128 1.47399C143.063 2.38888 145.817 3.80783 148.264 5.66713C150.602 7.47762 152.636 9.6487 154.29 12.0987C156.005 14.6217 157.397 17.3488 158.435 20.2166H149.339C148.094 16.4374 145.779 13.0988 142.676 10.6038C139.601 8.14571 135.366 6.91664 129.972 6.91664Z" fill="white"/>
<path d="M218.002 55.8008V62.7H177.142V0.500442H185.762V55.8008H218.002Z" fill="white"/>
<path d="M286.074 31.6155C286.111 35.9012 285.216 40.1437 283.448 44.0493C281.757 47.7901 279.392 51.1888 276.471 54.0761C273.562 56.9282 270.13 59.1927 266.361 60.7452C262.565 62.3391 258.489 63.1601 254.371 63.1601C250.253 63.1601 246.177 62.3391 242.381 60.7452C238.614 59.1809 235.184 56.9061 232.279 54.0454C229.358 51.1581 226.993 47.7595 225.302 44.0187C223.571 40.1082 222.676 35.8797 222.676 31.604C222.676 27.3284 223.571 23.0999 225.302 19.1894C226.985 15.4303 229.351 12.0151 232.279 9.11669C235.184 6.25599 238.614 3.98122 242.381 2.41686C246.177 0.822995 250.253 0.00199214 254.371 0.00199214C258.489 0.00199214 262.565 0.822995 266.361 2.41686C270.129 3.97935 273.56 6.25434 276.463 9.11669C279.392 12.0151 281.758 15.4303 283.441 19.1894C285.206 23.0932 286.104 27.3323 286.074 31.6155ZM231.289 31.6155C231.224 38.2173 233.761 44.5799 238.351 49.331C240.469 51.5065 242.99 53.2507 245.774 54.467C248.481 55.6751 251.414 56.2994 254.379 56.2994C257.344 56.2994 260.276 55.6751 262.984 54.467C265.764 53.2561 268.278 51.511 270.384 49.331C272.568 47.0508 274.312 44.3869 275.527 41.4736C278.116 35.1453 278.116 28.0551 275.527 21.7268C274.306 18.8235 272.563 16.1682 270.384 13.8924C268.279 11.7132 265.764 9.97043 262.984 8.76407C260.276 7.55602 257.344 6.93163 254.379 6.93163C251.414 6.93163 248.481 7.55602 245.774 8.76407C242.989 9.97481 240.468 11.7168 238.351 13.8924C233.759 18.6454 231.222 25.0111 231.289 31.6155Z" fill="white"/>
<path d="M337.496 29.6224C339.349 30.4917 341.063 31.6282 342.585 32.9954C344.016 34.3766 345.211 35.9819 346.124 37.7481C347.181 39.9057 347.73 42.2759 347.73 44.6779C347.73 47.0799 347.181 49.4501 346.124 51.6077C345.024 53.7912 343.488 55.7269 341.61 57.2956C339.578 59.0047 337.26 60.3436 334.763 61.2511C332.03 62.2398 329.142 62.728 326.235 62.6923H300.451V0.500425H325.69C328.324 0.474929 330.943 0.908138 333.428 1.7806C335.682 2.55863 337.767 3.76081 339.569 5.32215C341.264 6.80603 342.641 8.61859 343.614 10.6498C344.598 12.7212 345.099 14.9882 345.08 17.2807C345.141 19.244 344.733 21.1936 343.89 22.9686C343.214 24.364 342.34 25.6549 341.296 26.8015C340.174 27.9217 338.893 28.872 337.496 29.6224ZM309.056 26.6328H325.69C327.21 26.6428 328.72 26.3832 330.15 25.8662C331.464 25.4009 332.681 24.6994 333.742 23.7965C334.71 22.9648 335.512 21.9584 336.107 20.8299C336.683 19.7356 336.984 18.5172 336.982 17.2807C336.991 15.9544 336.697 14.6435 336.122 13.4478C335.547 12.2648 334.744 11.207 333.758 10.3355C332.7 9.41505 331.482 8.69542 330.165 8.21213C328.738 7.68818 327.226 7.42842 325.705 7.44555H309.056V26.6328ZM326.235 55.8008C330.048 55.8008 333.151 54.7072 335.546 52.5199C336.701 51.5124 337.621 50.2654 338.243 48.8659C338.865 47.4663 339.173 45.9481 339.146 44.4173C339.15 42.9803 338.816 41.5626 338.171 40.2778C337.51 38.9533 336.582 37.779 335.446 36.8282C334.24 35.8078 332.863 35.0084 331.378 34.4672C329.732 33.8603 327.99 33.5564 326.235 33.5703H309.056V55.8008H326.235Z" fill="white"/>
<path d="M396.472 47.4069H368.554L362.098 62.6923H352.971L378.786 0.500442H386.293L412.054 62.6923H402.927L396.472 47.4069ZM371.233 40.5078H393.785L382.501 13.3635L371.233 40.5078Z" fill="white"/>
<path d="M465.587 55.8008V62.7H422.701V0.500442H431.306V55.8008H465.587Z" fill="white"/>
<path d="M8.91963 204.186H0.314697V142.002H8.91963V204.186Z" fill="white"/>
<path d="M85.6348 142.002H92.6124V204.193H84.0074V162.247L63.0209 204.186H57.6476L36.7149 162.247V204.186H28.1253V142.002H35.1029L60.3419 191.829L85.6348 142.002Z" fill="white"/>
<path d="M134.9 142.002C137.753 141.99 140.582 142.51 143.244 143.535C148.239 145.416 152.33 149.124 154.689 153.906C155.825 156.191 156.416 158.707 156.416 161.258C156.416 163.808 155.825 166.325 154.689 168.609C152.333 173.392 148.24 177.098 143.244 178.973C140.582 179.998 137.753 180.518 134.9 180.506H120.423V204.224H111.818V142.002H134.9ZM134.9 173.584C138.266 173.584 141.509 172.317 143.981 170.035C145.176 168.923 146.132 167.58 146.79 166.087C147.472 164.563 147.82 162.911 147.811 161.242C147.821 159.581 147.473 157.936 146.79 156.421C146.122 154.931 145.168 153.587 143.981 152.465C142.78 151.332 141.373 150.44 139.836 149.836C138.265 149.214 136.59 148.896 134.9 148.901H120.423V173.584H134.9Z" fill="white"/>
<path d="M229.877 173.094C229.915 177.379 229.019 181.622 227.251 185.527C225.567 189.267 223.213 192.668 220.305 195.562C217.399 198.422 213.969 200.696 210.203 202.262C206.406 203.85 202.33 204.669 198.213 204.669C194.096 204.669 190.02 203.85 186.223 202.262C182.456 200.696 179.027 198.422 176.121 195.562C173.201 192.67 170.836 189.269 169.143 185.527C167.412 181.617 166.518 177.388 166.518 173.113C166.518 168.837 167.412 164.609 169.143 160.698C170.826 156.939 173.192 153.524 176.121 150.625C179.027 147.766 182.456 145.491 186.223 143.926C190.019 142.332 194.095 141.511 198.213 141.511C202.331 141.511 206.407 142.332 210.203 143.926C213.969 145.491 217.399 147.766 220.305 150.625C223.233 153.524 225.599 156.939 227.282 160.698C229.029 164.596 229.914 168.824 229.877 173.094ZM175.092 173.094C175.028 179.695 177.564 186.058 182.154 190.809C184.269 192.989 186.791 194.733 189.577 195.945C192.285 197.153 195.217 197.778 198.182 197.778C201.147 197.778 204.08 197.153 206.787 195.945C209.568 194.736 212.083 192.991 214.187 190.809C216.371 188.529 218.115 185.865 219.33 182.952C221.919 176.623 221.919 169.533 219.33 163.205C218.111 160.303 216.367 157.65 214.187 155.378C212.085 153.193 209.57 151.448 206.787 150.242C204.08 149.034 201.147 148.41 198.182 148.41C195.217 148.41 192.285 149.034 189.577 150.242C186.789 151.451 184.267 153.196 182.154 155.378C179.958 157.638 178.213 160.294 177.011 163.205C175.709 166.338 175.056 169.702 175.092 173.094Z" fill="white"/>
<path d="M265.709 178.536H252.851V204.186H244.246V142.002H269.486C272.206 141.987 274.904 142.486 277.438 143.473C279.829 144.388 282.035 145.728 283.947 147.429C285.77 149.067 287.25 151.049 288.3 153.262C289.355 155.45 289.901 157.848 289.896 160.277C289.896 163.91 289.111 166.859 287.54 169.123C286.148 171.194 284.408 173.01 282.397 174.489C280.156 176.086 277.651 177.277 274.997 178.007L291.524 204.186H281.875L265.709 178.536ZM252.851 171.599H269.486C271.035 171.604 272.57 171.299 273.999 170.702C275.394 170.136 276.674 169.32 277.776 168.295C278.864 167.282 279.738 166.062 280.347 164.707C280.978 163.313 281.3 161.799 281.291 160.269C281.3 158.731 280.978 157.21 280.347 155.807C279.741 154.442 278.866 153.212 277.776 152.189C276.672 151.166 275.393 150.351 273.999 149.782C272.569 149.188 271.034 148.885 269.486 148.893H252.851V171.599Z" fill="white"/>
<path d="M347.298 148.901H326.887V204.193H318.283V148.901H297.872V142.002H347.298V148.901Z" fill="white"/>
<path d="M336.552 117.695H308.634L302.178 132.973H293.051L318.866 70.7809H326.373L352.134 132.973H343.007L336.552 117.695ZM311.313 110.75H333.911L322.635 83.6057L311.313 110.75Z" fill="white"/>
<path d="M382.201 133.456C378.803 133.499 375.423 132.936 372.223 131.792C369.352 130.776 366.707 129.214 364.431 127.193C362.254 125.238 360.513 122.848 359.319 120.179C358.069 117.374 357.44 114.333 357.477 111.264V70.7809H366.089V111.233C366.089 115.955 367.558 119.691 370.495 122.44C373.433 125.19 377.332 126.564 382.194 126.564C387.06 126.564 390.97 125.197 393.923 122.463C396.876 119.729 398.365 115.986 398.39 111.233V70.7809H406.942V111.233C406.972 114.291 406.355 117.322 405.13 120.125C403.954 122.806 402.219 125.205 400.041 127.162C397.758 129.188 395.101 130.751 392.219 131.762C389.007 132.916 385.615 133.49 382.201 133.456Z" fill="white"/>
<path d="M465.48 77.6801H445.069V132.973H436.464V77.6801H416.045V70.7809H465.48V77.6801Z" fill="white"/>
<path d="M532.07 101.881C532.109 106.166 531.213 110.409 529.445 114.315C527.754 118.065 525.389 121.474 522.467 124.372C519.56 127.23 516.131 129.505 512.365 131.072C508.568 132.661 504.492 133.479 500.375 133.479C496.258 133.479 492.182 132.661 488.385 131.072C484.619 129.506 481.189 127.232 478.283 124.372C475.36 121.477 472.997 118.067 471.314 114.315C469.581 110.406 468.686 106.178 468.686 101.904C468.686 97.6291 469.581 93.4018 471.314 89.4929C472.989 85.7273 475.356 82.3083 478.291 79.4125C481.197 76.5527 484.626 74.2781 488.393 72.7127C492.189 71.1189 496.265 70.2979 500.383 70.2979C504.501 70.2979 508.577 71.1189 512.373 72.7127C516.139 74.28 519.568 76.5544 522.475 79.4125C525.406 82.3123 527.771 85.7304 529.452 89.4929C531.208 93.3857 532.101 97.6114 532.07 101.881ZM477.286 101.881C477.219 108.486 479.762 114.851 484.363 119.596C486.482 121.774 489.006 123.519 491.793 124.732C494.501 125.94 497.433 126.565 500.398 126.565C503.364 126.565 506.296 125.94 509.003 124.732C511.784 123.522 514.298 121.777 516.403 119.596C518.588 117.316 520.331 114.652 521.546 111.739C524.137 105.414 524.137 98.3249 521.546 91.9996C520.327 89.0954 518.584 86.4397 516.403 84.1653C514.3 81.9822 511.785 80.2367 509.003 79.0293C506.296 77.8212 503.364 77.1968 500.398 77.1968C497.433 77.1968 494.501 77.8212 491.793 79.0293C489.004 80.2398 486.48 81.9848 484.363 84.1653C479.77 88.9144 477.236 95.279 477.309 101.881H477.286Z" fill="white"/>
<path d="M10.4933 95.6846V0.499565H0V105.895H114.597V95.6846H10.4933Z" fill="white"/>
<path d="M466.324 0.0166016V10.4803H565.822V193.652H467.975V204.124H576.315V0.0166016H466.324Z" fill="white"/>
<path d="M232.548 88.2801C237.063 88.2801 240.723 84.625 240.723 80.1161C240.723 75.6073 237.063 71.9521 232.548 71.9521C228.033 71.9521 224.373 75.6073 224.373 80.1161C224.373 84.625 228.033 88.2801 232.548 88.2801Z" stroke="white" stroke-width="3.01135" stroke-miterlimit="10"/>
<path d="M254.01 88.2801C258.525 88.2801 262.185 84.625 262.185 80.1161C262.185 75.6073 258.525 71.9521 254.01 71.9521C249.495 71.9521 245.835 75.6073 245.835 80.1161C245.835 84.625 249.495 88.2801 254.01 88.2801Z" stroke="white" stroke-width="3.01135" stroke-miterlimit="10"/>
<path d="M275.465 88.2801C279.98 88.2801 283.64 84.625 283.64 80.1161C283.64 75.6073 279.98 71.9521 275.465 71.9521C270.95 71.9521 267.29 75.6073 267.29 80.1161C267.29 84.625 270.95 88.2801 275.465 88.2801Z" fill="white"/>
<path d="M232.548 110.142C237.063 110.142 240.723 106.487 240.723 101.978C240.723 97.4696 237.063 93.8145 232.548 93.8145C228.033 93.8145 224.373 97.4696 224.373 101.978C224.373 106.487 228.033 110.142 232.548 110.142Z" fill="white"/>
<path d="M254.01 110.142C258.525 110.142 262.185 106.487 262.185 101.978C262.185 97.4696 258.525 93.8145 254.01 93.8145C249.495 93.8145 245.835 97.4696 245.835 101.978C245.835 106.487 249.495 110.142 254.01 110.142Z" fill="white"/>
<path d="M275.465 110.142C279.98 110.142 283.64 106.487 283.64 101.978C283.64 97.4696 279.98 93.8145 275.465 93.8145C270.95 93.8145 267.29 97.4696 267.29 101.978C267.29 106.487 270.95 110.142 275.465 110.142Z" stroke="white" stroke-width="3.01135" stroke-miterlimit="10"/>
<path d="M232.548 131.996C237.063 131.996 240.723 128.341 240.723 123.832C240.723 119.323 237.063 115.668 232.548 115.668C228.033 115.668 224.373 119.323 224.373 123.832C224.373 128.341 228.033 131.996 232.548 131.996Z" stroke="white" stroke-width="3.01135" stroke-miterlimit="10"/>
<path d="M254.01 131.996C258.525 131.996 262.185 128.341 262.185 123.832C262.185 119.323 258.525 115.668 254.01 115.668C249.495 115.668 245.835 119.323 245.835 123.832C245.835 128.341 249.495 131.996 254.01 131.996Z" fill="white"/>
<path d="M275.465 131.996C279.98 131.996 283.64 128.341 283.64 123.832C283.64 119.323 279.98 115.668 275.465 115.668C270.95 115.668 267.29 119.323 267.29 123.832C267.29 128.341 270.95 131.996 275.465 131.996Z" fill="white"/>
<path d="M367.801 159.318C372.346 159.318 376.03 155.639 376.03 151.1C376.03 146.562 372.346 142.883 367.801 142.883C363.257 142.883 359.573 146.562 359.573 151.1C359.573 155.639 363.257 159.318 367.801 159.318Z" fill="white"/>
<path d="M389.409 159.318C393.954 159.318 397.638 155.639 397.638 151.1C397.638 146.562 393.954 142.883 389.409 142.883C384.865 142.883 381.181 146.562 381.181 151.1C381.181 155.639 384.865 159.318 389.409 159.318Z" fill="white"/>
<path d="M411.018 159.318C415.562 159.318 419.247 155.639 419.247 151.1C419.247 146.562 415.562 142.883 411.018 142.883C406.473 142.883 402.789 146.562 402.789 151.1C402.789 155.639 406.473 159.318 411.018 159.318Z" stroke="white" stroke-width="3.03374" stroke-miterlimit="10"/>
<path d="M367.801 181.328C372.346 181.328 376.03 177.649 376.03 173.11C376.03 168.572 372.346 164.893 367.801 164.893C363.257 164.893 359.573 168.572 359.573 173.11C359.573 177.649 363.257 181.328 367.801 181.328Z" stroke="white" stroke-width="3.03374" stroke-miterlimit="10"/>
<path d="M389.409 181.328C393.954 181.328 397.638 177.649 397.638 173.11C397.638 168.572 393.954 164.893 389.409 164.893C384.865 164.893 381.181 168.572 381.181 173.11C381.181 177.649 384.865 181.328 389.409 181.328Z" fill="white"/>
<path d="M411.018 181.328C415.562 181.328 419.247 177.649 419.247 173.11C419.247 168.572 415.562 164.893 411.018 164.893C406.473 164.893 402.789 168.572 402.789 173.11C402.789 177.649 406.473 181.328 411.018 181.328Z" fill="white"/>
<path d="M367.801 203.333C372.346 203.333 376.03 199.654 376.03 195.115C376.03 190.577 372.346 186.897 367.801 186.897C363.257 186.897 359.573 190.577 359.573 195.115C359.573 199.654 363.257 203.333 367.801 203.333Z" fill="white"/>
<path d="M389.409 203.333C393.954 203.333 397.638 199.654 397.638 195.115C397.638 190.577 393.954 186.897 389.409 186.897C384.865 186.897 381.181 190.577 381.181 195.115C381.181 199.654 384.865 203.333 389.409 203.333Z" stroke="white" stroke-width="3.03374" stroke-miterlimit="10"/>
<path d="M411.018 203.333C415.562 203.333 419.247 199.654 419.247 195.115C419.247 190.577 415.562 186.897 411.018 186.897C406.473 186.897 402.789 190.577 402.789 195.115C402.789 199.654 406.473 203.333 411.018 203.333Z" stroke="white" stroke-width="3.03374" stroke-miterlimit="10"/>
</g>
<defs>
<clipPath id="clip0">
<rect width="576.522" height="204" fill="white"/>
</clipPath>
</defs>
</svg>
