<svg id="Capa_1" xmlns="http://www.w3.org/2000/svg" viewBox="-41 164.9 512 512"><style>.st0{fill:#3f6f9f}</style><path class="st0" d="M249.1 164.9H78.5c-23.5 0-42.7 19.1-42.7 42.7v307.2c0 23.5 19.1 42.7 42.7 42.7h153.6v-17.1H78.5c-14.1 0-25.6-11.5-25.6-25.6V207.6c0-14.1 11.5-25.6 25.6-25.6h170.7c14.1 0 25.6 11.5 25.6 25.6V455h17.1V207.6c-.1-23.6-19.2-42.7-42.8-42.7z"/><path class="st0" d="M373.6 392.2l-83.7-104.6-13.3 10.7 83.7 104.6c10.9 13.6 16.8 30.6 16.8 48v209H252.3c-44.1 0-80-35.9-80-80v-31h-17.1v31c0 53.5 43.5 97 97 97h133.4c4.7 0 8.5-3.8 8.5-8.5V450.9c.1-21.3-7.2-42.1-20.5-58.7z"/><path class="st0" d="M180.8 366.1c6 .2 11.6 2.7 15.7 7L311.2 495l12.4-11.7-114.7-121.9c-7.2-7.7-17.1-12.1-27.6-12.4-10.7-.4-20.6 3.5-28.2 10.7-.1.1-.8.7-.9.8-14.6 14.6-15.6 37.6-2.3 53.4l73.5 86.8v26.4c0 47.2 29.6 89.9 73.8 106.5l6-16c-37.5-14.1-62.7-50.4-62.7-90.5v-29.5c0-2-.7-4-2-5.5L163.1 403c-7.6-9-7-22.1 1.7-30.8 4.3-4.1 10-6.1 16-6.1z"/><path class="st0" d="M223.5 182h17.1v213.3h-17.1zM180.9 446.5H198v102.4h-17.1zM180.9 173.4H198v187.7h-17.1zM78.5 207.6h17.1v110.9H78.5zM121.1 207.6h17.1v68.3h-17.1zM138.2 446.5H87c-4.7 0-8.5 3.8-8.5 8.5v51.2c0 4.7 3.8 8.5 8.5 8.5h51.2c4.7 0 8.5-3.8 8.5-8.5V455c0-4.7-3.8-8.5-8.5-8.5zm-8.5 51.2H95.5v-34.1h34.1v34.1z"/></svg>