<svg id="Capa_1" xmlns="http://www.w3.org/2000/svg" viewBox="-41 164.9 512 512"><style>.st0{fill:#369}</style><path class="st0" d="M387 164.9c-46.3 0-84 37.7-84 84s37.7 84 84 84 84-37.7 84-84-37.7-84-84-84zm0 148c-35.3 0-64-28.7-64-64s28.7-64 64-64 64 28.7 64 64-28.7 64-64 64zM275.1 315.8c-1.9-1.9-4.4-2.9-7.1-2.9s-5.2 1.1-7.1 2.9c-1.9 1.9-2.9 4.4-2.9 7.1s1.1 5.2 2.9 7.1c1.9 1.9 4.4 2.9 7.1 2.9s5.2-1.1 7.1-2.9c1.9-1.9 2.9-4.4 2.9-7.1s-1.1-5.2-2.9-7.1z"/><path class="st0" d="M359 362.1c-5.5 0-10 4.5-10 10v44.8H97v-84h118c5.5 0 10-4.5 10-10s-4.5-10-10-10H87c-5.5 0-10 4.5-10 10v104c0 5.5 4.5 10 10 10h272c5.5 0 10-4.5 10-10v-54.8c0-5.6-4.5-10-10-10zM359 520.9H247.2c-5.5 0-10 4.5-10 10s4.5 10 10 10H359c5.5 0 10-4.5 10-10s-4.5-10-10-10zM359 468.9H247.2c-5.5 0-10 4.5-10 10s4.5 10 10 10H359c5.5 0 10-4.5 10-10s-4.5-10-10-10zM359 572.9H247.2c-5.5 0-10 4.5-10 10s4.5 10 10 10H359c5.5 0 10-4.5 10-10s-4.5-10-10-10zM198.8 468.9h-55.9c-5.5 0-10 4.5-10 10s4.5 10 10 10h45.9v84H87c-5.5 0-10 4.5-10 10s4.5 10 10 10h111.8c5.5 0 10-4.5 10-10v-104c0-5.5-4.5-10-10-10zM407 366.4c-5.5 0-10 4.5-10 10v86.3c0 5.5 4.5 10 10 10s10-4.5 10-10v-86.3c0-5.5-4.5-10-10-10zM414.1 495.8c-1.9-1.9-4.4-2.9-7.1-2.9s-5.2 1.1-7.1 2.9c-1.9 1.9-2.9 4.4-2.9 7.1s1.1 5.2 2.9 7.1c1.9 1.9 4.4 2.9 7.1 2.9s5.2-1.1 7.1-2.9c1.9-1.9 2.9-4.4 2.9-7.1s-1.1-5.2-2.9-7.1z"/><path class="st0" d="M407 537.6c-5.5 0-10 4.5-10 10v99.3c0 5.5-4.5 10-10 10H59c-5.5 0-10-4.5-10-10v-59.1l60.5-47c10.9-8.5 15.9-22.1 13.1-35.6-2.1-10-8.3-18.6-17.1-23.8-8.8-5.1-19.4-6.3-29.1-3.1l-40.5 13.1c-5.3 1.7-8.1 7.3-6.4 12.6 1.7 5.3 7.3 8.1 12.6 6.4l40.5-13.1c4.4-1.4 8.9-.9 12.9 1.4s6.6 6 7.6 10.5c1.2 6-1 12-5.8 15.7l-64.4 50c-2.4 1.9-3.9 4.8-3.9 7.9v67.1c0 .8.1 1 .3.9 2 14.6 14.5 26 29.7 26h328c16.5 0 30-13.5 30-30v-99.3c0-5.4-4.5-9.9-10-9.9z"/><path class="st0" d="M263.3 232.9H59c-16.5 0-30 13.5-30 30v122.3L-39.4 489c-1.1 1.6-1.6 3.5-1.6 5.5v172.4c0 5.5 4.5 10 10 10s10-4.5 10-10V497.5l50-75.9v41.1c0 5.5 4.5 10 10 10s10-4.5 10-10V262.9c0-5.5 4.5-10 10-10h204.3c5.5 0 10-4.5 10-10s-4.4-10-10-10zM424.9 225.7c-3.9-3.9-10.2-3.9-14.1 0L385 251.4l-9.3-9.3c-3.9-3.9-10.2-3.9-14.1 0-3.9 3.9-3.9 10.2 0 14.1l16.4 16.4c2 2 4.5 2.9 7.1 2.9s5.1-1 7.1-2.9l32.8-32.8c3.8-3.9 3.8-10.2-.1-14.1z"/></svg>