<svg id="Слой_1" xmlns="http://www.w3.org/2000/svg" viewBox="-41 164.9 512 512"><style>.st0{fill:#369}</style><path class="st0" d="M276 638.4c-5 14.8-15.5 26.2-28.5 32.6-12.5 6.2-27.2 7.8-41.4 3.4L-2.5 604.1c-14.8-5-26.2-15.5-32.6-28.5-6.4-13-7.9-28.4-2.9-43.2l82.4-244c4.1-12 11.8-22.1 22.4-29.1l99.1-82.5c6.4-5.6 17.1-9.8 25.4-11.2 9.1-1.5 18.5-.8 27.3 2.2l74.5 25c9.9 3.4 18.3 9.2 24.7 16.6 6.5 7.5 10.9 16.7 12.8 26.5l28.8 125.7c1.5 5.4 2.1 11 1.9 16.4-.2 5.7-1.2 11.2-2.9 16.4l-13.1 38.9c8.5 2.9 17.7 5.5 27.5 7.6 5.4 1.2 8.8 6.5 7.6 11.9-1.2 5.4-6.5 8.8-11.9 7.6-10.6-2.4-20.4-5.1-29.6-8.2L276 638.4zM111.4 514.5c0-4.6-2.5-8-6.8-9.5l-52.1-17.5c-5.2-1.8-10.9 1.1-12.7 6.3-1.8 5.2 1.1 10.9 6.3 12.7l51.8 17.4c1.1.4 2.2.6 3.4.6 5.6 0 10.1-5 10.1-10zm67.6 15.6c-6.2-1.8-12.8 3.2-12.8 9.6 0 4.5 2.3 7.7 6.4 9.3.2.1.4.2.7.2l51.4 17.3c5.2 1.8 10.9-1.1 12.7-6.3s-1.1-10.9-6.3-12.7L179 530.1zm-40.4-12.8c-5.5 0-10 4.5-10 10s4.5 10 10 10 10-4.5 10-10-4.5-10-10-10zm70.2-227.7c.1-5.5 4.7-9.9 10.2-9.8 5.5.1 9.9 4.7 9.8 10.2 0 .1-.4 12.5 4 30.4.3-.1.6-.3.9-.4 7.7-3.8 14-10.6 16.9-19.3 3-8.8 2.1-18-1.7-25.7-3.8-7.7-10.6-14-19.3-16.9-8.8-3-18-2.1-25.7 1.7-7.7 3.8-14 10.6-16.9 19.3-3 8.8-2.1 18 1.7 25.7 3.8 7.7 10.6 14 19.3 16.9 1.6.6 3.3 1 5 1.3-4.7-19.7-4.2-33.2-4.2-33.4zm30.2 49.9c11.5 28.8 35.8 63.9 87.4 86.5l12.8-38.1c1.1-3.4 1.8-6.9 1.9-10.5.1-3.5-.3-7.1-1.3-10.7l-28.9-126.4c-1.2-6.7-3.9-12.7-8.4-17.8-4.1-4.8-9.5-8.5-15.9-10.7l-74.5-25c-5.7-1.9-11.8-2.4-17.7-1.4-1.5.2-12.7 4.5-16.1 7L78.1 275.8c-6.9 4.5-12.1 11.2-14.7 18.9l-82.4 244c-3.2 9.6-2.3 19.6 1.9 27.9 4.1 8.4 11.5 15.2 21 18.4l206.8 69.8c9.6 3.2 19.6 2.3 27.9-1.9 8.4-4.1 15.2-11.5 18.4-21L320 445c-60.7-26-88.3-67.8-100.8-101.6-20.4.1-39.3-11.4-48.5-29.9-13.1-26.6-2.3-58.8 24.3-71.9 26.6-13.1 58.8-2.3 71.9 24.3 6.1 12.3 7.5 26.9 2.8 40.9-4.7 14.1-14.7 24.9-27 31-1.3.7-2.5 1.2-3.7 1.7zM82.8 398.1l178.5 60.1c5.2 1.8 10.9-1.1 12.7-6.3s-1.1-10.9-6.3-12.7l-178.6-60c-5.2-1.8-10.9 1.1-12.7 6.3s1.1 10.9 6.4 12.6zm-18.3 54.2L243 512.4c5.2 1.8 10.9-1.1 12.7-6.3s-1.1-10.9-6.3-12.7L70.8 433.3c-5.2-1.8-10.9 1.1-12.7 6.3s1.1 11 6.4 12.7z"/></svg>