<svg xmlns="http://www.w3.org/2000/svg" viewBox="-62 185.9 470 470"><path d="M298.8 570.2c1.7-1.4 2.8-3.5 2.8-5.8v-341c0-4.1-3.4-7.5-7.5-7.5h-217c-5.4-17.4-21.5-30-40.6-30-18.8 0-35.2 12.5-40.6 30h-24c-4.1 0-7.5 3.4-7.5 7.5v425c0 4.1 3.4 7.5 7.5 7.5h238.2c2.4 0 4.5-1.1 5.9-2.8l82.8-82.9zm-81.2 60v-58.3H276l-58.4 58.3zM36.5 200.9c10.7 0 19.9 6.1 24.5 15H12c4.6-9 14-15 24.5-15zm-57.1 30H64v52.5c0 6.9-5.6 12.5-12.5 12.5S39 290.3 39 283.4v-30c0-4.1-3.4-7.5-7.5-7.5s-7.5 3.4-7.5 7.5v30c0 15.2 12.3 27.5 27.5 27.5S79 298.6 79 283.4v-52.5h207.6v326h-76.5c-4.1 0-7.5 3.4-7.5 7.5v76.5H-20.6v-410z"/><path d="M234.1 531.4c4.1 0 7.5-3.4 7.5-7.5s-3.4-7.5-7.5-7.5H31.9c-4.1 0-7.5 3.4-7.5 7.5s3.4 7.5 7.5 7.5h202.2zM31.9 486.4h202.3c4.1 0 7.5-3.4 7.5-7.5s-3.4-7.5-7.5-7.5H31.9c-4.1 0-7.5 3.4-7.5 7.5s3.3 7.5 7.5 7.5zM31.9 441.4h202.3c4.1 0 7.5-3.4 7.5-7.5s-3.4-7.5-7.5-7.5H31.9c-4.1 0-7.5 3.4-7.5 7.5s3.3 7.5 7.5 7.5zM31.9 396.4h202.3c4.1 0 7.5-3.4 7.5-7.5s-3.4-7.5-7.5-7.5H31.9c-4.1 0-7.5 3.4-7.5 7.5s3.3 7.5 7.5 7.5zM31.9 351.4h202.3c4.1 0 7.5-3.4 7.5-7.5s-3.4-7.5-7.5-7.5H31.9c-4.1 0-7.5 3.4-7.5 7.5s3.3 7.5 7.5 7.5zM334.1 215.9h-10c-4.1 0-7.5 3.4-7.5 7.5s3.4 7.5 7.5 7.5h2.5v410h-80.1c-4.1 0-7.5 3.4-7.5 7.5s3.4 7.5 7.5 7.5h87.6c4.1 0 7.5-3.4 7.5-7.5v-425c0-4.2-3.3-7.5-7.5-7.5zM374.1 215.9h-10c-4.1 0-7.5 3.4-7.5 7.5s3.4 7.5 7.5 7.5h2.5v410h-2.5c-4.1 0-7.5 3.4-7.5 7.5s3.4 7.5 7.5 7.5h10c4.1 0 7.5-3.4 7.5-7.5v-425c0-4.2-3.3-7.5-7.5-7.5z"/></svg>