<svg id="Слой_1" xmlns="http://www.w3.org/2000/svg" viewBox="-57 180.9 480 480"><style>.st0{fill:#0cf}</style><path class="st0" d="M415 340.9h-32c-4.4 0-8 3.6-8 8v8H263v-8c0-4.4-3.6-8-8-8h-32c-4.4 0-8 3.6-8 8v8H103v-8c0-4.4-3.6-8-8-8H63c-4.4 0-8 3.6-8 8v56H31c-39.7 0-72 32.3-72 72v104h-8c-4.4 0-8 3.6-8 8v64c0 4.4 3.6 8 8 8h464c4.4 0 8-3.6 8-8v-64c0-4.4-3.6-8-8-8h-64v-96h24v8c0 4.4 3.6 8 8 8h32c4.4 0 8-3.6 8-8v-144c0-4.4-3.6-8-8-8zm-128 240h-96v-96h24v8c0 4.4 3.6 8 8 8h32c4.4 0 8-3.6 8-8v-8h24v96zm-248 0v-88c0-4.4 3.6-8 8-8h8v8c0 4.4 3.6 8 8 8h32c4.4 0 8-3.6 8-8v-8h24v96H39zm136-80h-32v-16h32v16zm-32 16h32v64h-32v-64zm88-160h16v128h-16v-128zm-16 16v16h-32v16h32v64h-24v-24h-16v24h-72v-96h112zm-144-16h16v128H71v-128zm-96 120c0-30.9 25.1-56 56-56h24v48h-8c-13.3 0-24 10.7-24 24v88H7v-16H-9v16h-16v-104zm-16 120H68.8l-12 48H-41v-48zm448 48H73.2l12-48H407v48zm-104-64v-64h32v64h-32zm32-80h-32v-16h32v16zm16-32v-24h-16v24h-72v-64h64v-16h-64v-16h112v96h-24zm56 16h-16v-128h16v128z"/><path class="st0" d="M103 612.9h16v16h-16v-16zM295 612.9h48v16h-48v-16zM167 612.9h32v16h-32v-16zM239 612.9h16v16h-16v-16zM-9 508.9H7v32H-9v-32zM7 476.9c0-13.3 10.7-24 24-24h8v-16h-8c-22.1 0-40 17.9-40 40v16H7v-16zM-25 612.9h16v16h-16v-16zM7 612.9h16v16H7v-16zM151 388.9h16v16h-16v-16zM199 252.9h144c4.4 0 8-3.6 8-8v-8c.6-8.7-2.6-17.2-8.7-23.3-6.1-6.1-14.6-9.3-23.3-8.7h-2.5c-7.3-16.1-22.2-24-45.5-24-21.8 0-39 9.2-45.7 24H223c-8.5-.2-16.8 3.1-22.8 9.2s-9.4 14.3-9.2 22.8v8c0 4.4 3.6 8 8 8zm24-32h8c3.7 0 6.9-2.6 7.8-6.2 3.1-13.2 19.3-17.8 32.2-17.8 23.4 0 29.4 8.8 32.4 18.4 1.1 3.3 4.1 5.6 7.6 5.6h8c4.4-.5 8.8 1 11.9 4.1 3.1 3.1 4.6 7.5 4.1 11.9H207c-.2-4.3 1.4-8.5 4.5-11.5 3-3.1 7.2-4.7 11.5-4.5zM140.5 252.9c-7.3-16.1-22.2-24-45.5-24-21.8 0-39 9.2-45.7 24H47c-8.5-.2-16.8 3.1-22.8 9.2s-9.4 14.3-9.2 22.8v8c0 4.4 3.6 8 8 8h144c4.4 0 8-3.6 8-8v-8c.6-8.7-2.6-17.2-8.7-23.3-6.1-6.1-14.6-9.3-23.3-8.7h-2.5zm18.5 32H31c-.2-4.3 1.4-8.5 4.5-11.5 3-3 7.2-4.7 11.5-4.5h8c3.7 0 6.9-2.6 7.8-6.2 3.1-13.2 19.3-17.8 32.2-17.8 23.4 0 29.4 8.8 32.4 18.4 1.1 3.3 4.1 5.6 7.6 5.6h8c4.4-.5 8.8 1 11.9 4.1 3.1 3.1 4.6 7.5 4.1 11.9z"/></svg>