<?xml version="1.0" encoding="utf-8"?>
<!-- Generator: Adobe Illustrator 21.0.0, SVG Export Plug-In . SVG Version: 6.00 Build 0)  -->
<svg version="1.1" id="Слой_1" xmlns="http://www.w3.org/2000/svg" xmlns:xlink="http://www.w3.org/1999/xlink" x="0px" y="0px"
	 viewBox="0 0 52 52" style="enable-background:new 0 0 52 52;" xml:space="preserve">
<style type="text/css">
	.st0{fill:#EFD3B4;}
</style>
<g>
	<path class="st0" d="M9.6,34.1L9.6,34.1l30.2,0.1l0.3,0c0.9-0.2,1.8-0.5,2.8-0.9c3.8-2,6-4.9,6.4-8.3h0.4c0.7,0,1.2-0.5,1.4-1.3
		c0-0.7-0.6-1.3-1.3-1.3h-0.5c-0.2-1.4-0.8-3.2-2.3-4.8c-0.5-0.5-2.1-2-4.5-2.3c-0.5-0.1-1.2-0.2-1.8-0.2c0.1-0.3,0.1-0.5,0.1-0.8
		h5.4c0.6,0,1.3-0.5,1.3-1.3c0-0.7-0.6-1.3-1.3-1.3h-5.5c0-0.3-0.1-0.5-0.2-0.8l0-0.1c-0.6-1.7-1.8-3.1-3.5-4.1
		c-0.1-0.1-3.4-1.7-6.4-0.9c-2.1,0.7-3.6,2.4-4.3,3.4c-0.7-0.5-1.7-1.1-2.6-1.4C22,7.3,20.5,7.1,19,7.3c-1.4,0.1-4.4,1-6.5,3.5
		c-0.8,0.9-1.3,1.8-1.7,2.8H3.5c-0.7,0-1.3,0.6-1.3,1.3s0.6,1.3,1.3,1.3h6.8c-0.1,0.6-0.1,1.1-0.1,1.6c-0.3,0-0.7,0.1-1.1,0.1
		c-0.3,0-0.6,0-0.8,0.1c-3.4,0.4-5.4,3.5-5.4,3.5c-1.5,2.2-1.8,5.2-0.6,7.9c1.5,3.3,4.7,4.8,7.1,4.9H9.6z M11.9,19.6
		c0.2-0.2,0.4-0.4,0.4-0.9c0,0-0.1-1.3,0-2.6h5c0.7,0,1.3-0.6,1.3-1.3c0-0.7-0.6-1.3-1.3-1.3h-4.2c0.4-0.6,0.7-1,0.9-1.3
		c1.9-2.2,4.5-2.7,5-2.7c1.1-0.2,2.3,0,3.6,0.4c1.2,0.4,3,1.8,3,1.8c0.3,0.2,0.5,0.4,1,0.3c0.2-0.1,0.6-0.3,0.7-0.6
		c0,0,1.6-2.8,3.7-3.4c1.9-0.6,4.3,0.4,4.6,0.6c1.3,0.7,2.1,1.7,2.5,2.8c0,0,0,0.1,0.1,0.2h-5.8c-0.7,0-1.2,0.6-1.2,1.3
		c0,0.7,0.6,1.3,1.3,1.3h5.8c0,0.2-0.1,0.5-0.2,0.7c0,0.3-0.2,0.4-0.2,0.4c-0.3,0.3-0.3,0.8,0,1.2c0.2,0.3,0.6,0.6,1,0.6
		c0,0,1.9,0,3.1,0.2c1.4,0.2,2.4,1,3,1.5c0.1,0.1,0.2,0.1,0.2,0.2c1.1,1,1.5,2.3,1.7,3.3H36c-0.7,0-1.3,0.6-1.3,1.3
		c0,0.7,0.6,1.3,1.3,1.3h10.9c-0.8,3.9-4.9,5.9-5.2,6c-0.6,0.4-1.3,0.6-2,0.8H9.4c-1.9-0.1-4.2-1.3-5.2-3.5c-0.8-2-0.6-4.1,0.5-5.7
		c0,0,1.4-2.2,3.7-2.5c0.9-0.1,2.1-0.1,2.6-0.1c0,0,0,0,0,0l0,0.1C11.5,20,11.7,19.9,11.9,19.6z"/>
	<path class="st0" d="M16.9,22.3h13.7c0.7,0,1.2-0.5,1.3-1.3c0-0.7-0.6-1.3-1.3-1.3H16.9c-0.7,0-1.3,0.6-1.3,1.3
		S16.2,22.3,16.9,22.3z"/>
	<path class="st0" d="M18.8,42.3H5c-0.7,0-1.3,0.6-1.3,1.3s0.6,1.3,1.3,1.3h13.7c0.7,0,1.2-0.5,1.3-1.3C20,42.9,19.5,42.3,18.8,42.3
		z"/>
	<path class="st0" d="M36.4,38c0-0.7-0.6-1.3-1.3-1.3H21.4c-0.7,0-1.3,0.6-1.3,1.3s0.6,1.3,1.3,1.3H35C35.6,39.3,36.3,38.8,36.4,38z
		"/>
	<path class="st0" d="M49.8,46H36c-0.7,0-1.3,0.6-1.3,1.3s0.6,1.3,1.3,1.3h13.7c0.6,0,1.1-0.6,1.3-1.2l0-0.1
		C51,46.5,50.5,46,49.8,46z"/>
</g>
</svg>
