<?xml version="1.0" encoding="utf-8"?>
<!-- Generator: Adobe Illustrator 21.0.0, SVG Export Plug-In . SVG Version: 6.00 Build 0)  -->
<svg version="1.1" id="Слой_1" xmlns="http://www.w3.org/2000/svg" xmlns:xlink="http://www.w3.org/1999/xlink" x="0px" y="0px"
	 viewBox="0 0 52 52" style="enable-background:new 0 0 52 52;" xml:space="preserve">
<style type="text/css">
	.st0{fill:#EFD3B4;}
</style>
<g>
	<path class="st0" d="M28.6,35.3c-0.2-0.2-0.3-0.4-0.3-0.7V21.3h0l0-0.4c-0.1-4.5,0-9,0.1-13.4c0-2.4-2-4.4-4.4-4.4
		c-2.5,0-4.4,1.9-4.4,4.5v27c0,0.5-0.1,0.6-0.3,0.7c-2.8,2.1-3.7,5.9-2.2,9.1c1.3,2.7,4,4.4,6.9,4.4c0.5,0,1-0.1,1.5-0.2
		c3.2-0.8,5.1-2.7,5.8-5.7C32,39.9,31,37.1,28.6,35.3z M26.4,36.6c1.5,1,2.3,2.2,2.5,3.7c0.2,1.4-0.1,2.8-1,3.9
		c-0.8,1.1-1.9,1.7-3.1,1.9c-2.9,0.4-5.6-1.4-6.2-4.1c-0.3-2.2,0.3-3.9,2.1-5.3c0.8-0.6,1.1-1.1,1.1-2.1V7.5c0-1.3,0.8-2.2,2.1-2.2
		c1.1,0,2,1,2,2.2v13.9c0,4.8,0,9.3-0.1,13.9C25.8,35.8,25.9,36.2,26.4,36.6z"/>
	<rect x="11.4" y="9.4" class="st0" width="5.6" height="2.3"/>
	<rect x="11.5" y="19" class="st0" width="5.6" height="2.3"/>
	<rect x="11.4" y="28.7" class="st0" width="5.6" height="2.3"/>
	<rect x="13" y="4.6" class="st0" width="3.9" height="2.3"/>
	<rect x="13" y="14.3" class="st0" width="3.9" height="2.3"/>
	<rect x="13" y="24" class="st0" width="3.9" height="2.3"/>
	<rect x="13" y="33.5" class="st0" width="3.9" height="2.3"/>
	<path class="st0" d="M44.1,11.4l-2.6,0V8.9c0-0.4-0.3-0.7-0.7-0.7h-1.2c-0.4,0-0.7,0.3-0.7,0.7l0,2.7h-2.6c-0.4,0-0.7,0.3-0.7,0.7
		v1c0,0.4,0.3,0.7,0.7,0.7l2.6,0v2.7c0,0.4,0.3,0.7,0.7,0.7h1.2c0.4,0,0.7-0.3,0.7-0.7l0-2.7h2.6c0.4,0,0.7-0.3,0.7-0.7v-1.2
		C44.8,11.7,44.5,11.4,44.1,11.4z"/>
	<rect x="35.8" y="37.4" class="st0" width="8.6" height="2.3"/>
</g>
</svg>
