<svg width="25" height="24" viewBox="0 0 25 24" fill="none" xmlns="http://www.w3.org/2000/svg">
<g clip-path="url(#clip0)">
<path d="M22.0988 13.5V21C22.0988 21.2652 21.9934 21.5196 21.8059 21.7071C21.6183 21.8946 21.364 22 21.0988 22H20.0988C19.8335 22 19.5792 21.8946 19.3916 21.7071C19.2041 21.5196 19.0988 21.2652 19.0988 21V20H5.09875V21C5.09875 21.2652 4.9934 21.5196 4.80586 21.7071C4.61833 21.8946 4.36397 22 4.09875 22H3.09875C2.83354 22 2.57918 21.8946 2.39165 21.7071C2.20411 21.5196 2.09875 21.2652 2.09875 21V13.5L0.855755 13.19C0.639508 13.1358 0.447563 13.011 0.31041 12.8352C0.173257 12.6595 0.0987607 12.4429 0.0987549 12.22L0.0987549 11.5C0.0987549 11.3674 0.151433 11.2402 0.245201 11.1464C0.33897 11.0527 0.466147 11 0.598755 11H2.47375L4.61175 5.298C4.75469 4.91669 5.01061 4.5881 5.34531 4.35615C5.68001 4.1242 6.07754 3.99995 6.48476 4H17.7128C18.12 3.99995 18.5175 4.1242 18.8522 4.35615C19.1869 4.5881 19.4428 4.91669 19.5858 5.298L21.7238 11H23.5988C23.7314 11 23.8585 11.0527 23.9523 11.1464C24.0461 11.2402 24.0988 11.3674 24.0988 11.5V12.22C24.0987 12.4429 24.0243 12.6595 23.8871 12.8352C23.7499 13.011 23.558 13.1358 23.3418 13.19L22.0988 13.5ZM4.09875 15V17C4.09875 17.2652 4.20411 17.5196 4.39165 17.7071C4.57918 17.8946 4.83354 18 5.09875 18H8.34375C8.4301 17.9999 8.51493 17.9774 8.59 17.9347C8.66507 17.892 8.72781 17.8307 8.77211 17.7566C8.81642 17.6825 8.84078 17.5981 8.84282 17.5118C8.84486 17.4255 8.82451 17.3401 8.78376 17.264C7.97876 15.754 6.41675 15 4.09875 15ZM20.0988 15C17.7818 15 16.2198 15.755 15.4128 17.264C15.372 17.3402 15.3516 17.4257 15.3537 17.5121C15.3558 17.5985 15.3802 17.6829 15.4247 17.757C15.4691 17.8311 15.532 17.8925 15.6072 17.9351C15.6824 17.9777 15.7673 18 15.8538 18H19.0988C19.364 18 19.6183 17.8946 19.8059 17.7071C19.9934 17.5196 20.0988 17.2652 20.0988 17V15ZM6.09875 6L4.53776 10.684C4.48771 10.8343 4.47407 10.9942 4.49795 11.1508C4.52183 11.3074 4.58255 11.456 4.67512 11.5845C4.76769 11.713 4.88945 11.8177 5.03038 11.8899C5.17131 11.9621 5.32739 11.9999 5.48575 12H18.7118C18.8701 11.9999 19.0262 11.9621 19.1671 11.8899C19.3081 11.8177 19.4298 11.713 19.5224 11.5845C19.615 11.456 19.6757 11.3074 19.6996 11.1508C19.7234 10.9942 19.7098 10.8343 19.6598 10.684L18.0988 6H6.09875Z" fill="white"/>
</g>
<defs>
<clipPath id="clip0">
<rect width="24" height="24" fill="white" transform="translate(0.0987549)"/>
</clipPath>
</defs>
</svg>
