<svg width="36" height="35" viewBox="0 0 36 35" fill="none" xmlns="http://www.w3.org/2000/svg">
<path d="M18.0156 24.3906C19.9882 24.3906 21.8799 23.607 23.2747 22.2122C24.6695 20.8174 25.4531 18.9257 25.4531 16.9531C25.4531 14.9806 24.6695 13.0888 23.2747 11.694C21.8799 10.2992 19.9882 9.51562 18.0156 9.51562C16.0431 9.51563 14.1513 10.2992 12.7565 11.694C11.3617 13.0888 10.5781 14.9806 10.5781 16.9531C10.5781 18.9257 11.3617 20.8174 12.7565 22.2122C14.1513 23.607 16.0431 24.3906 18.0156 24.3906ZM18.0156 26.25C12.881 26.25 8.71875 22.0878 8.71875 16.9531C8.71875 11.8185 12.881 7.65625 18.0156 7.65625C23.1503 7.65625 27.3125 11.8185 27.3125 16.9531C27.3125 22.0878 23.1503 26.25 18.0156 26.25ZM15.1243 18.0409L12.8019 17.3166C12.2999 17.1632 12.2971 16.8174 12.9144 16.5692L21.9631 13.0735C22.4884 12.8597 22.7859 13.1302 22.6157 13.808L21.0752 21.0781C20.9674 21.596 20.6559 21.7196 20.2236 21.4807L17.852 19.7255L16.7466 20.7927C16.6332 20.9024 16.5411 20.9963 16.3664 21.0196C16.1925 21.0438 16.0493 20.9917 15.9443 20.7035L15.1355 18.0344L15.1243 18.0409Z" fill="white"/>
</svg>
