<svg width="36" height="35" viewBox="0 0 36 35" fill="none" xmlns="http://www.w3.org/2000/svg">
<path d="M19.8073 23.3333H24.3646V10.5729H11.6042V23.3333H17.9844V18.776H16.1615V16.9531H17.9844V15.4456C17.9844 14.227 18.112 13.7849 18.349 13.3392C18.5824 12.8982 18.9432 12.5377 19.3844 12.3047C19.7326 12.1178 20.1655 12.0057 20.922 11.9574C21.2219 11.9383 21.6102 11.962 22.0868 12.0303V13.7621H21.6302C20.7944 13.7621 20.449 13.8013 20.243 13.9116C20.1201 13.9748 20.02 14.0749 19.9568 14.1978C19.8474 14.4038 19.8073 14.6079 19.8073 15.4447V16.9531H22.0859L21.6302 18.776H19.8073V23.3333ZM10.6927 8.75H25.276C25.5178 8.75 25.7496 8.84603 25.9205 9.01696C26.0915 9.18789 26.1875 9.41972 26.1875 9.66146V24.2448C26.1875 24.4865 26.0915 24.7184 25.9205 24.8893C25.7496 25.0602 25.5178 25.1562 25.276 25.1562H10.6927C10.451 25.1562 10.2191 25.0602 10.0482 24.8893C9.87728 24.7184 9.78125 24.4865 9.78125 24.2448V9.66146C9.78125 9.41972 9.87728 9.18789 10.0482 9.01696C10.2191 8.84603 10.451 8.75 10.6927 8.75Z" fill="white"/>
</svg>
