<svg width="35" height="35" viewBox="0 0 35 35" fill="none" xmlns="http://www.w3.org/2000/svg">
<path d="M24.1553 13.5581C24.0888 13.2974 23.8997 13.1005 23.6836 13.0401C23.3012 12.9325 21.4375 12.6875 17.5 12.6875C13.5625 12.6875 11.7005 12.9325 11.3146 13.0401C11.1011 13.0996 10.9121 13.2965 10.8447 13.5581C10.7494 13.9291 10.5 15.484 10.5 17.9375C10.5 20.391 10.7494 21.945 10.8447 22.3178C10.9112 22.5776 11.1003 22.7745 11.3155 22.834C11.7005 22.9425 13.5625 23.1875 17.5 23.1875C21.4375 23.1875 23.3004 22.9425 23.6854 22.8349C23.8989 22.7754 24.0879 22.5785 24.1553 22.3169C24.2506 21.9459 24.5 20.3875 24.5 17.9375C24.5 15.4875 24.2506 13.93 24.1553 13.5581ZM25.8501 13.1233C26.25 14.6825 26.25 17.9375 26.25 17.9375C26.25 17.9375 26.25 21.1925 25.8501 22.7518C25.6279 23.6136 24.9778 24.2917 24.1544 24.521C22.659 24.9375 17.5 24.9375 17.5 24.9375C17.5 24.9375 12.3436 24.9375 10.8456 24.521C10.0187 24.2882 9.3695 23.611 9.14988 22.7518C8.75 21.1925 8.75 17.9375 8.75 17.9375C8.75 17.9375 8.75 14.6825 9.14988 13.1233C9.37213 12.2614 10.0222 11.5832 10.8456 11.354C12.3436 10.9375 17.5 10.9375 17.5 10.9375C17.5 10.9375 22.659 10.9375 24.1544 11.354C24.9813 11.5867 25.6305 12.264 25.8501 13.1233ZM15.75 21V14.875L21 17.9375L15.75 21Z" fill="white"/>
</svg>
