<svg xmlns="http://www.w3.org/2000/svg" width="785.621" height="328.955" viewBox="0 0 785.621 328.955">
  <path id="image_footer" d="M-5057.579,385.4c4.3-2.737,8.82-5.293,12.086-6.248,8.333-2.469,29.2-22.769,40.136-25.526,8.468-22.9,64.065-69.706,73.019-74.819s23.62-7.182,23.62-7.182,15.966-19.9,24.81-30.663,20.18-17.41,29.242-19.478a17.148,17.148,0,0,0,11.974-9.225s8.536,4.445,13.829,7.224c1.212,1.58,2.03,12.231,2.559,24.3-4.741-17.19-10.563-19.79-10.563-19.79s-6.044,21.1-7.543,31.106c-1.521,10.005-7.343,33.485-17.048,50.25,17.246-13.274,28.031-32.194,28.031-32.194s-1.721,15.23-21.349,36.108-35.6,30.662-47.9,36.108c-11.912,5.249-35.374,30.952-36.83,32.532,1.3-1.935,25.648-37.4,42.452-47.984,16.717-10.54,27.169-28.415,27.81-29.526-.95.734-26.2,20.809-43.137,31.482-17.268,10.874-52,19.145-52,19.145s30.215-18.277,45.741-32.194c-32.991,14.584-67.727,35.462-85.854,49.6-18.129,14.118-35.4,14.787-53.5,19.344Zm148.86-99.414s10.782.423,17.488-3.911c6.483-4.226,16.8-14.764,17.443-15.433C-4874.714,267.138-4897.517,279.588-4908.719,285.991Zm275.981,101.137a.2.2,0,0,1-.044.007Zm51.95-33.707c17.473-16.531,21.356-21.317,37.105-29.582s25.672-13.486,37.757-11.747,22.434,20.445,28.045,26.1,8.415,10.759,9.924,11.253,15.1,3.974,21.359,8.759,19.414,15.66,19.414,15.66-12.3-7.613-23.3-13.486-13.376-1.956-19.417-5-27.614-31.973-32.792-33.933-12.728-1.739-12.728-1.739l12.3,7.251s-8.486-1.886-14.815,3.336-48.039,36.977-51.2,39.152-26.681,10.3-26.681,10.3l31.784-26.175s-36.89,18.481-41.493,24.212c-4.484,5.585-26.1,9.17-27.211,9.351C-4631.127,386.73-4598.057,369.755-4580.787,353.421Zm-77.515-8.929c7.035-4.491,23.288-3.18,29.771-5.781,6.461-2.625,16.388-10.9,22.428-20.3,10.213-.312,38.838-7.271,52.8-15.1,13.5-7.583,40.379-21.567,42.036-22.435a117.065,117.065,0,0,0-28.23,10.538c-13.959,7.562-30.058,11.185-39.276,11.607-9.2.446-24.878,3.491-52.356,8.4,7.345-6.358,55.951-15.653,60.4-22.9-5.159,2.469-8.623,1.155-8.623,1.155s13.674-15.941,20.709-25.369c6.835-9.14,37.14-40.868,39.035-42.846l-33.852,28.192,26.509-41.734c7.035-5.047,16.318-11.738,20.817-15.252,7.765-6.094,15.526-23.281,17.908-23.481a95.324,95.324,0,0,1,11.027,0l7.188,8.361s-6.151-3.69-9.063-3.69-8.8,4.311-8.8,4.311,4.9-1.734,6.178-1.734c1.3,0,3.174,3.336,8.2,8.85,5.028,5.491,13.8,19.721,13.8,19.721l-15.678-14.23s-2.737,31.485-2.007,36.4c.706,4.779,6.526,18.809,6.88,19.678l-21.522-27.326c.505,1.2,17.268,39.6,19.956,50.427,2.737,11.027-1.433,25.969-1.433,25.969s.861-14.653-1.588-19.587-14.224-23.927-14.224-23.927,3.308,21.747,3.308,26.394-10.653,8.982-26.331,20.879-49.468,21.743-63.075,23.923c-13.585,2.18-34.866,17.41-34.866,17.41l41.572-11.9c-13.387,9.293-61.287,22.481-69.47,28.126-8.2,5.67-20.864,5.094-26.751,5.094-5.909,0-18.126,7.67-30.058,19.121C-4689.375,367.55-4665.36,349.005-4658.3,344.492Zm-187.411,8.382c5.492-1.089,38.727-5.98,44.547-7.826s7.764-5.448,14.182-11.852c6.418-6.426,20.223-15.008,30.366-24.79,9.835-9.5,22.582-26.837,23.354-27.929-.881.692-15.172,12.073-25.292,19.545s-27.061,12.919-28.12,13.252l22.3-14.986s7.652-23.056,6.9-27.081-2.491-7.07.86-17.3,5.4-25.772,5.4-25.772l-6.9,16.967a25.456,25.456,0,0,1-.885-11.1c.972-5.648,9.616-32.083,9.616-32.083a143.236,143.236,0,0,0-13.5,27.415c-6.042,16.3-6.24,21.966-13.7,35.662-7.43,13.7-23.729,31.219-23.729,31.219l12.834-22.835s-14.245,11.739-20.488,16.3c-6.064,4.448-31.162,42.735-32.726,45.138,1.1-2.18,17.621-34.4,27.015-47.628,9.7-13.718,25.01-21.657,29.111-25.792,4.1-4.114,7.653-11.3,11-20.77-1.609-7.936,6.042-25.924,15.57-48.938,0-.02.021-.02.021-.043.175-.423.352-.823.552-1.224.2-.423.4-.845.594-1.245a1.2,1.2,0,0,1,.176-.377c5.007-10.05,13.189-16.967,20.311-21.435.045-.023.068-.046.111-.066a66.552,66.552,0,0,1,13.894-6.671.167.167,0,0,1,.065-.023l-12.988,48.738s16.386-37.266,21.568-50.027c5.028-12.364,12.261-29.284,12.7-30.328a.075.075,0,0,0,.021-.046l14.291-8.937a81.9,81.9,0,0,0,16.85-4.471c9.063-3.492,19.339-18.145,19.339-18.145L-4668.1,106.6l25.6-46.6h19.627l13.8,17.609a57.64,57.64,0,0,1,11.666,3.912c6.464,2.847,19.54,38.733,22.783,47l-8.865-4.914c4.961,11.318,11.753,12.519,20.862,18.009.023,0,.023.023.043.023a25.575,25.575,0,0,1,7.343,6.828,31.542,31.542,0,0,1,3.926,7.18c.067.2.155.4.2.557a4.008,4.008,0,0,0,.155.446c.153.443.219.688.219.688l.024.043,12.283,47.2v12.665l-28.668-38.834,19.319,17.944s-11.116-31.64-13.387-37.065c-2.271-5.448-14.667-17.855-18.129-19.144-3.44-1.311-7.21-8.829-7.873-15.23-.639-6.428-3.02-18.278-6.9-24.37s-9.924-12.185-16.717-13.921c3.132,3.8,3.661,14.476,3.661,14.476s-14.225-30.995-16.939-32.085c-2.688-1.089-9.7,0-9.7,0a45.819,45.819,0,0,1,5.293,15.32c-3.77-2.824-6.484-9.784-6.484-9.784s-2.139,8.717-.418,12.941A187.527,187.527,0,0,0-4626,105.67c3.353,5.757.221,24.035.221,24.035s-1.721-13.384-2.051-16.964c-.308-3.58-2.358-8.05-8.181-13.165-1.3,6.094-14.8,33.508-18.679,34.043-3.883.555-9.263,5.226-14.556,14.142-5.206,8.782-25.758,53.807-26.4,55.206l35.24-52.917-26.088,62.726c.948-.623,31.293-20.413,39.673-21.081,8.27-.623,37.029,7.139,38.75,7.6-1.766-.244-32.309-4.425-37.336-3.8-5.183.669-42.278,23.392-59.876,38.511-17.024,14.653-39.321,38.266-40.709,39.733,1.124-.866,16.583-13.207,26.153-19.187,9.927-6.182,37.536-16.187,37.536-16.187s-23.288,14.119-26.86,20.21c-3.552,6.094-12.947,24.036-22.871,36.977s-23.508,25.68-29.992,32.862c-6.462,7.159-7.873,7.94-25.119,17.276,11.976-.977,44.769-7.826,63.1-15.765-20.6,17.721-61.706,25.238-72.27,25.348s-53.833,10.316-58.575,10.65-32.353,11.851-32.353,11.851S-4851.227,353.965-4845.713,352.874Zm538.06-.977c-9.352-5.071-15.966-9.562-26.179-12.185-10.21-2.6-26.331-17.1-26.331-17.1l16.121,4.781s-20.42-23.347-26.751-27.55-8.357-4.779-11.666-11.762c-3.31-6.959-11.357-12.9-14.38-20.012-3.021-7.091-5.183-11.45-10.782-14.339-5.425-2.826-18.152-19.1-18.944-20.124l15.79,11.562s-11.093-14.364-11.955-19.855c-.857-5.514-4.166-9.14-17.245-21.768l2.757-.311a16.367,16.367,0,0,0,3.572,2.268c10.785,4.8,17.689,8.493,19.848,19.365,2.139,10.872,10.564,16.521,18.769,23.5,8.183,6.96,12.723,25.369,21.061,34.063s18.415,14.5,28.755,21.458c10.367,6.96,14.117,15.676,22.452,28.726,3.705,5.8,12.084,8.116,29.905,17.967,4.985,2.757,11.047,7.359,17.2,12.585,1.036,2.2,1.654,3.511,1.654,3.511S-4298.3,356.965-4307.653,351.9Zm-366.479-7.686s-8.053,11.747-19.128,15.371C-4686.716,349.445-4680.424,347.4-4674.133,344.211Zm298.3-11.02c-5.611-6.092-14.024-20.228-14.024-20.228,9.278,8.265,41.639,33.931,41.639,33.931S-4370.226,339.281-4375.833,333.191Zm-199.561-111.8-3.452,28.059-13.591,13.486Zm-239.364,30.017c3.129-.217,5.287-.164,9.815,5.71l-2.858,2.392S-4812.816,251.732-4814.759,251.407Z" transform="translate(5058.627 -59.5)" fill="#fff" stroke="rgba(0,0,0,0)" stroke-miterlimit="10" stroke-width="1" opacity="0.12"/>
</svg>
