<svg width="66" height="66" viewBox="0 0 66 66" fill="none" xmlns="http://www.w3.org/2000/svg">
<path d="M33 0C26.4732 0 20.093 1.93542 14.6662 5.5615C9.23937 9.18759 5.00968 14.3415 2.51199 20.3714C0.0142984 26.4014 -0.639212 33.0366 0.6341 39.438C1.90741 45.8393 5.05036 51.7194 9.66549 56.3345C14.2806 60.9496 20.1607 64.0926 26.562 65.3659C32.9634 66.6392 39.5986 65.9857 45.6286 63.488C51.6585 60.9903 56.8124 56.7606 60.4385 51.3338C64.0646 45.907 66 39.5268 66 33C65.9908 24.2507 62.511 15.8624 56.3243 9.67568C50.1376 3.48898 41.7493 0.00923942 33 0ZM33 60.9231C27.4773 60.9231 22.0787 59.2854 17.4868 56.2172C12.8949 53.149 9.31588 48.788 7.20245 43.6857C5.08902 38.5834 4.53605 32.969 5.61347 27.5525C6.69089 22.1359 9.3503 17.1605 13.2554 13.2554C17.1605 9.35029 22.1359 6.69087 27.5525 5.61346C32.969 4.53604 38.5834 5.08901 43.6857 7.20244C48.788 9.31587 53.149 12.8948 56.2172 17.4868C59.2854 22.0787 60.9231 27.4773 60.9231 33C60.9147 40.4031 57.9701 47.5005 52.7353 52.7353C47.5006 57.9701 40.4031 60.9147 33 60.9231ZM44.5627 30.8867L29.3319 20.7329C28.9495 20.4778 28.5051 20.3313 28.0459 20.309C27.5868 20.2868 27.1302 20.3896 26.725 20.6066C26.3197 20.8235 25.981 21.1465 25.7449 21.5409C25.5089 21.9353 25.3843 22.3865 25.3846 22.8461V43.1538C25.3843 43.6135 25.5089 44.0646 25.7449 44.4591C25.981 44.8535 26.3197 45.1764 26.725 45.3934C27.1302 45.6104 27.5868 45.7132 28.0459 45.691C28.5051 45.6687 28.9495 45.5222 29.3319 45.2671L44.5627 35.1133C44.9109 34.8815 45.1964 34.5674 45.3939 34.1987C45.5914 33.83 45.6948 33.4182 45.6948 33C45.6948 32.5817 45.5914 32.17 45.3939 31.8013C45.1964 31.4326 44.9109 31.1184 44.5627 30.8867ZM30.4615 38.4101V27.6058L38.5783 33L30.4615 38.4101Z" fill="white"/>
</svg>
