<svg width="25" height="20" viewBox="0 0 25 20" fill="none" xmlns="http://www.w3.org/2000/svg">
<path d="M24.6079 10.7076L15.6079 19.7076C15.4202 19.8952 15.1658 20.0006 14.9004 20.0006C14.635 20.0006 14.3805 19.8952 14.1929 19.7076C14.0052 19.5199 13.8998 19.2654 13.8998 19.0001C13.8998 18.7347 14.0052 18.4802 14.1929 18.2926L21.4866 11.0001H1.90039C1.63517 11.0001 1.38082 10.8947 1.19328 10.7072C1.00575 10.5196 0.900391 10.2653 0.900391 10.0001C0.900391 9.73485 1.00575 9.4805 1.19328 9.29296C1.38082 9.10542 1.63517 9.00007 1.90039 9.00007H21.4866L14.1929 1.70757C14.0052 1.51993 13.8998 1.26543 13.8998 1.00007C13.8998 0.734704 14.0052 0.480208 14.1929 0.292568C14.3805 0.104927 14.635 -0.000488281 14.9004 -0.000488281C15.1658 -0.000488281 15.4202 0.104927 15.6079 0.292568L24.6079 9.29257C24.7009 9.38544 24.7746 9.49573 24.825 9.61713C24.8753 9.73853 24.9012 9.86865 24.9012 10.0001C24.9012 10.1315 24.8753 10.2616 24.825 10.383C24.7746 10.5044 24.7009 10.6147 24.6079 10.7076Z" fill="white"/>
</svg>
