<svg width="16" height="16" viewBox="0 0 16 16" fill="none" xmlns="http://www.w3.org/2000/svg">
<path d="M8.35502 4.87202C7.66625 4.87202 6.99294 5.07627 6.42024 5.45893C5.84754 5.84159 5.40118 6.38549 5.1376 7.02183C4.87401 7.65818 4.80505 8.3584 4.93942 9.03394C5.0738 9.70948 5.40547 10.33 5.89251 10.817C6.37955 11.3041 7.00008 11.6358 7.67562 11.7701C8.35116 11.9045 9.05138 11.8355 9.68773 11.572C10.3241 11.3084 10.868 10.862 11.2506 10.2893C11.6333 9.71662 11.8375 9.04331 11.8375 8.35454C11.8366 7.43121 11.4694 6.54598 10.8165 5.89309C10.1636 5.24019 9.27835 4.87298 8.35502 4.87202ZM8.35502 10.6762C7.89584 10.6762 7.44697 10.54 7.06517 10.2849C6.68337 10.0298 6.3858 9.66723 6.21007 9.243C6.03435 8.81877 5.98837 8.35196 6.07796 7.9016C6.16754 7.45124 6.38866 7.03755 6.71335 6.71286C7.03804 6.38817 7.45173 6.16705 7.90209 6.07747C8.35245 5.98789 8.81926 6.03386 9.24349 6.20958C9.66772 6.38531 10.0303 6.68288 10.2854 7.06468C10.5405 7.44648 10.6767 7.89535 10.6767 8.35454C10.6767 8.97028 10.4321 9.56081 9.9967 9.99621C9.5613 10.4316 8.97077 10.6762 8.35502 10.6762ZM11.8375 0.809082H4.87251C3.7953 0.810234 2.76255 1.23866 2.00085 2.00036C1.23915 2.76206 0.810723 3.79481 0.80957 4.87202V11.8371C0.810723 12.9143 1.23915 13.947 2.00085 14.7087C2.76255 15.4704 3.7953 15.8988 4.87251 15.9H11.8375C12.9147 15.8988 13.9475 15.4704 14.7092 14.7087C15.4709 13.947 15.8993 12.9143 15.9005 11.8371V4.87202C15.8993 3.79481 15.4709 2.76206 14.7092 2.00036C13.9475 1.23866 12.9147 0.810234 11.8375 0.809082ZM14.7396 11.8371C14.7396 12.6067 14.4339 13.3449 13.8896 13.8891C13.3454 14.4334 12.6072 14.7392 11.8375 14.7392H4.87251C4.10282 14.7392 3.36466 14.4334 2.82041 13.8891C2.27617 13.3449 1.97041 12.6067 1.97041 11.8371V4.87202C1.97041 4.10233 2.27617 3.36417 2.82041 2.81993C3.36466 2.27568 4.10282 1.96992 4.87251 1.96992H11.8375C12.6072 1.96992 13.3454 2.27568 13.8896 2.81993C14.4339 3.36417 14.7396 4.10233 14.7396 4.87202V11.8371ZM12.9984 4.58181C12.9984 4.754 12.9473 4.92233 12.8517 5.0655C12.756 5.20868 12.62 5.32027 12.4609 5.38617C12.3018 5.45206 12.1268 5.4693 11.9579 5.43571C11.789 5.40212 11.6339 5.3192 11.5121 5.19744C11.3904 5.07568 11.3074 4.92055 11.2739 4.75166C11.2403 4.58278 11.2575 4.40772 11.3234 4.24863C11.3893 4.08955 11.5009 3.95357 11.6441 3.85791C11.7872 3.76224 11.9556 3.71118 12.1278 3.71118C12.3587 3.71118 12.5801 3.80291 12.7434 3.96618C12.9067 4.12946 12.9984 4.3509 12.9984 4.58181Z" fill="#003366"/>
</svg>
