<svg width="16" height="16" viewBox="0 0 16 16" fill="none" xmlns="http://www.w3.org/2000/svg">
<path d="M14.7846 0.809082H2.01533C1.70746 0.809082 1.41219 0.931384 1.19449 1.14908C0.976794 1.36678 0.854492 1.66205 0.854492 1.96992V14.7392C0.854492 15.047 0.976794 15.3423 1.19449 15.56C1.41219 15.7777 1.70746 15.9 2.01533 15.9H14.7846C15.0924 15.9 15.3877 15.7777 15.6054 15.56C15.8231 15.3423 15.9454 15.047 15.9454 14.7392V1.96992C15.9454 1.66205 15.8231 1.36678 15.6054 1.14908C15.3877 0.931384 15.0924 0.809082 14.7846 0.809082ZM14.7846 14.7392H2.01533V1.96992H14.7846V14.7392ZM6.07827 7.1937V11.8371C6.07827 11.991 6.01712 12.1386 5.90827 12.2475C5.79942 12.3563 5.65179 12.4175 5.49785 12.4175C5.34391 12.4175 5.19628 12.3563 5.08743 12.2475C4.97858 12.1386 4.91743 11.991 4.91743 11.8371V7.1937C4.91743 7.03976 4.97858 6.89213 5.08743 6.78328C5.19628 6.67443 5.34391 6.61328 5.49785 6.61328C5.65179 6.61328 5.79942 6.67443 5.90827 6.78328C6.01712 6.89213 6.07827 7.03976 6.07827 7.1937ZM12.4629 9.22517V11.8371C12.4629 11.991 12.4017 12.1386 12.2929 12.2475C12.184 12.3563 12.0364 12.4175 11.8825 12.4175C11.7285 12.4175 11.5809 12.3563 11.472 12.2475C11.3632 12.1386 11.302 11.991 11.302 11.8371V9.22517C11.302 8.84032 11.1492 8.47124 10.877 8.19912C10.6049 7.92699 10.2358 7.77412 9.851 7.77412C9.46615 7.77412 9.09707 7.92699 8.82495 8.19912C8.55282 8.47124 8.39995 8.84032 8.39995 9.22517V11.8371C8.39995 11.991 8.33879 12.1386 8.22995 12.2475C8.1211 12.3563 7.97346 12.4175 7.81953 12.4175C7.66559 12.4175 7.51796 12.3563 7.40911 12.2475C7.30026 12.1386 7.23911 11.991 7.23911 11.8371V7.1937C7.23983 7.05153 7.2927 6.91457 7.3877 6.80879C7.48271 6.70302 7.61322 6.6358 7.7545 6.61987C7.89578 6.60394 8.03799 6.64043 8.15415 6.72239C8.27032 6.80436 8.35236 6.92611 8.38471 7.06455C8.77735 6.79819 9.23514 6.64382 9.7089 6.61801C10.1827 6.59219 10.6545 6.69592 11.0738 6.91804C11.493 7.14016 11.8439 7.47229 12.0886 7.87877C12.3333 8.28524 12.4627 8.7507 12.4629 9.22517ZM6.36848 5.16223C6.36848 5.33442 6.31742 5.50275 6.22175 5.64592C6.12608 5.7891 5.99011 5.90069 5.83102 5.96659C5.67194 6.03248 5.49688 6.04972 5.328 6.01613C5.15911 5.98254 5.00398 5.89962 4.88222 5.77786C4.76046 5.6561 4.67754 5.50097 4.64395 5.33208C4.61035 5.16319 4.6276 4.98814 4.69349 4.82905C4.75939 4.66997 4.87098 4.53399 5.01415 4.43833C5.15733 4.34266 5.32565 4.2916 5.49785 4.2916C5.72875 4.2916 5.9502 4.38333 6.11348 4.5466C6.27675 4.70988 6.36848 4.93132 6.36848 5.16223Z" fill="#003366"/>
</svg>
