<svg width="17" height="15" viewBox="0 0 17 15" fill="none" xmlns="http://www.w3.org/2000/svg">
<path d="M15.6923 2.5H12.4231V1.875C12.4231 1.37772 12.2164 0.900806 11.8486 0.549175C11.4807 0.197544 10.9818 0 10.4615 0H6.53846C6.01823 0 5.5193 0.197544 5.15144 0.549175C4.78358 0.900806 4.57692 1.37772 4.57692 1.875V2.5H1.30769C0.960871 2.5 0.628254 2.6317 0.383014 2.86612C0.137774 3.10054 0 3.41848 0 3.75V13.75C0 14.0815 0.137774 14.3995 0.383014 14.6339C0.628254 14.8683 0.960871 15 1.30769 15H15.6923C16.0391 15 16.3717 14.8683 16.617 14.6339C16.8622 14.3995 17 14.0815 17 13.75V3.75C17 3.41848 16.8622 3.10054 16.617 2.86612C16.3717 2.6317 16.0391 2.5 15.6923 2.5ZM5.88462 1.875C5.88462 1.70924 5.9535 1.55027 6.07612 1.43306C6.19874 1.31585 6.36505 1.25 6.53846 1.25H10.4615C10.6349 1.25 10.8013 1.31585 10.9239 1.43306C11.0465 1.55027 11.1154 1.70924 11.1154 1.875V2.5H5.88462V1.875ZM15.6923 3.75V7.00078C13.4854 8.14904 11.0127 8.75043 8.5 8.75C5.98744 8.75044 3.51477 8.14934 1.30769 7.00156V3.75H15.6923ZM15.6923 13.75H1.30769V8.40938C3.54705 9.4564 6.0071 10.0005 8.5 10C10.9929 10.0001 13.453 9.45574 15.6923 8.40859V13.75ZM6.53846 6.875C6.53846 6.70924 6.60735 6.55027 6.72997 6.43306C6.85259 6.31585 7.0189 6.25 7.19231 6.25H9.80769C9.9811 6.25 10.1474 6.31585 10.27 6.43306C10.3927 6.55027 10.4615 6.70924 10.4615 6.875C10.4615 7.04076 10.3927 7.19973 10.27 7.31694C10.1474 7.43415 9.9811 7.5 9.80769 7.5H7.19231C7.0189 7.5 6.85259 7.43415 6.72997 7.31694C6.60735 7.19973 6.53846 7.04076 6.53846 6.875Z" fill="white"/>
</svg>
